G04 (created by PCBNEW (2013-jul-07)-stable) date Mon 11 May 2015 11:07:11 AM PDT*
%MOIN*%
G04 Gerber Fmt 3.4, Leading zero omitted, Abs format*
%FSLAX34Y34*%
G01*
G70*
G90*
G04 APERTURE LIST*
%ADD10C,0.006*%
%ADD11R,0.0551181X0.0826772*%
%ADD12O,0.0551181X0.0826772*%
%ADD13R,0.0354331X0.0314961*%
%ADD14R,0.0314961X0.0354331*%
%ADD15R,0.0826772X0.0551181*%
%ADD16O,0.0826772X0.0551181*%
%ADD17R,0.08X0.08*%
%ADD18R,0.0374016X0.0374016*%
%ADD19C,0.125*%
%ADD20R,0.0314961X0.0314961*%
G04 APERTURE END LIST*
G54D10*
G54D11*
X74527Y-50780D03*
G54D12*
X75512Y-50780D03*
G54D13*
X76250Y-49988D03*
X77037Y-50362D03*
X77037Y-49614D03*
G54D14*
X74891Y-55450D03*
X74517Y-56237D03*
X75265Y-56237D03*
G54D15*
X85960Y-60604D03*
G54D16*
X85960Y-58635D03*
X85960Y-59620D03*
G54D15*
X88380Y-60604D03*
G54D16*
X88380Y-58635D03*
X88380Y-59620D03*
G54D15*
X90800Y-60604D03*
G54D16*
X90800Y-58635D03*
X90800Y-59620D03*
G54D12*
X87992Y-56500D03*
X87007Y-56500D03*
G54D11*
X88976Y-56500D03*
G54D12*
X86023Y-56500D03*
G54D16*
X77000Y-62796D03*
X77000Y-61812D03*
G54D15*
X77000Y-63780D03*
G54D16*
X77000Y-60827D03*
X77000Y-59843D03*
X77000Y-58859D03*
G54D15*
X90944Y-49901D03*
G54D16*
X90944Y-50885D03*
G54D17*
X83600Y-58080D03*
G54D18*
X74156Y-57645D03*
X74156Y-57074D03*
X75116Y-57645D03*
X75116Y-57074D03*
G54D19*
X74409Y-46850D03*
X90944Y-46850D03*
X90944Y-63385D03*
X74409Y-63385D03*
G54D20*
X79784Y-50636D03*
X80375Y-50636D03*
X88344Y-61436D03*
X88935Y-61436D03*
X91676Y-60615D03*
X91676Y-60024D03*
X85036Y-59655D03*
X85036Y-59064D03*
X85944Y-61436D03*
X86535Y-61436D03*
X77996Y-62775D03*
X77996Y-62184D03*
X78636Y-63815D03*
X78636Y-63224D03*
M02*
