G04 (created by PCBNEW (2013-jul-07)-stable) date Mon 11 May 2015 11:07:11 AM PDT*
%MOIN*%
G04 Gerber Fmt 3.4, Leading zero omitted, Abs format*
%FSLAX34Y34*%
G01*
G70*
G90*
G04 APERTURE LIST*
%ADD10C,0.006*%
%ADD11R,0.0669291X0.0984252*%
%ADD12R,0.0984252X0.0669291*%
%ADD13R,0.0433071X0.0551181*%
%ADD14R,0.0393701X0.0275591*%
%ADD15R,0.0275591X0.0393701*%
%ADD16R,0.0374016X0.0374016*%
%ADD17O,0.0787402X0.295276*%
%ADD18R,0.0700787X0.124016*%
%ADD19R,0.0314961X0.0314961*%
%ADD20R,0.0551181X0.0826772*%
%ADD21O,0.0551181X0.0826772*%
%ADD22R,0.0314961X0.0354331*%
%ADD23R,0.0354331X0.0314961*%
%ADD24R,0.038X0.05*%
%ADD25R,0.0826772X0.0551181*%
%ADD26O,0.0826772X0.0551181*%
%ADD27R,0.08X0.08*%
%ADD28R,0.165354X0.177165*%
%ADD29R,0.177165X0.165354*%
%ADD30R,0.0511811X0.0354331*%
%ADD31C,0.125*%
%ADD32C,0.024*%
%ADD33C,0.024*%
%ADD34C,0.008*%
%ADD35C,0.036*%
%ADD36C,0.01*%
G04 APERTURE END LIST*
G54D10*
G54D11*
X73963Y-54449D03*
X73963Y-52874D03*
X87011Y-50395D03*
X87011Y-48820D03*
G54D12*
X76670Y-48163D03*
X78245Y-48163D03*
G54D13*
X84415Y-48623D03*
X85104Y-48623D03*
G54D14*
X84367Y-46925D03*
X84367Y-47674D03*
X85312Y-46925D03*
X84367Y-47300D03*
X85312Y-47674D03*
X82687Y-60385D03*
X82687Y-61134D03*
X83632Y-60385D03*
X82687Y-60760D03*
X83632Y-61134D03*
G54D13*
X82755Y-62023D03*
X83444Y-62023D03*
G54D15*
X91094Y-52567D03*
X90345Y-52567D03*
X91094Y-53512D03*
X90720Y-52567D03*
X90345Y-53512D03*
G54D16*
X90256Y-54174D03*
X90256Y-54745D03*
X89405Y-52496D03*
X88834Y-52496D03*
G54D17*
X80098Y-48083D03*
X82461Y-48083D03*
G54D18*
X86718Y-47043D03*
X88777Y-47043D03*
G54D16*
X85065Y-46176D03*
X84494Y-46176D03*
G54D19*
X74704Y-49223D03*
X75295Y-49223D03*
G54D20*
X74527Y-50780D03*
G54D21*
X75512Y-50780D03*
G54D22*
X78148Y-49430D03*
X78522Y-50217D03*
X77774Y-50217D03*
X77791Y-53169D03*
X77417Y-52382D03*
X78165Y-52382D03*
X77751Y-55329D03*
X77377Y-54542D03*
X78125Y-54542D03*
G54D23*
X79690Y-55471D03*
X80477Y-55097D03*
X80477Y-55845D03*
G54D22*
X78988Y-56390D03*
X79362Y-57177D03*
X78614Y-57177D03*
G54D23*
X85449Y-63928D03*
X84662Y-64302D03*
X84662Y-63554D03*
G54D24*
X85260Y-62520D03*
X85760Y-62520D03*
X86260Y-62520D03*
X87040Y-62520D03*
X87540Y-62520D03*
X88040Y-62520D03*
X87020Y-64080D03*
X87520Y-64080D03*
X88020Y-64080D03*
G54D23*
X81529Y-63968D03*
X80742Y-64342D03*
X80742Y-63594D03*
G54D25*
X85960Y-60604D03*
G54D26*
X85960Y-58635D03*
X85960Y-59620D03*
G54D25*
X88380Y-60604D03*
G54D26*
X88380Y-58635D03*
X88380Y-59620D03*
G54D25*
X90800Y-60604D03*
G54D26*
X90800Y-58635D03*
X90800Y-59620D03*
G54D21*
X87992Y-56500D03*
X87007Y-56500D03*
G54D20*
X88976Y-56500D03*
G54D21*
X86023Y-56500D03*
G54D26*
X77000Y-62796D03*
X77000Y-61812D03*
G54D25*
X77000Y-63780D03*
G54D26*
X77000Y-60827D03*
X77000Y-59843D03*
X77000Y-58859D03*
G54D25*
X90944Y-49901D03*
G54D26*
X90944Y-50885D03*
G54D27*
X83600Y-58080D03*
G54D28*
X85043Y-51433D03*
X85043Y-54189D03*
G54D29*
X79573Y-52796D03*
X82329Y-52796D03*
G54D16*
X78516Y-50994D03*
X78516Y-51565D03*
X77796Y-50994D03*
X77796Y-51565D03*
X76636Y-52514D03*
X76636Y-53085D03*
X87096Y-51394D03*
X87096Y-51965D03*
X87096Y-52714D03*
X87096Y-53285D03*
X88016Y-52714D03*
X88016Y-53285D03*
X75980Y-55620D03*
X75980Y-56190D03*
X75980Y-56801D03*
X75980Y-57372D03*
G54D19*
X76767Y-56791D03*
X76767Y-57381D03*
G54D16*
X79063Y-58745D03*
X79063Y-58174D03*
X80214Y-58763D03*
X80785Y-58763D03*
X78954Y-60843D03*
X79525Y-60843D03*
G54D19*
X83475Y-59716D03*
X82884Y-59716D03*
G54D16*
X83623Y-64225D03*
X83623Y-63654D03*
X78954Y-63643D03*
X79525Y-63643D03*
G54D30*
X91456Y-54485D03*
X91456Y-55235D03*
G54D31*
X74409Y-46850D03*
X90944Y-46850D03*
X90944Y-63385D03*
X74409Y-63385D03*
G54D32*
X81200Y-62480D03*
X81200Y-60400D03*
X84480Y-60400D03*
X85840Y-46000D03*
X87840Y-46000D03*
X88240Y-48640D03*
X92000Y-48640D03*
X86320Y-55040D03*
X82000Y-55360D03*
X84880Y-46720D03*
X82460Y-56520D03*
X74960Y-54560D03*
X75920Y-54560D03*
X79280Y-54400D03*
X77760Y-53760D03*
X76640Y-53760D03*
X79120Y-50320D03*
X88640Y-53040D03*
X77760Y-57360D03*
X82960Y-63920D03*
X87040Y-63120D03*
X85280Y-63120D03*
X88560Y-64080D03*
X86000Y-63920D03*
X79280Y-63120D03*
X80960Y-50636D03*
X77280Y-57440D03*
X75840Y-49200D03*
X73326Y-53641D03*
X73326Y-52263D03*
X73520Y-50800D03*
X73520Y-48640D03*
X75600Y-48640D03*
X76240Y-46800D03*
X77280Y-46080D03*
X79360Y-46080D03*
X81600Y-46080D03*
X84000Y-46080D03*
X88800Y-51900D03*
X88800Y-49760D03*
X90240Y-55360D03*
X91440Y-56240D03*
X90720Y-53120D03*
X88400Y-50400D03*
X83220Y-60780D03*
X84640Y-61200D03*
X84880Y-47280D03*
X86000Y-47280D03*
X83840Y-54400D03*
X83840Y-53600D03*
X83840Y-54000D03*
X82640Y-51600D03*
X81600Y-51600D03*
X82160Y-51600D03*
X81360Y-58720D03*
X81360Y-56000D03*
X80160Y-64320D03*
X85920Y-64320D03*
X73917Y-55314D03*
X74311Y-55314D03*
X73523Y-55314D03*
X75440Y-61440D03*
X73520Y-61440D03*
X73520Y-59840D03*
X73520Y-58320D03*
X73520Y-56720D03*
X80080Y-60800D03*
X79600Y-57760D03*
X77760Y-55920D03*
X77360Y-48640D03*
X77360Y-47840D03*
X77360Y-48240D03*
X87120Y-53840D03*
X81200Y-48160D03*
X85200Y-52800D03*
X84400Y-52800D03*
X84800Y-52800D03*
X80960Y-53200D03*
X80960Y-52480D03*
X80960Y-52800D03*
X81600Y-63120D03*
X83600Y-63120D03*
X84640Y-63120D03*
X75440Y-55200D03*
X77520Y-49440D03*
G54D33*
X81200Y-62480D02*
X81200Y-60400D01*
X84480Y-59620D02*
X84480Y-60400D01*
X83476Y-60201D02*
X83660Y-60385D01*
X85960Y-59620D02*
X84480Y-59620D01*
X91740Y-59620D02*
X90800Y-59620D01*
X92160Y-59200D02*
X91740Y-59620D01*
X92160Y-54560D02*
X92160Y-59200D01*
X90800Y-59620D02*
X88380Y-59620D01*
X88380Y-59620D02*
X85960Y-59620D01*
X91095Y-53815D02*
X91095Y-53540D01*
X85340Y-46925D02*
X85340Y-46180D01*
X91095Y-53540D02*
X91820Y-53540D01*
X85660Y-46180D02*
X85340Y-46180D01*
X85840Y-46000D02*
X85660Y-46180D01*
X87840Y-48240D02*
X87840Y-46000D01*
X88240Y-48640D02*
X87840Y-48240D01*
X92000Y-53360D02*
X92000Y-48640D01*
X91820Y-53540D02*
X92000Y-53360D01*
X91460Y-54310D02*
X91910Y-54310D01*
X91910Y-54310D02*
X92160Y-54560D01*
X91460Y-54310D02*
X91460Y-54180D01*
X91460Y-54180D02*
X91095Y-53815D01*
X85340Y-46180D02*
X85076Y-46180D01*
X83476Y-59720D02*
X83476Y-60201D01*
X84480Y-59620D02*
X83576Y-59620D01*
X83576Y-59620D02*
X83476Y-59720D01*
X87100Y-51380D02*
X86320Y-51380D01*
X86320Y-55040D02*
X86320Y-51380D01*
G54D34*
X82660Y-61135D02*
X82660Y-61460D01*
X82725Y-61525D02*
X82725Y-62020D01*
X82660Y-61460D02*
X82725Y-61525D01*
G54D33*
X82725Y-62560D02*
X82240Y-62560D01*
X82000Y-55360D02*
X82000Y-61120D01*
X82000Y-62320D02*
X82000Y-61120D01*
X82240Y-62560D02*
X82000Y-62320D01*
X82725Y-62560D02*
X82725Y-62020D01*
X86320Y-51380D02*
X86320Y-49200D01*
G54D34*
X85340Y-47675D02*
X85340Y-48020D01*
X85135Y-48225D02*
X85135Y-48620D01*
X85340Y-48020D02*
X85135Y-48225D01*
G54D33*
X85135Y-49200D02*
X86320Y-49200D01*
X86320Y-49200D02*
X86666Y-49200D01*
X86666Y-49200D02*
X87007Y-48858D01*
X85135Y-48620D02*
X85135Y-49200D01*
X90345Y-52540D02*
X90345Y-51920D01*
X91095Y-52540D02*
X91095Y-52055D01*
X90960Y-51920D02*
X90345Y-51920D01*
X90345Y-51920D02*
X89416Y-51920D01*
X91095Y-52055D02*
X90960Y-51920D01*
X87100Y-51380D02*
X88980Y-51380D01*
X89416Y-51816D02*
X89416Y-51920D01*
X88980Y-51380D02*
X89416Y-51816D01*
G54D35*
X86895Y-47244D02*
X86895Y-48745D01*
X86895Y-48745D02*
X87007Y-48858D01*
G54D33*
X89416Y-51920D02*
X89416Y-52500D01*
G54D34*
X84340Y-47675D02*
X84340Y-48575D01*
X84340Y-48575D02*
X84385Y-48620D01*
X84340Y-46925D02*
X84675Y-46925D01*
X84675Y-46925D02*
X84880Y-46720D01*
X82625Y-60385D02*
X82660Y-60385D01*
X82460Y-60220D02*
X82625Y-60385D01*
X82460Y-56520D02*
X82460Y-60220D01*
X77000Y-60827D02*
X78927Y-60827D01*
X78927Y-60827D02*
X78940Y-60840D01*
X78940Y-63640D02*
X78940Y-60840D01*
G54D33*
X74714Y-52874D02*
X73963Y-52874D01*
X74880Y-53040D02*
X74714Y-52874D01*
X74880Y-54480D02*
X74880Y-53040D01*
X74960Y-54560D02*
X74880Y-54480D01*
X79573Y-52796D02*
X79573Y-54106D01*
X75980Y-54620D02*
X75980Y-55620D01*
X75920Y-54560D02*
X75980Y-54620D01*
X79573Y-54106D02*
X79280Y-54400D01*
X74527Y-50780D02*
X74527Y-51456D01*
X74527Y-51456D02*
X73963Y-52020D01*
X73963Y-52020D02*
X73963Y-52874D01*
X79520Y-52849D02*
X79573Y-52796D01*
X74527Y-50780D02*
X74527Y-49396D01*
X74527Y-49396D02*
X74704Y-49220D01*
X76636Y-53085D02*
X76636Y-53756D01*
X77791Y-53728D02*
X77791Y-53169D01*
X77760Y-53760D02*
X77791Y-53728D01*
X76636Y-53756D02*
X76640Y-53760D01*
X78522Y-50217D02*
X78522Y-50988D01*
X78522Y-50988D02*
X78516Y-50994D01*
X78544Y-50240D02*
X78522Y-50217D01*
X79120Y-50320D02*
X79040Y-50240D01*
X79040Y-50240D02*
X78544Y-50240D01*
G54D34*
X77000Y-59843D02*
X78556Y-59843D01*
X79060Y-59340D02*
X79060Y-58760D01*
X78556Y-59843D02*
X79060Y-59340D01*
X80200Y-58760D02*
X79060Y-58760D01*
X87100Y-51980D02*
X87100Y-52700D01*
X87100Y-52700D02*
X87104Y-52704D01*
X87104Y-52704D02*
X87600Y-52704D01*
X88304Y-52704D02*
X88640Y-53040D01*
X88020Y-52704D02*
X88304Y-52704D01*
X87600Y-52704D02*
X88020Y-52704D01*
X75984Y-56786D02*
X75984Y-56205D01*
X75984Y-56786D02*
X76767Y-56786D01*
X76767Y-56786D02*
X76771Y-56790D01*
X77670Y-56790D02*
X76771Y-56790D01*
X77760Y-56880D02*
X77670Y-56790D01*
X77760Y-57360D02*
X77760Y-56880D01*
G54D33*
X83695Y-64315D02*
X83620Y-64240D01*
X83695Y-64315D02*
X84160Y-64315D01*
X82960Y-63920D02*
X83280Y-64240D01*
X83280Y-64240D02*
X83620Y-64240D01*
G54D34*
X83660Y-61135D02*
X83660Y-61380D01*
X83475Y-61565D02*
X83475Y-62020D01*
X83660Y-61380D02*
X83475Y-61565D01*
G54D33*
X84000Y-62520D02*
X83560Y-62520D01*
X83475Y-62435D02*
X83475Y-62020D01*
X83560Y-62520D02*
X83475Y-62435D01*
X84160Y-64315D02*
X84160Y-62520D01*
X85260Y-62520D02*
X85260Y-63100D01*
X85260Y-63100D02*
X85280Y-63120D01*
X85260Y-62520D02*
X84160Y-62520D01*
X84160Y-62520D02*
X84000Y-62520D01*
X84000Y-62520D02*
X83975Y-62520D01*
X84627Y-64315D02*
X84160Y-64315D01*
X87040Y-62520D02*
X87040Y-63120D01*
X87040Y-63120D02*
X87040Y-64060D01*
X87040Y-64060D02*
X87020Y-64080D01*
X85960Y-60604D02*
X85960Y-61480D01*
X85760Y-61680D02*
X85760Y-62520D01*
X85960Y-61480D02*
X85760Y-61680D01*
X88380Y-60604D02*
X88380Y-61060D01*
X87540Y-61660D02*
X87540Y-62520D01*
X87760Y-61440D02*
X87540Y-61660D01*
X88000Y-61440D02*
X87760Y-61440D01*
X88380Y-61060D02*
X88000Y-61440D01*
X87520Y-64080D02*
X87520Y-64560D01*
X90035Y-60604D02*
X90800Y-60604D01*
X88960Y-61680D02*
X90035Y-60604D01*
X88960Y-64400D02*
X88960Y-61680D01*
X88640Y-64720D02*
X88960Y-64400D01*
X87680Y-64720D02*
X88640Y-64720D01*
X87520Y-64560D02*
X87680Y-64720D01*
X86260Y-62520D02*
X86260Y-63660D01*
X86260Y-63660D02*
X86000Y-63920D01*
X85493Y-63940D02*
X85980Y-63940D01*
X88560Y-64080D02*
X88020Y-64080D01*
X85980Y-63940D02*
X86000Y-63920D01*
X88040Y-62520D02*
X88040Y-64060D01*
X88040Y-64060D02*
X88020Y-64080D01*
G54D34*
X80960Y-50636D02*
X80960Y-50640D01*
X76771Y-57382D02*
X77222Y-57382D01*
X77222Y-57382D02*
X77280Y-57440D01*
X75296Y-49220D02*
X75820Y-49220D01*
X75820Y-49220D02*
X75840Y-49200D01*
X84484Y-46180D02*
X84384Y-46080D01*
X73520Y-50800D02*
X73326Y-52263D01*
X75600Y-48640D02*
X73520Y-48640D01*
X76960Y-46080D02*
X76240Y-46800D01*
X77280Y-46080D02*
X76960Y-46080D01*
X81600Y-46080D02*
X79360Y-46080D01*
X84384Y-46080D02*
X84000Y-46080D01*
X88824Y-51924D02*
X88800Y-51900D01*
X88824Y-51924D02*
X88824Y-52500D01*
X90260Y-54756D02*
X90260Y-55340D01*
X90260Y-55340D02*
X90240Y-55360D01*
X91460Y-55410D02*
X91460Y-56220D01*
X91460Y-56220D02*
X91440Y-56240D01*
X90720Y-52567D02*
X90720Y-53120D01*
X87011Y-50395D02*
X87011Y-50828D01*
X87011Y-50828D02*
X86983Y-50800D01*
X87011Y-50395D02*
X88395Y-50395D01*
X88395Y-50395D02*
X88400Y-50400D01*
X83200Y-60760D02*
X83220Y-60780D01*
X82660Y-60760D02*
X83200Y-60760D01*
X86000Y-47280D02*
X84880Y-47280D01*
X84860Y-47300D02*
X84880Y-47280D01*
X84860Y-47300D02*
X84340Y-47300D01*
X84780Y-54060D02*
X84720Y-54000D01*
X83840Y-53600D02*
X83840Y-54400D01*
X84720Y-54000D02*
X83840Y-54000D01*
X82220Y-52800D02*
X82240Y-52780D01*
X81600Y-51600D02*
X82640Y-51600D01*
X82240Y-52780D02*
X82160Y-51600D01*
X81360Y-56000D02*
X81360Y-58720D01*
X81320Y-58760D02*
X81360Y-58720D01*
X81320Y-58760D02*
X80800Y-58760D01*
X80672Y-64320D02*
X80160Y-64320D01*
X80672Y-64320D02*
X80707Y-64355D01*
X73523Y-55314D02*
X73520Y-56720D01*
X73957Y-55274D02*
X73917Y-55314D01*
X74311Y-55314D02*
X73523Y-55314D01*
X73960Y-54408D02*
X73957Y-55274D01*
X73520Y-61440D02*
X75440Y-61440D01*
X73520Y-58320D02*
X73520Y-59840D01*
X79540Y-60840D02*
X80040Y-60840D01*
X80040Y-60840D02*
X80080Y-60800D01*
X79375Y-57213D02*
X79375Y-57535D01*
X79375Y-57535D02*
X79600Y-57760D01*
X76771Y-57382D02*
X75988Y-57382D01*
X75988Y-57382D02*
X75984Y-57386D01*
X77740Y-55373D02*
X77740Y-55900D01*
X77740Y-55900D02*
X77760Y-55920D01*
X76712Y-48160D02*
X77280Y-48160D01*
X77360Y-47840D02*
X77360Y-48640D01*
X77280Y-48160D02*
X77360Y-48240D01*
X88020Y-53296D02*
X87104Y-53296D01*
X87120Y-53312D02*
X87120Y-53840D01*
X87104Y-53296D02*
X87120Y-53312D01*
X84780Y-54060D02*
X84780Y-52820D01*
X84400Y-52800D02*
X85200Y-52800D01*
X84780Y-52820D02*
X84800Y-52800D01*
X82220Y-52800D02*
X80960Y-52800D01*
X80960Y-52480D02*
X80960Y-53200D01*
X90260Y-54164D02*
X90260Y-53625D01*
X90260Y-53625D02*
X90345Y-53540D01*
X77405Y-52347D02*
X77405Y-52275D01*
X77800Y-51880D02*
X77800Y-51580D01*
X77405Y-52275D02*
X77800Y-51880D01*
X77405Y-52347D02*
X77405Y-54467D01*
X77405Y-54467D02*
X77365Y-54507D01*
X77800Y-50980D02*
X77800Y-50268D01*
X77800Y-50268D02*
X77785Y-50253D01*
X81573Y-63980D02*
X81573Y-63147D01*
X81573Y-63147D02*
X81600Y-63120D01*
X84627Y-63565D02*
X84627Y-63133D01*
X83620Y-63140D02*
X83620Y-63640D01*
X83600Y-63120D02*
X83620Y-63140D01*
X84627Y-63133D02*
X84640Y-63120D01*
X79540Y-63640D02*
X80672Y-63640D01*
X80672Y-63640D02*
X80707Y-63605D01*
X75740Y-52500D02*
X76640Y-52500D01*
X75520Y-52720D02*
X75740Y-52500D01*
X75520Y-55120D02*
X75520Y-52720D01*
X75440Y-55200D02*
X75520Y-55120D01*
X76640Y-51440D02*
X76640Y-52480D01*
X77440Y-50640D02*
X76640Y-51440D01*
X77440Y-49520D02*
X77440Y-50640D01*
X77520Y-49440D02*
X77440Y-49520D01*
G54D35*
X90944Y-49901D02*
X90461Y-49901D01*
X88695Y-47975D02*
X88695Y-47244D01*
X89040Y-48320D02*
X88695Y-47975D01*
X89520Y-48320D02*
X89040Y-48320D01*
X90000Y-48800D02*
X89520Y-48320D01*
X90000Y-49440D02*
X90000Y-48800D01*
X90461Y-49901D02*
X90000Y-49440D01*
G54D34*
X80513Y-55835D02*
X80513Y-56447D01*
X78625Y-56895D02*
X78625Y-57213D01*
X78720Y-56800D02*
X78625Y-56895D01*
X80160Y-56800D02*
X78720Y-56800D01*
X80513Y-56447D02*
X80160Y-56800D01*
X79060Y-58160D02*
X79060Y-57648D01*
X79060Y-57648D02*
X78625Y-57213D01*
X78155Y-52347D02*
X78155Y-52245D01*
X78520Y-51880D02*
X78520Y-51580D01*
X78155Y-52245D02*
X78520Y-51880D01*
X79647Y-55460D02*
X79000Y-55460D01*
X78115Y-54507D02*
X78747Y-54507D01*
X79000Y-54760D02*
X79000Y-55460D01*
X79000Y-55460D02*
X79000Y-56347D01*
X78747Y-54507D02*
X79000Y-54760D01*
X78155Y-52347D02*
X78155Y-54467D01*
X78155Y-54467D02*
X78115Y-54507D01*
G54D10*
G36*
X80510Y-49630D02*
X77841Y-49630D01*
X77889Y-49513D01*
X77890Y-49366D01*
X77833Y-49230D01*
X77810Y-49206D01*
X77810Y-46610D01*
X80510Y-46610D01*
X80510Y-49630D01*
X80510Y-49630D01*
G37*
G54D36*
X80510Y-49630D02*
X77841Y-49630D01*
X77889Y-49513D01*
X77890Y-49366D01*
X77833Y-49230D01*
X77810Y-49206D01*
X77810Y-46610D01*
X80510Y-46610D01*
X80510Y-49630D01*
G54D10*
G36*
X83352Y-60760D02*
X83294Y-60784D01*
X83223Y-60854D01*
X83185Y-60946D01*
X83185Y-61045D01*
X83185Y-61321D01*
X83223Y-61413D01*
X83229Y-61419D01*
X83207Y-61454D01*
X83198Y-61498D01*
X83178Y-61498D01*
X83099Y-61530D01*
X83021Y-61498D01*
X83009Y-61498D01*
X83008Y-61491D01*
X83025Y-61483D01*
X83096Y-61413D01*
X83134Y-61321D01*
X83134Y-61222D01*
X83134Y-60947D01*
X83134Y-60946D01*
X83134Y-60946D01*
X83134Y-60872D01*
X83071Y-60810D01*
X83051Y-60810D01*
X83026Y-60784D01*
X82967Y-60759D01*
X83025Y-60735D01*
X83051Y-60710D01*
X83071Y-60710D01*
X83134Y-60647D01*
X83134Y-60572D01*
X83134Y-60572D01*
X83134Y-60474D01*
X83134Y-60343D01*
X83185Y-60419D01*
X83185Y-60573D01*
X83223Y-60665D01*
X83293Y-60735D01*
X83352Y-60760D01*
X83352Y-60760D01*
G37*
G54D36*
X83352Y-60760D02*
X83294Y-60784D01*
X83223Y-60854D01*
X83185Y-60946D01*
X83185Y-61045D01*
X83185Y-61321D01*
X83223Y-61413D01*
X83229Y-61419D01*
X83207Y-61454D01*
X83198Y-61498D01*
X83178Y-61498D01*
X83099Y-61530D01*
X83021Y-61498D01*
X83009Y-61498D01*
X83008Y-61491D01*
X83025Y-61483D01*
X83096Y-61413D01*
X83134Y-61321D01*
X83134Y-61222D01*
X83134Y-60947D01*
X83134Y-60946D01*
X83134Y-60946D01*
X83134Y-60872D01*
X83071Y-60810D01*
X83051Y-60810D01*
X83026Y-60784D01*
X82967Y-60759D01*
X83025Y-60735D01*
X83051Y-60710D01*
X83071Y-60710D01*
X83134Y-60647D01*
X83134Y-60572D01*
X83134Y-60572D01*
X83134Y-60474D01*
X83134Y-60343D01*
X83185Y-60419D01*
X83185Y-60573D01*
X83223Y-60665D01*
X83293Y-60735D01*
X83352Y-60760D01*
G54D10*
G36*
X85032Y-47300D02*
X84974Y-47324D01*
X84903Y-47394D01*
X84865Y-47486D01*
X84865Y-47585D01*
X84865Y-47861D01*
X84903Y-47953D01*
X84950Y-47999D01*
X84929Y-48019D01*
X84890Y-48079D01*
X84890Y-47990D01*
X84739Y-47990D01*
X84776Y-47953D01*
X84814Y-47861D01*
X84814Y-47762D01*
X84814Y-47487D01*
X84814Y-47486D01*
X84814Y-47486D01*
X84814Y-47412D01*
X84751Y-47350D01*
X84731Y-47350D01*
X84706Y-47324D01*
X84647Y-47299D01*
X84705Y-47275D01*
X84731Y-47250D01*
X84751Y-47250D01*
X84814Y-47187D01*
X84814Y-47173D01*
X84874Y-47134D01*
X84903Y-47205D01*
X84973Y-47275D01*
X85032Y-47300D01*
X85032Y-47300D01*
G37*
G54D36*
X85032Y-47300D02*
X84974Y-47324D01*
X84903Y-47394D01*
X84865Y-47486D01*
X84865Y-47585D01*
X84865Y-47861D01*
X84903Y-47953D01*
X84950Y-47999D01*
X84929Y-48019D01*
X84890Y-48079D01*
X84890Y-47990D01*
X84739Y-47990D01*
X84776Y-47953D01*
X84814Y-47861D01*
X84814Y-47762D01*
X84814Y-47487D01*
X84814Y-47486D01*
X84814Y-47486D01*
X84814Y-47412D01*
X84751Y-47350D01*
X84731Y-47350D01*
X84706Y-47324D01*
X84647Y-47299D01*
X84705Y-47275D01*
X84731Y-47250D01*
X84751Y-47250D01*
X84814Y-47187D01*
X84814Y-47173D01*
X84874Y-47134D01*
X84903Y-47205D01*
X84973Y-47275D01*
X85032Y-47300D01*
G54D10*
G36*
X85590Y-61326D02*
X85498Y-61418D01*
X85418Y-61538D01*
X85390Y-61680D01*
X85390Y-62019D01*
X85020Y-62019D01*
X84928Y-62057D01*
X84858Y-62128D01*
X84849Y-62150D01*
X84160Y-62150D01*
X84000Y-62150D01*
X83975Y-62150D01*
X83911Y-62150D01*
X83911Y-61698D01*
X83873Y-61606D01*
X83858Y-61591D01*
X83865Y-61585D01*
X83865Y-61585D01*
X83865Y-61585D01*
X83918Y-61505D01*
X83918Y-61505D01*
X83970Y-61483D01*
X84041Y-61413D01*
X84079Y-61321D01*
X84079Y-61222D01*
X84079Y-60946D01*
X84041Y-60854D01*
X83971Y-60784D01*
X83912Y-60759D01*
X83970Y-60735D01*
X84041Y-60665D01*
X84079Y-60573D01*
X84079Y-60474D01*
X84079Y-60198D01*
X84041Y-60106D01*
X83971Y-60036D01*
X83879Y-59998D01*
X83851Y-59998D01*
X83855Y-59990D01*
X84110Y-59990D01*
X84110Y-60399D01*
X84109Y-60473D01*
X84166Y-60609D01*
X84218Y-60661D01*
X84270Y-60713D01*
X84338Y-60741D01*
X84406Y-60769D01*
X84480Y-60770D01*
X84553Y-60770D01*
X84621Y-60741D01*
X84689Y-60713D01*
X84741Y-60661D01*
X84793Y-60609D01*
X84821Y-60541D01*
X84849Y-60473D01*
X84850Y-60400D01*
X84850Y-60326D01*
X84850Y-60326D01*
X84850Y-59990D01*
X85436Y-59990D01*
X85437Y-59991D01*
X85567Y-60078D01*
X85497Y-60078D01*
X85405Y-60116D01*
X85334Y-60186D01*
X85296Y-60278D01*
X85296Y-60378D01*
X85296Y-60929D01*
X85334Y-61021D01*
X85404Y-61091D01*
X85496Y-61129D01*
X85590Y-61129D01*
X85590Y-61326D01*
X85590Y-61326D01*
G37*
G54D36*
X85590Y-61326D02*
X85498Y-61418D01*
X85418Y-61538D01*
X85390Y-61680D01*
X85390Y-62019D01*
X85020Y-62019D01*
X84928Y-62057D01*
X84858Y-62128D01*
X84849Y-62150D01*
X84160Y-62150D01*
X84000Y-62150D01*
X83975Y-62150D01*
X83911Y-62150D01*
X83911Y-61698D01*
X83873Y-61606D01*
X83858Y-61591D01*
X83865Y-61585D01*
X83865Y-61585D01*
X83865Y-61585D01*
X83918Y-61505D01*
X83918Y-61505D01*
X83970Y-61483D01*
X84041Y-61413D01*
X84079Y-61321D01*
X84079Y-61222D01*
X84079Y-60946D01*
X84041Y-60854D01*
X83971Y-60784D01*
X83912Y-60759D01*
X83970Y-60735D01*
X84041Y-60665D01*
X84079Y-60573D01*
X84079Y-60474D01*
X84079Y-60198D01*
X84041Y-60106D01*
X83971Y-60036D01*
X83879Y-59998D01*
X83851Y-59998D01*
X83855Y-59990D01*
X84110Y-59990D01*
X84110Y-60399D01*
X84109Y-60473D01*
X84166Y-60609D01*
X84218Y-60661D01*
X84270Y-60713D01*
X84338Y-60741D01*
X84406Y-60769D01*
X84480Y-60770D01*
X84553Y-60770D01*
X84621Y-60741D01*
X84689Y-60713D01*
X84741Y-60661D01*
X84793Y-60609D01*
X84821Y-60541D01*
X84849Y-60473D01*
X84850Y-60400D01*
X84850Y-60326D01*
X84850Y-60326D01*
X84850Y-59990D01*
X85436Y-59990D01*
X85437Y-59991D01*
X85567Y-60078D01*
X85497Y-60078D01*
X85405Y-60116D01*
X85334Y-60186D01*
X85296Y-60278D01*
X85296Y-60378D01*
X85296Y-60929D01*
X85334Y-61021D01*
X85404Y-61091D01*
X85496Y-61129D01*
X85590Y-61129D01*
X85590Y-61326D01*
G54D10*
G36*
X87167Y-64650D02*
X85002Y-64650D01*
X85051Y-64601D01*
X85089Y-64509D01*
X85089Y-64410D01*
X85089Y-64256D01*
X85130Y-64297D01*
X85222Y-64335D01*
X85322Y-64335D01*
X85676Y-64335D01*
X85738Y-64310D01*
X85980Y-64310D01*
X86121Y-64281D01*
X86167Y-64251D01*
X86209Y-64233D01*
X86241Y-64201D01*
X86241Y-64201D01*
X86261Y-64181D01*
X86261Y-64181D01*
X86313Y-64129D01*
X86313Y-64129D01*
X86521Y-63921D01*
X86579Y-63834D01*
X86579Y-63879D01*
X86579Y-64379D01*
X86617Y-64471D01*
X86688Y-64541D01*
X86780Y-64579D01*
X86879Y-64580D01*
X87153Y-64580D01*
X87167Y-64650D01*
X87167Y-64650D01*
G37*
G54D36*
X87167Y-64650D02*
X85002Y-64650D01*
X85051Y-64601D01*
X85089Y-64509D01*
X85089Y-64410D01*
X85089Y-64256D01*
X85130Y-64297D01*
X85222Y-64335D01*
X85322Y-64335D01*
X85676Y-64335D01*
X85738Y-64310D01*
X85980Y-64310D01*
X86121Y-64281D01*
X86167Y-64251D01*
X86209Y-64233D01*
X86241Y-64201D01*
X86241Y-64201D01*
X86261Y-64181D01*
X86261Y-64181D01*
X86313Y-64129D01*
X86313Y-64129D01*
X86521Y-63921D01*
X86579Y-63834D01*
X86579Y-63879D01*
X86579Y-64379D01*
X86617Y-64471D01*
X86688Y-64541D01*
X86780Y-64579D01*
X86879Y-64580D01*
X87153Y-64580D01*
X87167Y-64650D01*
G54D10*
G36*
X87718Y-45650D02*
X87630Y-45686D01*
X87526Y-45790D01*
X87470Y-45926D01*
X87469Y-46073D01*
X87470Y-46073D01*
X87470Y-48109D01*
X87396Y-48078D01*
X87325Y-48078D01*
X87325Y-47244D01*
X87319Y-47213D01*
X87319Y-46374D01*
X87281Y-46282D01*
X87210Y-46212D01*
X87119Y-46173D01*
X87019Y-46173D01*
X86318Y-46173D01*
X86226Y-46211D01*
X86156Y-46282D01*
X86118Y-46373D01*
X86118Y-46473D01*
X86118Y-47713D01*
X86156Y-47805D01*
X86226Y-47875D01*
X86318Y-47913D01*
X86417Y-47914D01*
X86465Y-47914D01*
X86465Y-48187D01*
X86427Y-48278D01*
X86427Y-48378D01*
X86427Y-48830D01*
X86320Y-48830D01*
X85571Y-48830D01*
X85571Y-48298D01*
X85541Y-48228D01*
X85545Y-48225D01*
X85607Y-48130D01*
X85627Y-48033D01*
X85650Y-48023D01*
X85721Y-47953D01*
X85759Y-47861D01*
X85759Y-47762D01*
X85759Y-47486D01*
X85721Y-47394D01*
X85651Y-47324D01*
X85592Y-47299D01*
X85650Y-47275D01*
X85721Y-47205D01*
X85759Y-47113D01*
X85759Y-47014D01*
X85759Y-46738D01*
X85721Y-46646D01*
X85710Y-46635D01*
X85710Y-46540D01*
X85801Y-46521D01*
X85921Y-46441D01*
X86101Y-46261D01*
X86101Y-46261D01*
X86153Y-46209D01*
X86181Y-46141D01*
X86209Y-46073D01*
X86210Y-46000D01*
X86210Y-45926D01*
X86181Y-45858D01*
X86153Y-45790D01*
X86101Y-45738D01*
X86049Y-45686D01*
X85961Y-45650D01*
X87718Y-45650D01*
X87718Y-45650D01*
G37*
G54D36*
X87718Y-45650D02*
X87630Y-45686D01*
X87526Y-45790D01*
X87470Y-45926D01*
X87469Y-46073D01*
X87470Y-46073D01*
X87470Y-48109D01*
X87396Y-48078D01*
X87325Y-48078D01*
X87325Y-47244D01*
X87319Y-47213D01*
X87319Y-46374D01*
X87281Y-46282D01*
X87210Y-46212D01*
X87119Y-46173D01*
X87019Y-46173D01*
X86318Y-46173D01*
X86226Y-46211D01*
X86156Y-46282D01*
X86118Y-46373D01*
X86118Y-46473D01*
X86118Y-47713D01*
X86156Y-47805D01*
X86226Y-47875D01*
X86318Y-47913D01*
X86417Y-47914D01*
X86465Y-47914D01*
X86465Y-48187D01*
X86427Y-48278D01*
X86427Y-48378D01*
X86427Y-48830D01*
X86320Y-48830D01*
X85571Y-48830D01*
X85571Y-48298D01*
X85541Y-48228D01*
X85545Y-48225D01*
X85607Y-48130D01*
X85627Y-48033D01*
X85650Y-48023D01*
X85721Y-47953D01*
X85759Y-47861D01*
X85759Y-47762D01*
X85759Y-47486D01*
X85721Y-47394D01*
X85651Y-47324D01*
X85592Y-47299D01*
X85650Y-47275D01*
X85721Y-47205D01*
X85759Y-47113D01*
X85759Y-47014D01*
X85759Y-46738D01*
X85721Y-46646D01*
X85710Y-46635D01*
X85710Y-46540D01*
X85801Y-46521D01*
X85921Y-46441D01*
X86101Y-46261D01*
X86101Y-46261D01*
X86153Y-46209D01*
X86181Y-46141D01*
X86209Y-46073D01*
X86210Y-46000D01*
X86210Y-45926D01*
X86181Y-45858D01*
X86153Y-45790D01*
X86101Y-45738D01*
X86049Y-45686D01*
X85961Y-45650D01*
X87718Y-45650D01*
G54D10*
G36*
X89046Y-52059D02*
X88947Y-52059D01*
X88884Y-52121D01*
X88884Y-52446D01*
X88892Y-52446D01*
X88892Y-52546D01*
X88884Y-52546D01*
X88884Y-52553D01*
X88784Y-52553D01*
X88784Y-52546D01*
X88776Y-52546D01*
X88776Y-52446D01*
X88784Y-52446D01*
X88784Y-52121D01*
X88722Y-52059D01*
X88598Y-52059D01*
X88506Y-52096D01*
X88435Y-52167D01*
X88397Y-52259D01*
X88397Y-52358D01*
X88397Y-52368D01*
X88344Y-52315D01*
X88253Y-52277D01*
X88153Y-52277D01*
X87779Y-52277D01*
X87687Y-52315D01*
X87617Y-52385D01*
X87605Y-52414D01*
X87600Y-52414D01*
X87506Y-52414D01*
X87495Y-52386D01*
X87449Y-52339D01*
X87494Y-52294D01*
X87533Y-52202D01*
X87533Y-52102D01*
X87533Y-51750D01*
X88826Y-51750D01*
X89046Y-51969D01*
X89046Y-52059D01*
X89046Y-52059D01*
G37*
G54D36*
X89046Y-52059D02*
X88947Y-52059D01*
X88884Y-52121D01*
X88884Y-52446D01*
X88892Y-52446D01*
X88892Y-52546D01*
X88884Y-52546D01*
X88884Y-52553D01*
X88784Y-52553D01*
X88784Y-52546D01*
X88776Y-52546D01*
X88776Y-52446D01*
X88784Y-52446D01*
X88784Y-52121D01*
X88722Y-52059D01*
X88598Y-52059D01*
X88506Y-52096D01*
X88435Y-52167D01*
X88397Y-52259D01*
X88397Y-52358D01*
X88397Y-52368D01*
X88344Y-52315D01*
X88253Y-52277D01*
X88153Y-52277D01*
X87779Y-52277D01*
X87687Y-52315D01*
X87617Y-52385D01*
X87605Y-52414D01*
X87600Y-52414D01*
X87506Y-52414D01*
X87495Y-52386D01*
X87449Y-52339D01*
X87494Y-52294D01*
X87533Y-52202D01*
X87533Y-52102D01*
X87533Y-51750D01*
X88826Y-51750D01*
X89046Y-51969D01*
X89046Y-52059D01*
G54D10*
G36*
X91790Y-59046D02*
X91586Y-59250D01*
X91323Y-59250D01*
X91322Y-59248D01*
X91151Y-59134D01*
X91107Y-59125D01*
X91185Y-59102D01*
X91344Y-58972D01*
X91442Y-58790D01*
X91446Y-58766D01*
X91446Y-58504D01*
X91442Y-58480D01*
X91406Y-58413D01*
X91406Y-55599D01*
X91406Y-55285D01*
X91012Y-55285D01*
X90950Y-55347D01*
X90950Y-55461D01*
X90988Y-55553D01*
X91058Y-55623D01*
X91150Y-55662D01*
X91249Y-55662D01*
X91343Y-55662D01*
X91406Y-55599D01*
X91406Y-58413D01*
X91344Y-58299D01*
X91185Y-58169D01*
X90987Y-58110D01*
X90850Y-58110D01*
X90850Y-58585D01*
X91398Y-58585D01*
X91446Y-58504D01*
X91446Y-58766D01*
X91398Y-58685D01*
X90850Y-58685D01*
X90850Y-58693D01*
X90750Y-58693D01*
X90750Y-58685D01*
X90750Y-58585D01*
X90750Y-58110D01*
X90693Y-58110D01*
X90693Y-54981D01*
X90693Y-54857D01*
X90630Y-54795D01*
X90306Y-54795D01*
X90306Y-55119D01*
X90368Y-55182D01*
X90393Y-55182D01*
X90493Y-55182D01*
X90584Y-55144D01*
X90655Y-55073D01*
X90693Y-54981D01*
X90693Y-58110D01*
X90612Y-58110D01*
X90414Y-58169D01*
X90255Y-58299D01*
X90206Y-58390D01*
X90206Y-55119D01*
X90206Y-54795D01*
X89881Y-54795D01*
X89819Y-54857D01*
X89819Y-54981D01*
X89856Y-55073D01*
X89927Y-55144D01*
X90019Y-55182D01*
X90118Y-55182D01*
X90143Y-55182D01*
X90206Y-55119D01*
X90206Y-58390D01*
X90157Y-58480D01*
X90153Y-58504D01*
X90201Y-58585D01*
X90750Y-58585D01*
X90750Y-58685D01*
X90201Y-58685D01*
X90153Y-58766D01*
X90157Y-58790D01*
X90255Y-58972D01*
X90414Y-59102D01*
X90492Y-59125D01*
X90448Y-59134D01*
X90277Y-59248D01*
X90276Y-59250D01*
X89502Y-59250D01*
X89502Y-56863D01*
X89502Y-56037D01*
X89464Y-55945D01*
X89393Y-55874D01*
X89301Y-55836D01*
X89202Y-55836D01*
X88651Y-55836D01*
X88559Y-55874D01*
X88488Y-55944D01*
X88453Y-56031D01*
X88450Y-56036D01*
X88450Y-56107D01*
X88363Y-55977D01*
X88193Y-55863D01*
X87992Y-55823D01*
X87966Y-55828D01*
X87966Y-53659D01*
X87966Y-53335D01*
X87641Y-53335D01*
X87579Y-53397D01*
X87579Y-53521D01*
X87616Y-53613D01*
X87687Y-53684D01*
X87779Y-53722D01*
X87878Y-53722D01*
X87903Y-53722D01*
X87966Y-53659D01*
X87966Y-55828D01*
X87790Y-55863D01*
X87620Y-55977D01*
X87533Y-56108D01*
X87533Y-53521D01*
X87533Y-53397D01*
X87470Y-53335D01*
X87146Y-53335D01*
X87146Y-53659D01*
X87208Y-53722D01*
X87233Y-53722D01*
X87333Y-53722D01*
X87424Y-53684D01*
X87495Y-53613D01*
X87533Y-53521D01*
X87533Y-56108D01*
X87506Y-56148D01*
X87500Y-56180D01*
X87493Y-56148D01*
X87379Y-55977D01*
X87209Y-55863D01*
X87007Y-55823D01*
X86806Y-55863D01*
X86636Y-55977D01*
X86522Y-56148D01*
X86515Y-56180D01*
X86509Y-56148D01*
X86395Y-55977D01*
X86224Y-55863D01*
X86023Y-55823D01*
X85822Y-55863D01*
X85651Y-55977D01*
X85538Y-56148D01*
X85498Y-56349D01*
X85498Y-56650D01*
X85538Y-56851D01*
X85651Y-57022D01*
X85822Y-57136D01*
X86023Y-57176D01*
X86224Y-57136D01*
X86395Y-57022D01*
X86509Y-56851D01*
X86515Y-56819D01*
X86522Y-56851D01*
X86636Y-57022D01*
X86806Y-57136D01*
X87007Y-57176D01*
X87209Y-57136D01*
X87379Y-57022D01*
X87493Y-56851D01*
X87500Y-56819D01*
X87506Y-56851D01*
X87620Y-57022D01*
X87790Y-57136D01*
X87992Y-57176D01*
X88193Y-57136D01*
X88363Y-57022D01*
X88450Y-56892D01*
X88450Y-56962D01*
X88488Y-57054D01*
X88558Y-57125D01*
X88650Y-57163D01*
X88750Y-57163D01*
X89301Y-57163D01*
X89393Y-57125D01*
X89463Y-57055D01*
X89501Y-56963D01*
X89502Y-56863D01*
X89502Y-59250D01*
X88903Y-59250D01*
X88902Y-59248D01*
X88731Y-59134D01*
X88687Y-59125D01*
X88765Y-59102D01*
X88924Y-58972D01*
X89022Y-58790D01*
X89026Y-58766D01*
X89026Y-58504D01*
X89022Y-58480D01*
X88924Y-58299D01*
X88765Y-58169D01*
X88567Y-58110D01*
X88430Y-58110D01*
X88430Y-58585D01*
X88978Y-58585D01*
X89026Y-58504D01*
X89026Y-58766D01*
X88978Y-58685D01*
X88430Y-58685D01*
X88430Y-58693D01*
X88330Y-58693D01*
X88330Y-58685D01*
X88330Y-58585D01*
X88330Y-58110D01*
X88192Y-58110D01*
X87994Y-58169D01*
X87835Y-58299D01*
X87737Y-58480D01*
X87733Y-58504D01*
X87781Y-58585D01*
X88330Y-58585D01*
X88330Y-58685D01*
X87781Y-58685D01*
X87733Y-58766D01*
X87737Y-58790D01*
X87835Y-58972D01*
X87994Y-59102D01*
X88072Y-59125D01*
X88028Y-59134D01*
X87857Y-59248D01*
X87856Y-59250D01*
X86483Y-59250D01*
X86482Y-59248D01*
X86311Y-59134D01*
X86267Y-59125D01*
X86345Y-59102D01*
X86504Y-58972D01*
X86602Y-58790D01*
X86606Y-58766D01*
X86606Y-58504D01*
X86602Y-58480D01*
X86504Y-58299D01*
X86345Y-58169D01*
X86147Y-58110D01*
X86010Y-58110D01*
X86010Y-58585D01*
X86558Y-58585D01*
X86606Y-58504D01*
X86606Y-58766D01*
X86558Y-58685D01*
X86010Y-58685D01*
X86010Y-58693D01*
X85910Y-58693D01*
X85910Y-58685D01*
X85910Y-58585D01*
X85910Y-58110D01*
X85772Y-58110D01*
X85574Y-58169D01*
X85415Y-58299D01*
X85317Y-58480D01*
X85313Y-58504D01*
X85361Y-58585D01*
X85910Y-58585D01*
X85910Y-58685D01*
X85361Y-58685D01*
X85313Y-58766D01*
X85317Y-58790D01*
X85415Y-58972D01*
X85574Y-59102D01*
X85652Y-59125D01*
X85608Y-59134D01*
X85437Y-59248D01*
X85436Y-59250D01*
X84993Y-59250D01*
X84993Y-55263D01*
X84993Y-54239D01*
X84993Y-54139D01*
X84993Y-53116D01*
X84931Y-53053D01*
X84266Y-53053D01*
X84167Y-53053D01*
X84075Y-53092D01*
X84005Y-53162D01*
X83967Y-53254D01*
X83967Y-54077D01*
X84029Y-54139D01*
X84993Y-54139D01*
X84993Y-54239D01*
X84029Y-54239D01*
X83967Y-54302D01*
X83967Y-55125D01*
X84005Y-55217D01*
X84075Y-55287D01*
X84167Y-55325D01*
X84266Y-55325D01*
X84931Y-55325D01*
X84993Y-55263D01*
X84993Y-59250D01*
X84480Y-59250D01*
X84250Y-59250D01*
X84250Y-58430D01*
X84250Y-57729D01*
X84249Y-57630D01*
X84211Y-57538D01*
X84141Y-57467D01*
X84049Y-57429D01*
X83712Y-57430D01*
X83650Y-57492D01*
X83650Y-58030D01*
X84187Y-58030D01*
X84250Y-57967D01*
X84250Y-57729D01*
X84250Y-58430D01*
X84250Y-58192D01*
X84187Y-58130D01*
X83650Y-58130D01*
X83650Y-58667D01*
X83712Y-58730D01*
X84049Y-58730D01*
X84141Y-58692D01*
X84211Y-58621D01*
X84249Y-58529D01*
X84250Y-58430D01*
X84250Y-59250D01*
X83576Y-59250D01*
X83550Y-59255D01*
X83550Y-58667D01*
X83550Y-58130D01*
X83550Y-58030D01*
X83550Y-57492D01*
X83487Y-57430D01*
X83465Y-57429D01*
X83465Y-53573D01*
X83465Y-52018D01*
X83465Y-51919D01*
X83427Y-51827D01*
X83357Y-51757D01*
X83265Y-51719D01*
X82442Y-51719D01*
X82379Y-51781D01*
X82379Y-52746D01*
X83403Y-52746D01*
X83465Y-52683D01*
X83465Y-52018D01*
X83465Y-53573D01*
X83465Y-52908D01*
X83403Y-52846D01*
X82379Y-52846D01*
X82379Y-53810D01*
X82442Y-53872D01*
X83265Y-53872D01*
X83357Y-53834D01*
X83427Y-53764D01*
X83465Y-53672D01*
X83465Y-53573D01*
X83465Y-57429D01*
X83150Y-57429D01*
X83058Y-57467D01*
X82988Y-57538D01*
X82950Y-57630D01*
X82949Y-57729D01*
X82950Y-57967D01*
X83012Y-58030D01*
X83550Y-58030D01*
X83550Y-58130D01*
X83012Y-58130D01*
X82950Y-58192D01*
X82949Y-58430D01*
X82950Y-58529D01*
X82988Y-58621D01*
X83058Y-58692D01*
X83150Y-58730D01*
X83487Y-58730D01*
X83550Y-58667D01*
X83550Y-59255D01*
X83434Y-59278D01*
X83388Y-59308D01*
X83268Y-59308D01*
X83180Y-59345D01*
X83091Y-59308D01*
X82997Y-59308D01*
X82934Y-59371D01*
X82934Y-59666D01*
X82942Y-59666D01*
X82942Y-59766D01*
X82934Y-59766D01*
X82934Y-59773D01*
X82834Y-59773D01*
X82834Y-59766D01*
X82826Y-59766D01*
X82826Y-59666D01*
X82834Y-59666D01*
X82834Y-59371D01*
X82772Y-59308D01*
X82750Y-59308D01*
X82750Y-56753D01*
X82773Y-56729D01*
X82829Y-56593D01*
X82830Y-56446D01*
X82773Y-56310D01*
X82669Y-56206D01*
X82533Y-56150D01*
X82386Y-56149D01*
X82370Y-56156D01*
X82370Y-55360D01*
X82370Y-55360D01*
X82370Y-55286D01*
X82341Y-55218D01*
X82313Y-55150D01*
X82279Y-55116D01*
X82279Y-53810D01*
X82279Y-52846D01*
X82279Y-52746D01*
X82279Y-51781D01*
X82217Y-51719D01*
X81394Y-51719D01*
X81302Y-51757D01*
X81232Y-51827D01*
X81193Y-51919D01*
X81193Y-52018D01*
X81193Y-52683D01*
X81256Y-52746D01*
X82279Y-52746D01*
X82279Y-52846D01*
X81256Y-52846D01*
X81193Y-52908D01*
X81193Y-53573D01*
X81193Y-53672D01*
X81232Y-53764D01*
X81302Y-53834D01*
X81394Y-53872D01*
X82217Y-53872D01*
X82279Y-53810D01*
X82279Y-55116D01*
X82261Y-55098D01*
X82209Y-55046D01*
X82073Y-54990D01*
X81926Y-54989D01*
X81790Y-55046D01*
X81686Y-55150D01*
X81630Y-55286D01*
X81629Y-55433D01*
X81630Y-55433D01*
X81630Y-61120D01*
X81630Y-62320D01*
X81658Y-62461D01*
X81738Y-62581D01*
X81978Y-62821D01*
X82098Y-62901D01*
X82240Y-62930D01*
X82725Y-62930D01*
X82866Y-62901D01*
X82986Y-62821D01*
X83066Y-62701D01*
X83095Y-62560D01*
X83095Y-62519D01*
X83100Y-62517D01*
X83123Y-62526D01*
X83133Y-62576D01*
X83213Y-62696D01*
X83298Y-62781D01*
X83298Y-62781D01*
X83368Y-62828D01*
X83368Y-62828D01*
X83286Y-62910D01*
X83230Y-63046D01*
X83229Y-63193D01*
X83267Y-63283D01*
X83225Y-63325D01*
X83186Y-63417D01*
X83186Y-63517D01*
X83186Y-63623D01*
X83169Y-63606D01*
X83033Y-63550D01*
X82886Y-63549D01*
X82750Y-63606D01*
X82646Y-63710D01*
X82590Y-63846D01*
X82589Y-63993D01*
X82646Y-64129D01*
X82698Y-64181D01*
X82750Y-64233D01*
X82750Y-64233D01*
X83018Y-64501D01*
X83018Y-64501D01*
X83138Y-64581D01*
X83279Y-64610D01*
X83279Y-64609D01*
X83280Y-64610D01*
X83280Y-64610D01*
X83295Y-64624D01*
X83357Y-64650D01*
X81970Y-64650D01*
X81970Y-63046D01*
X81913Y-62910D01*
X81809Y-62806D01*
X81673Y-62750D01*
X81570Y-62749D01*
X81570Y-62406D01*
X81570Y-62406D01*
X81570Y-60400D01*
X81570Y-60400D01*
X81570Y-60326D01*
X81541Y-60258D01*
X81513Y-60190D01*
X81461Y-60138D01*
X81409Y-60086D01*
X81273Y-60030D01*
X81222Y-60030D01*
X81222Y-58901D01*
X81222Y-58626D01*
X81222Y-58526D01*
X81184Y-58435D01*
X81113Y-58364D01*
X81021Y-58326D01*
X80897Y-58326D01*
X80835Y-58389D01*
X80835Y-58713D01*
X81159Y-58713D01*
X81222Y-58651D01*
X81222Y-58626D01*
X81222Y-58901D01*
X81222Y-58876D01*
X81159Y-58813D01*
X80835Y-58813D01*
X80835Y-59138D01*
X80897Y-59200D01*
X81021Y-59200D01*
X81113Y-59163D01*
X81184Y-59092D01*
X81222Y-59000D01*
X81222Y-58901D01*
X81222Y-60030D01*
X81126Y-60029D01*
X80990Y-60086D01*
X80886Y-60190D01*
X80830Y-60326D01*
X80829Y-60473D01*
X80830Y-60473D01*
X80830Y-62479D01*
X80829Y-62553D01*
X80886Y-62689D01*
X80938Y-62741D01*
X80990Y-62793D01*
X81058Y-62821D01*
X81126Y-62849D01*
X81200Y-62850D01*
X81273Y-62850D01*
X81341Y-62821D01*
X81409Y-62793D01*
X81461Y-62741D01*
X81513Y-62689D01*
X81541Y-62621D01*
X81569Y-62553D01*
X81570Y-62480D01*
X81570Y-62406D01*
X81570Y-62749D01*
X81526Y-62749D01*
X81390Y-62806D01*
X81286Y-62910D01*
X81230Y-63046D01*
X81229Y-63193D01*
X81283Y-63321D01*
X81283Y-63568D01*
X81211Y-63598D01*
X81169Y-63640D01*
X81169Y-63387D01*
X81131Y-63295D01*
X81061Y-63224D01*
X80969Y-63186D01*
X80870Y-63186D01*
X80515Y-63186D01*
X80423Y-63224D01*
X80353Y-63294D01*
X80330Y-63350D01*
X79962Y-63350D01*
X79962Y-60981D01*
X79962Y-60706D01*
X79962Y-60606D01*
X79924Y-60515D01*
X79853Y-60444D01*
X79761Y-60406D01*
X79637Y-60406D01*
X79575Y-60469D01*
X79575Y-60793D01*
X79899Y-60793D01*
X79962Y-60731D01*
X79962Y-60706D01*
X79962Y-60981D01*
X79962Y-60956D01*
X79899Y-60893D01*
X79575Y-60893D01*
X79575Y-61218D01*
X79637Y-61280D01*
X79761Y-61280D01*
X79853Y-61243D01*
X79924Y-61172D01*
X79962Y-61080D01*
X79962Y-60981D01*
X79962Y-63350D01*
X79938Y-63350D01*
X79924Y-63315D01*
X79854Y-63245D01*
X79762Y-63206D01*
X79662Y-63206D01*
X79288Y-63206D01*
X79239Y-63227D01*
X79230Y-63222D01*
X79230Y-61264D01*
X79240Y-61260D01*
X79288Y-61280D01*
X79412Y-61280D01*
X79475Y-61218D01*
X79475Y-60893D01*
X79467Y-60893D01*
X79467Y-60793D01*
X79475Y-60793D01*
X79475Y-60469D01*
X79412Y-60406D01*
X79288Y-60406D01*
X79239Y-60427D01*
X79191Y-60406D01*
X79092Y-60406D01*
X78718Y-60406D01*
X78626Y-60444D01*
X78555Y-60515D01*
X78546Y-60537D01*
X77576Y-60537D01*
X77522Y-60456D01*
X77351Y-60342D01*
X77319Y-60335D01*
X77351Y-60329D01*
X77522Y-60215D01*
X77576Y-60133D01*
X78556Y-60133D01*
X78667Y-60111D01*
X78761Y-60048D01*
X79265Y-59545D01*
X79265Y-59545D01*
X79265Y-59545D01*
X79327Y-59450D01*
X79327Y-59450D01*
X79346Y-59358D01*
X79350Y-59340D01*
X79349Y-59340D01*
X79350Y-59340D01*
X79350Y-59162D01*
X79392Y-59144D01*
X79462Y-59074D01*
X79472Y-59050D01*
X79797Y-59050D01*
X79815Y-59092D01*
X79885Y-59162D01*
X79977Y-59200D01*
X80077Y-59200D01*
X80451Y-59200D01*
X80500Y-59180D01*
X80548Y-59200D01*
X80672Y-59200D01*
X80735Y-59138D01*
X80735Y-58813D01*
X80727Y-58813D01*
X80727Y-58713D01*
X80735Y-58713D01*
X80735Y-58389D01*
X80672Y-58326D01*
X80548Y-58326D01*
X80499Y-58347D01*
X80451Y-58326D01*
X80352Y-58326D01*
X79978Y-58326D01*
X79886Y-58364D01*
X79815Y-58435D01*
X79801Y-58470D01*
X79769Y-58470D01*
X79769Y-57305D01*
X79769Y-57290D01*
X79707Y-57227D01*
X79412Y-57227D01*
X79412Y-57542D01*
X79474Y-57604D01*
X79569Y-57604D01*
X79661Y-57566D01*
X79731Y-57496D01*
X79769Y-57404D01*
X79769Y-57305D01*
X79769Y-58470D01*
X79484Y-58470D01*
X79480Y-58459D01*
X79500Y-58411D01*
X79500Y-58312D01*
X79500Y-57938D01*
X79463Y-57846D01*
X79392Y-57775D01*
X79350Y-57757D01*
X79350Y-57648D01*
X79327Y-57537D01*
X79312Y-57513D01*
X79312Y-57513D01*
X79312Y-57227D01*
X79304Y-57227D01*
X79304Y-57127D01*
X79312Y-57127D01*
X79312Y-57119D01*
X79412Y-57119D01*
X79412Y-57127D01*
X79707Y-57127D01*
X79744Y-57090D01*
X80160Y-57090D01*
X80270Y-57067D01*
X80365Y-57005D01*
X80718Y-56652D01*
X80780Y-56557D01*
X80803Y-56447D01*
X80803Y-56208D01*
X80866Y-56145D01*
X80904Y-56053D01*
X80904Y-55953D01*
X80904Y-55638D01*
X80866Y-55546D01*
X80796Y-55476D01*
X80785Y-55471D01*
X80796Y-55467D01*
X80866Y-55397D01*
X80904Y-55305D01*
X80904Y-55205D01*
X80904Y-54890D01*
X80866Y-54798D01*
X80796Y-54728D01*
X80704Y-54690D01*
X80605Y-54690D01*
X80250Y-54690D01*
X80159Y-54728D01*
X80088Y-54798D01*
X80050Y-54890D01*
X80050Y-54989D01*
X80050Y-55143D01*
X80009Y-55102D01*
X79917Y-55064D01*
X79817Y-55064D01*
X79463Y-55064D01*
X79371Y-55102D01*
X79303Y-55170D01*
X79290Y-55170D01*
X79290Y-54770D01*
X79353Y-54770D01*
X79421Y-54741D01*
X79489Y-54713D01*
X79541Y-54661D01*
X79593Y-54609D01*
X79593Y-54609D01*
X79835Y-54367D01*
X79915Y-54247D01*
X79943Y-54106D01*
X79943Y-53872D01*
X80509Y-53872D01*
X80601Y-53834D01*
X80671Y-53764D01*
X80709Y-53672D01*
X80709Y-53573D01*
X80709Y-51919D01*
X80671Y-51827D01*
X80601Y-51757D01*
X80509Y-51719D01*
X80410Y-51719D01*
X78953Y-51719D01*
X78953Y-51702D01*
X78953Y-51328D01*
X78932Y-51279D01*
X78953Y-51231D01*
X78953Y-51132D01*
X78953Y-50758D01*
X78915Y-50666D01*
X78892Y-50643D01*
X78892Y-50615D01*
X78910Y-50633D01*
X78978Y-50661D01*
X79046Y-50689D01*
X79120Y-50690D01*
X79193Y-50690D01*
X79261Y-50661D01*
X79329Y-50633D01*
X79381Y-50581D01*
X79433Y-50529D01*
X79461Y-50461D01*
X79489Y-50393D01*
X79490Y-50320D01*
X79490Y-50246D01*
X79461Y-50178D01*
X79433Y-50110D01*
X79381Y-50058D01*
X79329Y-50006D01*
X79329Y-50006D01*
X79301Y-49978D01*
X79229Y-49930D01*
X80810Y-49930D01*
X80810Y-46310D01*
X77510Y-46310D01*
X77510Y-47763D01*
X77503Y-47779D01*
X77503Y-47878D01*
X77503Y-48548D01*
X77510Y-48564D01*
X77510Y-49069D01*
X77446Y-49069D01*
X77412Y-49083D01*
X77412Y-48449D01*
X77412Y-47878D01*
X77412Y-47779D01*
X77374Y-47687D01*
X77304Y-47617D01*
X77212Y-47579D01*
X76783Y-47579D01*
X76720Y-47641D01*
X76720Y-48113D01*
X77350Y-48113D01*
X77412Y-48051D01*
X77412Y-47878D01*
X77412Y-48449D01*
X77412Y-48276D01*
X77350Y-48213D01*
X76720Y-48213D01*
X76720Y-48686D01*
X76783Y-48748D01*
X77212Y-48748D01*
X77304Y-48710D01*
X77374Y-48640D01*
X77412Y-48548D01*
X77412Y-48449D01*
X77412Y-49083D01*
X77310Y-49126D01*
X77206Y-49230D01*
X77150Y-49366D01*
X77149Y-49513D01*
X77150Y-49515D01*
X77150Y-49520D01*
X77150Y-50519D01*
X76434Y-51234D01*
X76372Y-51329D01*
X76350Y-51440D01*
X76350Y-52097D01*
X76307Y-52115D01*
X76237Y-52185D01*
X76227Y-52210D01*
X76037Y-52210D01*
X76037Y-50967D01*
X76037Y-50830D01*
X76037Y-50730D01*
X76037Y-50592D01*
X75978Y-50394D01*
X75848Y-50235D01*
X75702Y-50156D01*
X75702Y-49331D01*
X75702Y-49115D01*
X75702Y-49016D01*
X75664Y-48924D01*
X75594Y-48854D01*
X75502Y-48816D01*
X75407Y-48816D01*
X75345Y-48878D01*
X75345Y-49173D01*
X75640Y-49173D01*
X75702Y-49111D01*
X75702Y-49115D01*
X75702Y-49331D01*
X75702Y-49336D01*
X75640Y-49273D01*
X75345Y-49273D01*
X75345Y-49568D01*
X75407Y-49631D01*
X75502Y-49631D01*
X75594Y-49593D01*
X75664Y-49523D01*
X75702Y-49431D01*
X75702Y-49331D01*
X75702Y-50156D01*
X75667Y-50137D01*
X75643Y-50133D01*
X75562Y-50181D01*
X75562Y-50730D01*
X76037Y-50730D01*
X76037Y-50830D01*
X75562Y-50830D01*
X75562Y-51378D01*
X75643Y-51426D01*
X75667Y-51422D01*
X75848Y-51324D01*
X75978Y-51165D01*
X76037Y-50967D01*
X76037Y-52210D01*
X75740Y-52210D01*
X75629Y-52232D01*
X75534Y-52294D01*
X75534Y-52294D01*
X75314Y-52514D01*
X75252Y-52609D01*
X75230Y-52720D01*
X75230Y-52939D01*
X75221Y-52898D01*
X75141Y-52778D01*
X74976Y-52612D01*
X74856Y-52532D01*
X74714Y-52504D01*
X74548Y-52504D01*
X74548Y-52332D01*
X74510Y-52241D01*
X74440Y-52170D01*
X74367Y-52140D01*
X74789Y-51718D01*
X74869Y-51597D01*
X74897Y-51456D01*
X74897Y-51424D01*
X74944Y-51405D01*
X75015Y-51335D01*
X75053Y-51243D01*
X75053Y-51174D01*
X75175Y-51324D01*
X75357Y-51422D01*
X75380Y-51426D01*
X75462Y-51378D01*
X75462Y-50830D01*
X75454Y-50830D01*
X75454Y-50730D01*
X75462Y-50730D01*
X75462Y-50181D01*
X75380Y-50133D01*
X75357Y-50137D01*
X75175Y-50235D01*
X75053Y-50385D01*
X75053Y-50317D01*
X75015Y-50225D01*
X74945Y-50154D01*
X74897Y-50135D01*
X74897Y-49631D01*
X74911Y-49631D01*
X75000Y-49594D01*
X75088Y-49631D01*
X75182Y-49631D01*
X75245Y-49568D01*
X75245Y-49273D01*
X75237Y-49273D01*
X75237Y-49173D01*
X75245Y-49173D01*
X75245Y-48878D01*
X75182Y-48816D01*
X75088Y-48816D01*
X74999Y-48852D01*
X74912Y-48816D01*
X74812Y-48816D01*
X74497Y-48816D01*
X74405Y-48854D01*
X74335Y-48924D01*
X74297Y-49016D01*
X74297Y-49103D01*
X74266Y-49134D01*
X74186Y-49254D01*
X74157Y-49396D01*
X74157Y-50135D01*
X74110Y-50154D01*
X74040Y-50224D01*
X74002Y-50316D01*
X74002Y-50416D01*
X74002Y-51242D01*
X74040Y-51334D01*
X74083Y-51377D01*
X73702Y-51758D01*
X73622Y-51878D01*
X73593Y-52020D01*
X73593Y-52132D01*
X73579Y-52132D01*
X73487Y-52170D01*
X73417Y-52240D01*
X73379Y-52332D01*
X73379Y-52431D01*
X73379Y-53416D01*
X73417Y-53508D01*
X73487Y-53578D01*
X73579Y-53616D01*
X73678Y-53616D01*
X74348Y-53616D01*
X74440Y-53578D01*
X74510Y-53508D01*
X74510Y-53815D01*
X74440Y-53745D01*
X74348Y-53707D01*
X74249Y-53707D01*
X74076Y-53707D01*
X74013Y-53769D01*
X74013Y-54399D01*
X74021Y-54399D01*
X74021Y-54499D01*
X74013Y-54499D01*
X74013Y-55128D01*
X74076Y-55191D01*
X74249Y-55191D01*
X74348Y-55191D01*
X74440Y-55153D01*
X74510Y-55082D01*
X74548Y-54991D01*
X74548Y-54637D01*
X74618Y-54741D01*
X74698Y-54821D01*
X74698Y-54821D01*
X74750Y-54873D01*
X74818Y-54901D01*
X74886Y-54929D01*
X74960Y-54930D01*
X75033Y-54930D01*
X75101Y-54901D01*
X75169Y-54873D01*
X75221Y-54821D01*
X75230Y-54813D01*
X75230Y-54886D01*
X75126Y-54990D01*
X75070Y-55126D01*
X75069Y-55273D01*
X75126Y-55409D01*
X75230Y-55513D01*
X75366Y-55569D01*
X75513Y-55570D01*
X75543Y-55557D01*
X75543Y-55856D01*
X75563Y-55905D01*
X75543Y-55953D01*
X75543Y-56053D01*
X75543Y-56427D01*
X75571Y-56496D01*
X75543Y-56564D01*
X75543Y-56663D01*
X75543Y-57037D01*
X75563Y-57086D01*
X75543Y-57135D01*
X75543Y-57259D01*
X75605Y-57322D01*
X75930Y-57322D01*
X75930Y-57314D01*
X76030Y-57314D01*
X76030Y-57322D01*
X76354Y-57322D01*
X76383Y-57293D01*
X76422Y-57331D01*
X76717Y-57331D01*
X76717Y-57324D01*
X76817Y-57324D01*
X76817Y-57331D01*
X77112Y-57331D01*
X77175Y-57269D01*
X77175Y-57174D01*
X77138Y-57086D01*
X77141Y-57080D01*
X77470Y-57080D01*
X77470Y-57126D01*
X77446Y-57150D01*
X77390Y-57286D01*
X77389Y-57433D01*
X77446Y-57569D01*
X77550Y-57673D01*
X77686Y-57729D01*
X77833Y-57730D01*
X77969Y-57673D01*
X78073Y-57569D01*
X78129Y-57433D01*
X78130Y-57286D01*
X78073Y-57150D01*
X78050Y-57126D01*
X78050Y-56880D01*
X78027Y-56769D01*
X77965Y-56674D01*
X77875Y-56585D01*
X77781Y-56522D01*
X77701Y-56506D01*
X77701Y-55694D01*
X77701Y-55379D01*
X77406Y-55379D01*
X77344Y-55442D01*
X77344Y-55457D01*
X77344Y-55556D01*
X77382Y-55648D01*
X77452Y-55718D01*
X77544Y-55756D01*
X77639Y-55756D01*
X77701Y-55694D01*
X77701Y-56506D01*
X77670Y-56500D01*
X77140Y-56500D01*
X77137Y-56492D01*
X77066Y-56422D01*
X76975Y-56383D01*
X76875Y-56383D01*
X76560Y-56383D01*
X76468Y-56421D01*
X76398Y-56492D01*
X76396Y-56496D01*
X76389Y-56496D01*
X76388Y-56496D01*
X76417Y-56427D01*
X76417Y-56328D01*
X76417Y-55954D01*
X76397Y-55905D01*
X76417Y-55857D01*
X76417Y-55757D01*
X76417Y-55383D01*
X76379Y-55291D01*
X76350Y-55262D01*
X76350Y-54620D01*
X76322Y-54478D01*
X76241Y-54358D01*
X76181Y-54298D01*
X76181Y-54298D01*
X76129Y-54246D01*
X75993Y-54190D01*
X75846Y-54189D01*
X75810Y-54205D01*
X75810Y-52840D01*
X75860Y-52790D01*
X76215Y-52790D01*
X76219Y-52800D01*
X76199Y-52848D01*
X76199Y-52947D01*
X76199Y-53321D01*
X76236Y-53413D01*
X76266Y-53442D01*
X76266Y-53756D01*
X76269Y-53775D01*
X76269Y-53833D01*
X76292Y-53886D01*
X76294Y-53897D01*
X76300Y-53906D01*
X76326Y-53969D01*
X76374Y-54017D01*
X76374Y-54017D01*
X76378Y-54021D01*
X76378Y-54021D01*
X76430Y-54073D01*
X76498Y-54101D01*
X76566Y-54129D01*
X76640Y-54130D01*
X76713Y-54130D01*
X76781Y-54101D01*
X76849Y-54073D01*
X76901Y-54021D01*
X76953Y-53969D01*
X76981Y-53901D01*
X77009Y-53833D01*
X77010Y-53760D01*
X77010Y-53686D01*
X77006Y-53677D01*
X77006Y-53443D01*
X77034Y-53414D01*
X77073Y-53322D01*
X77073Y-53222D01*
X77073Y-52848D01*
X77052Y-52799D01*
X77073Y-52751D01*
X77073Y-52725D01*
X77115Y-52767D01*
X77115Y-54138D01*
X77078Y-54153D01*
X77008Y-54223D01*
X76970Y-54315D01*
X76970Y-54414D01*
X76970Y-54769D01*
X77008Y-54860D01*
X77078Y-54931D01*
X77170Y-54969D01*
X77269Y-54969D01*
X77423Y-54969D01*
X77382Y-55010D01*
X77344Y-55102D01*
X77344Y-55202D01*
X77344Y-55217D01*
X77406Y-55279D01*
X77701Y-55279D01*
X77701Y-54965D01*
X77670Y-54934D01*
X77676Y-54931D01*
X77747Y-54861D01*
X77751Y-54850D01*
X77756Y-54860D01*
X77826Y-54931D01*
X77832Y-54933D01*
X77801Y-54965D01*
X77801Y-55279D01*
X78096Y-55279D01*
X78159Y-55217D01*
X78159Y-55202D01*
X78159Y-55102D01*
X78121Y-55010D01*
X78079Y-54969D01*
X78332Y-54969D01*
X78424Y-54931D01*
X78495Y-54861D01*
X78521Y-54797D01*
X78626Y-54797D01*
X78710Y-54880D01*
X78710Y-55460D01*
X78710Y-55992D01*
X78689Y-56001D01*
X78618Y-56071D01*
X78580Y-56163D01*
X78580Y-56262D01*
X78580Y-56551D01*
X78514Y-56594D01*
X78514Y-56594D01*
X78419Y-56689D01*
X78368Y-56766D01*
X78315Y-56788D01*
X78244Y-56858D01*
X78206Y-56950D01*
X78206Y-57049D01*
X78206Y-57404D01*
X78244Y-57496D01*
X78314Y-57566D01*
X78406Y-57604D01*
X78506Y-57604D01*
X78606Y-57604D01*
X78765Y-57763D01*
X78735Y-57775D01*
X78665Y-57845D01*
X78626Y-57937D01*
X78626Y-58037D01*
X78626Y-58411D01*
X78647Y-58460D01*
X78626Y-58508D01*
X78626Y-58607D01*
X78626Y-58981D01*
X78664Y-59073D01*
X78735Y-59144D01*
X78770Y-59158D01*
X78770Y-59219D01*
X78436Y-59553D01*
X78159Y-59553D01*
X78159Y-55457D01*
X78159Y-55442D01*
X78096Y-55379D01*
X77801Y-55379D01*
X77801Y-55694D01*
X77864Y-55756D01*
X77958Y-55756D01*
X78050Y-55718D01*
X78121Y-55648D01*
X78159Y-55556D01*
X78159Y-55457D01*
X78159Y-59553D01*
X77576Y-59553D01*
X77522Y-59471D01*
X77351Y-59358D01*
X77319Y-59351D01*
X77351Y-59344D01*
X77522Y-59231D01*
X77636Y-59060D01*
X77676Y-58859D01*
X77636Y-58658D01*
X77522Y-58487D01*
X77351Y-58373D01*
X77175Y-58338D01*
X77175Y-57588D01*
X77175Y-57494D01*
X77112Y-57431D01*
X76817Y-57431D01*
X76817Y-57726D01*
X76880Y-57789D01*
X76875Y-57789D01*
X76975Y-57789D01*
X77066Y-57751D01*
X77137Y-57680D01*
X77175Y-57588D01*
X77175Y-58338D01*
X77150Y-58333D01*
X76849Y-58333D01*
X76717Y-58359D01*
X76717Y-57726D01*
X76717Y-57431D01*
X76422Y-57431D01*
X76393Y-57460D01*
X76354Y-57422D01*
X76030Y-57422D01*
X76030Y-57746D01*
X76092Y-57809D01*
X76117Y-57809D01*
X76217Y-57809D01*
X76309Y-57770D01*
X76379Y-57700D01*
X76392Y-57667D01*
X76398Y-57680D01*
X76468Y-57751D01*
X76560Y-57789D01*
X76659Y-57789D01*
X76655Y-57789D01*
X76717Y-57726D01*
X76717Y-58359D01*
X76648Y-58373D01*
X76477Y-58487D01*
X76363Y-58658D01*
X76323Y-58859D01*
X76363Y-59060D01*
X76477Y-59231D01*
X76648Y-59344D01*
X76680Y-59351D01*
X76648Y-59358D01*
X76477Y-59471D01*
X76363Y-59642D01*
X76323Y-59843D01*
X76363Y-60044D01*
X76477Y-60215D01*
X76648Y-60329D01*
X76680Y-60335D01*
X76648Y-60342D01*
X76477Y-60456D01*
X76363Y-60626D01*
X76323Y-60827D01*
X76363Y-61029D01*
X76477Y-61199D01*
X76648Y-61313D01*
X76692Y-61322D01*
X76614Y-61345D01*
X76455Y-61475D01*
X76357Y-61657D01*
X76353Y-61680D01*
X76401Y-61762D01*
X76950Y-61762D01*
X76950Y-61754D01*
X77050Y-61754D01*
X77050Y-61762D01*
X77598Y-61762D01*
X77646Y-61680D01*
X77642Y-61657D01*
X77544Y-61475D01*
X77385Y-61345D01*
X77307Y-61322D01*
X77351Y-61313D01*
X77522Y-61199D01*
X77576Y-61117D01*
X78532Y-61117D01*
X78555Y-61172D01*
X78625Y-61242D01*
X78650Y-61252D01*
X78650Y-63235D01*
X78626Y-63244D01*
X78555Y-63315D01*
X78517Y-63406D01*
X78517Y-63506D01*
X78517Y-63880D01*
X78555Y-63972D01*
X78625Y-64042D01*
X78717Y-64080D01*
X78817Y-64080D01*
X79191Y-64080D01*
X79240Y-64060D01*
X79288Y-64080D01*
X79387Y-64080D01*
X79761Y-64080D01*
X79853Y-64043D01*
X79924Y-63972D01*
X79942Y-63930D01*
X80389Y-63930D01*
X80423Y-63963D01*
X80434Y-63968D01*
X80423Y-63972D01*
X80353Y-64043D01*
X80315Y-64135D01*
X80315Y-64229D01*
X80377Y-64292D01*
X80692Y-64292D01*
X80692Y-64284D01*
X80792Y-64284D01*
X80792Y-64292D01*
X81107Y-64292D01*
X81138Y-64261D01*
X81140Y-64267D01*
X81210Y-64337D01*
X81302Y-64375D01*
X81402Y-64375D01*
X81756Y-64375D01*
X81848Y-64337D01*
X81918Y-64267D01*
X81956Y-64175D01*
X81956Y-64076D01*
X81956Y-63761D01*
X81918Y-63669D01*
X81863Y-63613D01*
X81863Y-63380D01*
X81913Y-63329D01*
X81969Y-63193D01*
X81970Y-63046D01*
X81970Y-64650D01*
X81122Y-64650D01*
X81131Y-64641D01*
X81169Y-64549D01*
X81169Y-64454D01*
X81107Y-64392D01*
X80792Y-64392D01*
X80792Y-64400D01*
X80692Y-64400D01*
X80692Y-64392D01*
X80377Y-64392D01*
X80315Y-64454D01*
X80315Y-64549D01*
X80353Y-64641D01*
X80362Y-64650D01*
X77676Y-64650D01*
X77676Y-62796D01*
X77636Y-62595D01*
X77522Y-62424D01*
X77351Y-62310D01*
X77307Y-62301D01*
X77385Y-62278D01*
X77544Y-62148D01*
X77642Y-61967D01*
X77646Y-61943D01*
X77598Y-61862D01*
X77050Y-61862D01*
X77050Y-61870D01*
X76950Y-61870D01*
X76950Y-61862D01*
X76401Y-61862D01*
X76353Y-61943D01*
X76357Y-61967D01*
X76455Y-62148D01*
X76614Y-62278D01*
X76692Y-62301D01*
X76648Y-62310D01*
X76477Y-62424D01*
X76363Y-62595D01*
X76323Y-62796D01*
X76363Y-62997D01*
X76477Y-63168D01*
X76607Y-63254D01*
X76537Y-63254D01*
X76445Y-63292D01*
X76374Y-63363D01*
X76336Y-63455D01*
X76336Y-63554D01*
X76336Y-64105D01*
X76374Y-64197D01*
X76444Y-64268D01*
X76536Y-64306D01*
X76636Y-64306D01*
X77462Y-64306D01*
X77554Y-64268D01*
X77625Y-64198D01*
X77663Y-64106D01*
X77663Y-64006D01*
X77663Y-63455D01*
X77625Y-63363D01*
X77555Y-63293D01*
X77463Y-63255D01*
X77392Y-63255D01*
X77522Y-63168D01*
X77636Y-62997D01*
X77676Y-62796D01*
X77676Y-64650D01*
X75950Y-64650D01*
X75950Y-61850D01*
X75930Y-61850D01*
X75930Y-57746D01*
X75930Y-57422D01*
X75605Y-57422D01*
X75543Y-57484D01*
X75543Y-57608D01*
X75581Y-57700D01*
X75651Y-57770D01*
X75743Y-57809D01*
X75842Y-57809D01*
X75867Y-57809D01*
X75930Y-57746D01*
X75930Y-61850D01*
X73913Y-61850D01*
X73913Y-55128D01*
X73913Y-54499D01*
X73913Y-54399D01*
X73913Y-53769D01*
X73851Y-53707D01*
X73678Y-53707D01*
X73579Y-53707D01*
X73487Y-53745D01*
X73417Y-53815D01*
X73379Y-53907D01*
X73379Y-54336D01*
X73441Y-54399D01*
X73913Y-54399D01*
X73913Y-54499D01*
X73441Y-54499D01*
X73379Y-54561D01*
X73379Y-54991D01*
X73417Y-55082D01*
X73487Y-55153D01*
X73579Y-55191D01*
X73678Y-55191D01*
X73851Y-55191D01*
X73913Y-55128D01*
X73913Y-61850D01*
X73150Y-61850D01*
X73150Y-48350D01*
X75928Y-48350D01*
X75928Y-48449D01*
X75928Y-48548D01*
X75966Y-48640D01*
X76037Y-48710D01*
X76128Y-48748D01*
X76558Y-48748D01*
X76620Y-48686D01*
X76620Y-48213D01*
X76612Y-48213D01*
X76612Y-48113D01*
X76620Y-48113D01*
X76620Y-47641D01*
X76558Y-47579D01*
X76128Y-47579D01*
X76037Y-47617D01*
X75966Y-47687D01*
X75950Y-47727D01*
X75950Y-45650D01*
X85718Y-45650D01*
X85630Y-45686D01*
X85526Y-45790D01*
X85526Y-45790D01*
X85506Y-45810D01*
X85426Y-45810D01*
X85394Y-45777D01*
X85302Y-45739D01*
X85202Y-45739D01*
X84828Y-45739D01*
X84780Y-45759D01*
X84731Y-45739D01*
X84607Y-45739D01*
X84544Y-45801D01*
X84544Y-46126D01*
X84552Y-46126D01*
X84552Y-46226D01*
X84544Y-46226D01*
X84544Y-46233D01*
X84444Y-46233D01*
X84444Y-46226D01*
X84444Y-46126D01*
X84444Y-45801D01*
X84382Y-45739D01*
X84258Y-45739D01*
X84166Y-45776D01*
X84095Y-45847D01*
X84057Y-45939D01*
X84057Y-46038D01*
X84057Y-46063D01*
X84120Y-46126D01*
X84444Y-46126D01*
X84444Y-46226D01*
X84120Y-46226D01*
X84057Y-46288D01*
X84057Y-46310D01*
X81670Y-46310D01*
X81670Y-50010D01*
X82866Y-50010D01*
X83910Y-50914D01*
X83910Y-52490D01*
X84033Y-52490D01*
X84075Y-52531D01*
X84167Y-52569D01*
X84266Y-52569D01*
X85920Y-52569D01*
X85950Y-52557D01*
X85950Y-53066D01*
X85920Y-53053D01*
X85821Y-53053D01*
X85156Y-53053D01*
X85093Y-53116D01*
X85093Y-54139D01*
X85101Y-54139D01*
X85101Y-54239D01*
X85093Y-54239D01*
X85093Y-55263D01*
X85156Y-55325D01*
X85821Y-55325D01*
X85920Y-55325D01*
X86012Y-55287D01*
X86028Y-55271D01*
X86058Y-55301D01*
X86110Y-55353D01*
X86178Y-55381D01*
X86246Y-55409D01*
X86320Y-55410D01*
X86393Y-55410D01*
X86461Y-55381D01*
X86529Y-55353D01*
X86581Y-55301D01*
X86633Y-55249D01*
X86661Y-55181D01*
X86689Y-55113D01*
X86690Y-55040D01*
X86690Y-54966D01*
X86690Y-54966D01*
X86690Y-53596D01*
X86696Y-53613D01*
X86767Y-53684D01*
X86859Y-53722D01*
X86958Y-53722D01*
X86983Y-53722D01*
X87046Y-53659D01*
X87046Y-53335D01*
X87038Y-53335D01*
X87038Y-53235D01*
X87046Y-53235D01*
X87046Y-53227D01*
X87146Y-53227D01*
X87146Y-53235D01*
X87470Y-53235D01*
X87533Y-53172D01*
X87533Y-53048D01*
X87512Y-52999D01*
X87515Y-52994D01*
X87596Y-52994D01*
X87599Y-53000D01*
X87579Y-53048D01*
X87579Y-53172D01*
X87641Y-53235D01*
X87966Y-53235D01*
X87966Y-53227D01*
X88066Y-53227D01*
X88066Y-53235D01*
X88073Y-53235D01*
X88073Y-53335D01*
X88066Y-53335D01*
X88066Y-53659D01*
X88128Y-53722D01*
X88153Y-53722D01*
X88253Y-53722D01*
X88344Y-53684D01*
X88415Y-53613D01*
X88453Y-53521D01*
X88453Y-53397D01*
X88390Y-53335D01*
X88412Y-53335D01*
X88430Y-53353D01*
X88566Y-53409D01*
X88713Y-53410D01*
X88849Y-53353D01*
X88953Y-53249D01*
X89009Y-53113D01*
X89010Y-52966D01*
X88996Y-52933D01*
X89071Y-52933D01*
X89120Y-52912D01*
X89168Y-52933D01*
X89267Y-52933D01*
X89641Y-52933D01*
X89733Y-52895D01*
X89804Y-52824D01*
X89842Y-52733D01*
X89842Y-52633D01*
X89842Y-52290D01*
X89971Y-52290D01*
X89958Y-52320D01*
X89958Y-52420D01*
X89958Y-52813D01*
X89996Y-52905D01*
X90066Y-52976D01*
X90158Y-53014D01*
X90257Y-53014D01*
X90532Y-53014D01*
X90533Y-53014D01*
X90533Y-53014D01*
X90607Y-53014D01*
X90670Y-52951D01*
X90670Y-52931D01*
X90695Y-52906D01*
X90720Y-52847D01*
X90744Y-52905D01*
X90770Y-52931D01*
X90770Y-52951D01*
X90832Y-53014D01*
X90907Y-53014D01*
X90907Y-53014D01*
X91005Y-53014D01*
X91281Y-53014D01*
X91373Y-52976D01*
X91443Y-52906D01*
X91481Y-52814D01*
X91481Y-52714D01*
X91481Y-52321D01*
X91465Y-52280D01*
X91465Y-52055D01*
X91464Y-52054D01*
X91436Y-51913D01*
X91356Y-51793D01*
X91356Y-51793D01*
X91221Y-51658D01*
X91101Y-51578D01*
X90960Y-51550D01*
X90894Y-51550D01*
X90894Y-51411D01*
X90894Y-50935D01*
X90346Y-50935D01*
X90298Y-51017D01*
X90302Y-51040D01*
X90400Y-51222D01*
X90559Y-51352D01*
X90757Y-51411D01*
X90894Y-51411D01*
X90894Y-51550D01*
X90345Y-51550D01*
X89673Y-51550D01*
X89241Y-51118D01*
X89121Y-51038D01*
X88980Y-51010D01*
X87566Y-51010D01*
X87596Y-50937D01*
X87596Y-49854D01*
X87558Y-49762D01*
X87488Y-49691D01*
X87396Y-49653D01*
X87296Y-49653D01*
X87124Y-49653D01*
X87061Y-49716D01*
X87061Y-50345D01*
X87533Y-50345D01*
X87596Y-50283D01*
X87596Y-49854D01*
X87596Y-50937D01*
X87596Y-50508D01*
X87533Y-50445D01*
X87061Y-50445D01*
X87061Y-50453D01*
X86961Y-50453D01*
X86961Y-50445D01*
X86953Y-50445D01*
X86953Y-50345D01*
X86961Y-50345D01*
X86961Y-49716D01*
X86899Y-49653D01*
X86726Y-49653D01*
X86690Y-49653D01*
X86690Y-49565D01*
X86701Y-49563D01*
X86726Y-49563D01*
X87395Y-49563D01*
X87487Y-49525D01*
X87558Y-49454D01*
X87596Y-49362D01*
X87596Y-49263D01*
X87596Y-48519D01*
X87978Y-48901D01*
X87978Y-48901D01*
X88030Y-48953D01*
X88166Y-49009D01*
X88313Y-49010D01*
X88449Y-48953D01*
X88553Y-48849D01*
X88609Y-48713D01*
X88610Y-48566D01*
X88561Y-48449D01*
X88735Y-48624D01*
X88875Y-48717D01*
X89040Y-48750D01*
X89341Y-48750D01*
X89570Y-48978D01*
X89570Y-49440D01*
X89602Y-49604D01*
X89695Y-49744D01*
X90157Y-50205D01*
X90157Y-50205D01*
X90297Y-50298D01*
X90312Y-50301D01*
X90319Y-50318D01*
X90389Y-50388D01*
X90481Y-50427D01*
X90550Y-50427D01*
X90400Y-50549D01*
X90302Y-50730D01*
X90298Y-50754D01*
X90346Y-50835D01*
X90894Y-50835D01*
X90894Y-50827D01*
X90994Y-50827D01*
X90994Y-50835D01*
X91543Y-50835D01*
X91591Y-50754D01*
X91587Y-50730D01*
X91489Y-50549D01*
X91339Y-50427D01*
X91407Y-50427D01*
X91499Y-50389D01*
X91570Y-50318D01*
X91608Y-50227D01*
X91608Y-50127D01*
X91608Y-49576D01*
X91570Y-49484D01*
X91500Y-49414D01*
X91408Y-49376D01*
X91308Y-49375D01*
X90544Y-49375D01*
X90430Y-49261D01*
X90430Y-48800D01*
X90397Y-48635D01*
X90304Y-48495D01*
X90158Y-48350D01*
X91766Y-48350D01*
X91686Y-48430D01*
X91630Y-48566D01*
X91629Y-48713D01*
X91630Y-48713D01*
X91630Y-53170D01*
X91591Y-53170D01*
X91591Y-51017D01*
X91543Y-50935D01*
X90994Y-50935D01*
X90994Y-51411D01*
X91132Y-51411D01*
X91330Y-51352D01*
X91489Y-51222D01*
X91587Y-51040D01*
X91591Y-51017D01*
X91591Y-53170D01*
X91439Y-53170D01*
X91373Y-53103D01*
X91281Y-53065D01*
X91182Y-53065D01*
X90906Y-53065D01*
X90814Y-53103D01*
X90744Y-53173D01*
X90719Y-53232D01*
X90695Y-53174D01*
X90625Y-53103D01*
X90533Y-53065D01*
X90434Y-53065D01*
X90158Y-53065D01*
X90066Y-53103D01*
X89996Y-53173D01*
X89958Y-53265D01*
X89958Y-53365D01*
X89958Y-53758D01*
X89959Y-53762D01*
X89927Y-53775D01*
X89857Y-53845D01*
X89819Y-53937D01*
X89819Y-54037D01*
X89819Y-54411D01*
X89839Y-54460D01*
X89819Y-54508D01*
X89819Y-54632D01*
X89881Y-54695D01*
X90206Y-54695D01*
X90206Y-54687D01*
X90306Y-54687D01*
X90306Y-54695D01*
X90630Y-54695D01*
X90693Y-54632D01*
X90693Y-54508D01*
X90672Y-54459D01*
X90693Y-54411D01*
X90693Y-54312D01*
X90693Y-53938D01*
X90668Y-53878D01*
X90695Y-53851D01*
X90720Y-53792D01*
X90725Y-53804D01*
X90725Y-53815D01*
X90753Y-53956D01*
X90833Y-54076D01*
X90969Y-54212D01*
X90950Y-54257D01*
X90950Y-54357D01*
X90950Y-54711D01*
X90988Y-54803D01*
X91044Y-54860D01*
X90988Y-54916D01*
X90950Y-55008D01*
X90950Y-55122D01*
X91012Y-55185D01*
X91406Y-55185D01*
X91406Y-55177D01*
X91506Y-55177D01*
X91506Y-55185D01*
X91513Y-55185D01*
X91513Y-55285D01*
X91506Y-55285D01*
X91506Y-55599D01*
X91568Y-55662D01*
X91662Y-55662D01*
X91761Y-55662D01*
X91790Y-55650D01*
X91790Y-59046D01*
X91790Y-59046D01*
G37*
G54D36*
X91790Y-59046D02*
X91586Y-59250D01*
X91323Y-59250D01*
X91322Y-59248D01*
X91151Y-59134D01*
X91107Y-59125D01*
X91185Y-59102D01*
X91344Y-58972D01*
X91442Y-58790D01*
X91446Y-58766D01*
X91446Y-58504D01*
X91442Y-58480D01*
X91406Y-58413D01*
X91406Y-55599D01*
X91406Y-55285D01*
X91012Y-55285D01*
X90950Y-55347D01*
X90950Y-55461D01*
X90988Y-55553D01*
X91058Y-55623D01*
X91150Y-55662D01*
X91249Y-55662D01*
X91343Y-55662D01*
X91406Y-55599D01*
X91406Y-58413D01*
X91344Y-58299D01*
X91185Y-58169D01*
X90987Y-58110D01*
X90850Y-58110D01*
X90850Y-58585D01*
X91398Y-58585D01*
X91446Y-58504D01*
X91446Y-58766D01*
X91398Y-58685D01*
X90850Y-58685D01*
X90850Y-58693D01*
X90750Y-58693D01*
X90750Y-58685D01*
X90750Y-58585D01*
X90750Y-58110D01*
X90693Y-58110D01*
X90693Y-54981D01*
X90693Y-54857D01*
X90630Y-54795D01*
X90306Y-54795D01*
X90306Y-55119D01*
X90368Y-55182D01*
X90393Y-55182D01*
X90493Y-55182D01*
X90584Y-55144D01*
X90655Y-55073D01*
X90693Y-54981D01*
X90693Y-58110D01*
X90612Y-58110D01*
X90414Y-58169D01*
X90255Y-58299D01*
X90206Y-58390D01*
X90206Y-55119D01*
X90206Y-54795D01*
X89881Y-54795D01*
X89819Y-54857D01*
X89819Y-54981D01*
X89856Y-55073D01*
X89927Y-55144D01*
X90019Y-55182D01*
X90118Y-55182D01*
X90143Y-55182D01*
X90206Y-55119D01*
X90206Y-58390D01*
X90157Y-58480D01*
X90153Y-58504D01*
X90201Y-58585D01*
X90750Y-58585D01*
X90750Y-58685D01*
X90201Y-58685D01*
X90153Y-58766D01*
X90157Y-58790D01*
X90255Y-58972D01*
X90414Y-59102D01*
X90492Y-59125D01*
X90448Y-59134D01*
X90277Y-59248D01*
X90276Y-59250D01*
X89502Y-59250D01*
X89502Y-56863D01*
X89502Y-56037D01*
X89464Y-55945D01*
X89393Y-55874D01*
X89301Y-55836D01*
X89202Y-55836D01*
X88651Y-55836D01*
X88559Y-55874D01*
X88488Y-55944D01*
X88453Y-56031D01*
X88450Y-56036D01*
X88450Y-56107D01*
X88363Y-55977D01*
X88193Y-55863D01*
X87992Y-55823D01*
X87966Y-55828D01*
X87966Y-53659D01*
X87966Y-53335D01*
X87641Y-53335D01*
X87579Y-53397D01*
X87579Y-53521D01*
X87616Y-53613D01*
X87687Y-53684D01*
X87779Y-53722D01*
X87878Y-53722D01*
X87903Y-53722D01*
X87966Y-53659D01*
X87966Y-55828D01*
X87790Y-55863D01*
X87620Y-55977D01*
X87533Y-56108D01*
X87533Y-53521D01*
X87533Y-53397D01*
X87470Y-53335D01*
X87146Y-53335D01*
X87146Y-53659D01*
X87208Y-53722D01*
X87233Y-53722D01*
X87333Y-53722D01*
X87424Y-53684D01*
X87495Y-53613D01*
X87533Y-53521D01*
X87533Y-56108D01*
X87506Y-56148D01*
X87500Y-56180D01*
X87493Y-56148D01*
X87379Y-55977D01*
X87209Y-55863D01*
X87007Y-55823D01*
X86806Y-55863D01*
X86636Y-55977D01*
X86522Y-56148D01*
X86515Y-56180D01*
X86509Y-56148D01*
X86395Y-55977D01*
X86224Y-55863D01*
X86023Y-55823D01*
X85822Y-55863D01*
X85651Y-55977D01*
X85538Y-56148D01*
X85498Y-56349D01*
X85498Y-56650D01*
X85538Y-56851D01*
X85651Y-57022D01*
X85822Y-57136D01*
X86023Y-57176D01*
X86224Y-57136D01*
X86395Y-57022D01*
X86509Y-56851D01*
X86515Y-56819D01*
X86522Y-56851D01*
X86636Y-57022D01*
X86806Y-57136D01*
X87007Y-57176D01*
X87209Y-57136D01*
X87379Y-57022D01*
X87493Y-56851D01*
X87500Y-56819D01*
X87506Y-56851D01*
X87620Y-57022D01*
X87790Y-57136D01*
X87992Y-57176D01*
X88193Y-57136D01*
X88363Y-57022D01*
X88450Y-56892D01*
X88450Y-56962D01*
X88488Y-57054D01*
X88558Y-57125D01*
X88650Y-57163D01*
X88750Y-57163D01*
X89301Y-57163D01*
X89393Y-57125D01*
X89463Y-57055D01*
X89501Y-56963D01*
X89502Y-56863D01*
X89502Y-59250D01*
X88903Y-59250D01*
X88902Y-59248D01*
X88731Y-59134D01*
X88687Y-59125D01*
X88765Y-59102D01*
X88924Y-58972D01*
X89022Y-58790D01*
X89026Y-58766D01*
X89026Y-58504D01*
X89022Y-58480D01*
X88924Y-58299D01*
X88765Y-58169D01*
X88567Y-58110D01*
X88430Y-58110D01*
X88430Y-58585D01*
X88978Y-58585D01*
X89026Y-58504D01*
X89026Y-58766D01*
X88978Y-58685D01*
X88430Y-58685D01*
X88430Y-58693D01*
X88330Y-58693D01*
X88330Y-58685D01*
X88330Y-58585D01*
X88330Y-58110D01*
X88192Y-58110D01*
X87994Y-58169D01*
X87835Y-58299D01*
X87737Y-58480D01*
X87733Y-58504D01*
X87781Y-58585D01*
X88330Y-58585D01*
X88330Y-58685D01*
X87781Y-58685D01*
X87733Y-58766D01*
X87737Y-58790D01*
X87835Y-58972D01*
X87994Y-59102D01*
X88072Y-59125D01*
X88028Y-59134D01*
X87857Y-59248D01*
X87856Y-59250D01*
X86483Y-59250D01*
X86482Y-59248D01*
X86311Y-59134D01*
X86267Y-59125D01*
X86345Y-59102D01*
X86504Y-58972D01*
X86602Y-58790D01*
X86606Y-58766D01*
X86606Y-58504D01*
X86602Y-58480D01*
X86504Y-58299D01*
X86345Y-58169D01*
X86147Y-58110D01*
X86010Y-58110D01*
X86010Y-58585D01*
X86558Y-58585D01*
X86606Y-58504D01*
X86606Y-58766D01*
X86558Y-58685D01*
X86010Y-58685D01*
X86010Y-58693D01*
X85910Y-58693D01*
X85910Y-58685D01*
X85910Y-58585D01*
X85910Y-58110D01*
X85772Y-58110D01*
X85574Y-58169D01*
X85415Y-58299D01*
X85317Y-58480D01*
X85313Y-58504D01*
X85361Y-58585D01*
X85910Y-58585D01*
X85910Y-58685D01*
X85361Y-58685D01*
X85313Y-58766D01*
X85317Y-58790D01*
X85415Y-58972D01*
X85574Y-59102D01*
X85652Y-59125D01*
X85608Y-59134D01*
X85437Y-59248D01*
X85436Y-59250D01*
X84993Y-59250D01*
X84993Y-55263D01*
X84993Y-54239D01*
X84993Y-54139D01*
X84993Y-53116D01*
X84931Y-53053D01*
X84266Y-53053D01*
X84167Y-53053D01*
X84075Y-53092D01*
X84005Y-53162D01*
X83967Y-53254D01*
X83967Y-54077D01*
X84029Y-54139D01*
X84993Y-54139D01*
X84993Y-54239D01*
X84029Y-54239D01*
X83967Y-54302D01*
X83967Y-55125D01*
X84005Y-55217D01*
X84075Y-55287D01*
X84167Y-55325D01*
X84266Y-55325D01*
X84931Y-55325D01*
X84993Y-55263D01*
X84993Y-59250D01*
X84480Y-59250D01*
X84250Y-59250D01*
X84250Y-58430D01*
X84250Y-57729D01*
X84249Y-57630D01*
X84211Y-57538D01*
X84141Y-57467D01*
X84049Y-57429D01*
X83712Y-57430D01*
X83650Y-57492D01*
X83650Y-58030D01*
X84187Y-58030D01*
X84250Y-57967D01*
X84250Y-57729D01*
X84250Y-58430D01*
X84250Y-58192D01*
X84187Y-58130D01*
X83650Y-58130D01*
X83650Y-58667D01*
X83712Y-58730D01*
X84049Y-58730D01*
X84141Y-58692D01*
X84211Y-58621D01*
X84249Y-58529D01*
X84250Y-58430D01*
X84250Y-59250D01*
X83576Y-59250D01*
X83550Y-59255D01*
X83550Y-58667D01*
X83550Y-58130D01*
X83550Y-58030D01*
X83550Y-57492D01*
X83487Y-57430D01*
X83465Y-57429D01*
X83465Y-53573D01*
X83465Y-52018D01*
X83465Y-51919D01*
X83427Y-51827D01*
X83357Y-51757D01*
X83265Y-51719D01*
X82442Y-51719D01*
X82379Y-51781D01*
X82379Y-52746D01*
X83403Y-52746D01*
X83465Y-52683D01*
X83465Y-52018D01*
X83465Y-53573D01*
X83465Y-52908D01*
X83403Y-52846D01*
X82379Y-52846D01*
X82379Y-53810D01*
X82442Y-53872D01*
X83265Y-53872D01*
X83357Y-53834D01*
X83427Y-53764D01*
X83465Y-53672D01*
X83465Y-53573D01*
X83465Y-57429D01*
X83150Y-57429D01*
X83058Y-57467D01*
X82988Y-57538D01*
X82950Y-57630D01*
X82949Y-57729D01*
X82950Y-57967D01*
X83012Y-58030D01*
X83550Y-58030D01*
X83550Y-58130D01*
X83012Y-58130D01*
X82950Y-58192D01*
X82949Y-58430D01*
X82950Y-58529D01*
X82988Y-58621D01*
X83058Y-58692D01*
X83150Y-58730D01*
X83487Y-58730D01*
X83550Y-58667D01*
X83550Y-59255D01*
X83434Y-59278D01*
X83388Y-59308D01*
X83268Y-59308D01*
X83180Y-59345D01*
X83091Y-59308D01*
X82997Y-59308D01*
X82934Y-59371D01*
X82934Y-59666D01*
X82942Y-59666D01*
X82942Y-59766D01*
X82934Y-59766D01*
X82934Y-59773D01*
X82834Y-59773D01*
X82834Y-59766D01*
X82826Y-59766D01*
X82826Y-59666D01*
X82834Y-59666D01*
X82834Y-59371D01*
X82772Y-59308D01*
X82750Y-59308D01*
X82750Y-56753D01*
X82773Y-56729D01*
X82829Y-56593D01*
X82830Y-56446D01*
X82773Y-56310D01*
X82669Y-56206D01*
X82533Y-56150D01*
X82386Y-56149D01*
X82370Y-56156D01*
X82370Y-55360D01*
X82370Y-55360D01*
X82370Y-55286D01*
X82341Y-55218D01*
X82313Y-55150D01*
X82279Y-55116D01*
X82279Y-53810D01*
X82279Y-52846D01*
X82279Y-52746D01*
X82279Y-51781D01*
X82217Y-51719D01*
X81394Y-51719D01*
X81302Y-51757D01*
X81232Y-51827D01*
X81193Y-51919D01*
X81193Y-52018D01*
X81193Y-52683D01*
X81256Y-52746D01*
X82279Y-52746D01*
X82279Y-52846D01*
X81256Y-52846D01*
X81193Y-52908D01*
X81193Y-53573D01*
X81193Y-53672D01*
X81232Y-53764D01*
X81302Y-53834D01*
X81394Y-53872D01*
X82217Y-53872D01*
X82279Y-53810D01*
X82279Y-55116D01*
X82261Y-55098D01*
X82209Y-55046D01*
X82073Y-54990D01*
X81926Y-54989D01*
X81790Y-55046D01*
X81686Y-55150D01*
X81630Y-55286D01*
X81629Y-55433D01*
X81630Y-55433D01*
X81630Y-61120D01*
X81630Y-62320D01*
X81658Y-62461D01*
X81738Y-62581D01*
X81978Y-62821D01*
X82098Y-62901D01*
X82240Y-62930D01*
X82725Y-62930D01*
X82866Y-62901D01*
X82986Y-62821D01*
X83066Y-62701D01*
X83095Y-62560D01*
X83095Y-62519D01*
X83100Y-62517D01*
X83123Y-62526D01*
X83133Y-62576D01*
X83213Y-62696D01*
X83298Y-62781D01*
X83298Y-62781D01*
X83368Y-62828D01*
X83368Y-62828D01*
X83286Y-62910D01*
X83230Y-63046D01*
X83229Y-63193D01*
X83267Y-63283D01*
X83225Y-63325D01*
X83186Y-63417D01*
X83186Y-63517D01*
X83186Y-63623D01*
X83169Y-63606D01*
X83033Y-63550D01*
X82886Y-63549D01*
X82750Y-63606D01*
X82646Y-63710D01*
X82590Y-63846D01*
X82589Y-63993D01*
X82646Y-64129D01*
X82698Y-64181D01*
X82750Y-64233D01*
X82750Y-64233D01*
X83018Y-64501D01*
X83018Y-64501D01*
X83138Y-64581D01*
X83279Y-64610D01*
X83279Y-64609D01*
X83280Y-64610D01*
X83280Y-64610D01*
X83295Y-64624D01*
X83357Y-64650D01*
X81970Y-64650D01*
X81970Y-63046D01*
X81913Y-62910D01*
X81809Y-62806D01*
X81673Y-62750D01*
X81570Y-62749D01*
X81570Y-62406D01*
X81570Y-62406D01*
X81570Y-60400D01*
X81570Y-60400D01*
X81570Y-60326D01*
X81541Y-60258D01*
X81513Y-60190D01*
X81461Y-60138D01*
X81409Y-60086D01*
X81273Y-60030D01*
X81222Y-60030D01*
X81222Y-58901D01*
X81222Y-58626D01*
X81222Y-58526D01*
X81184Y-58435D01*
X81113Y-58364D01*
X81021Y-58326D01*
X80897Y-58326D01*
X80835Y-58389D01*
X80835Y-58713D01*
X81159Y-58713D01*
X81222Y-58651D01*
X81222Y-58626D01*
X81222Y-58901D01*
X81222Y-58876D01*
X81159Y-58813D01*
X80835Y-58813D01*
X80835Y-59138D01*
X80897Y-59200D01*
X81021Y-59200D01*
X81113Y-59163D01*
X81184Y-59092D01*
X81222Y-59000D01*
X81222Y-58901D01*
X81222Y-60030D01*
X81126Y-60029D01*
X80990Y-60086D01*
X80886Y-60190D01*
X80830Y-60326D01*
X80829Y-60473D01*
X80830Y-60473D01*
X80830Y-62479D01*
X80829Y-62553D01*
X80886Y-62689D01*
X80938Y-62741D01*
X80990Y-62793D01*
X81058Y-62821D01*
X81126Y-62849D01*
X81200Y-62850D01*
X81273Y-62850D01*
X81341Y-62821D01*
X81409Y-62793D01*
X81461Y-62741D01*
X81513Y-62689D01*
X81541Y-62621D01*
X81569Y-62553D01*
X81570Y-62480D01*
X81570Y-62406D01*
X81570Y-62749D01*
X81526Y-62749D01*
X81390Y-62806D01*
X81286Y-62910D01*
X81230Y-63046D01*
X81229Y-63193D01*
X81283Y-63321D01*
X81283Y-63568D01*
X81211Y-63598D01*
X81169Y-63640D01*
X81169Y-63387D01*
X81131Y-63295D01*
X81061Y-63224D01*
X80969Y-63186D01*
X80870Y-63186D01*
X80515Y-63186D01*
X80423Y-63224D01*
X80353Y-63294D01*
X80330Y-63350D01*
X79962Y-63350D01*
X79962Y-60981D01*
X79962Y-60706D01*
X79962Y-60606D01*
X79924Y-60515D01*
X79853Y-60444D01*
X79761Y-60406D01*
X79637Y-60406D01*
X79575Y-60469D01*
X79575Y-60793D01*
X79899Y-60793D01*
X79962Y-60731D01*
X79962Y-60706D01*
X79962Y-60981D01*
X79962Y-60956D01*
X79899Y-60893D01*
X79575Y-60893D01*
X79575Y-61218D01*
X79637Y-61280D01*
X79761Y-61280D01*
X79853Y-61243D01*
X79924Y-61172D01*
X79962Y-61080D01*
X79962Y-60981D01*
X79962Y-63350D01*
X79938Y-63350D01*
X79924Y-63315D01*
X79854Y-63245D01*
X79762Y-63206D01*
X79662Y-63206D01*
X79288Y-63206D01*
X79239Y-63227D01*
X79230Y-63222D01*
X79230Y-61264D01*
X79240Y-61260D01*
X79288Y-61280D01*
X79412Y-61280D01*
X79475Y-61218D01*
X79475Y-60893D01*
X79467Y-60893D01*
X79467Y-60793D01*
X79475Y-60793D01*
X79475Y-60469D01*
X79412Y-60406D01*
X79288Y-60406D01*
X79239Y-60427D01*
X79191Y-60406D01*
X79092Y-60406D01*
X78718Y-60406D01*
X78626Y-60444D01*
X78555Y-60515D01*
X78546Y-60537D01*
X77576Y-60537D01*
X77522Y-60456D01*
X77351Y-60342D01*
X77319Y-60335D01*
X77351Y-60329D01*
X77522Y-60215D01*
X77576Y-60133D01*
X78556Y-60133D01*
X78667Y-60111D01*
X78761Y-60048D01*
X79265Y-59545D01*
X79265Y-59545D01*
X79265Y-59545D01*
X79327Y-59450D01*
X79327Y-59450D01*
X79346Y-59358D01*
X79350Y-59340D01*
X79349Y-59340D01*
X79350Y-59340D01*
X79350Y-59162D01*
X79392Y-59144D01*
X79462Y-59074D01*
X79472Y-59050D01*
X79797Y-59050D01*
X79815Y-59092D01*
X79885Y-59162D01*
X79977Y-59200D01*
X80077Y-59200D01*
X80451Y-59200D01*
X80500Y-59180D01*
X80548Y-59200D01*
X80672Y-59200D01*
X80735Y-59138D01*
X80735Y-58813D01*
X80727Y-58813D01*
X80727Y-58713D01*
X80735Y-58713D01*
X80735Y-58389D01*
X80672Y-58326D01*
X80548Y-58326D01*
X80499Y-58347D01*
X80451Y-58326D01*
X80352Y-58326D01*
X79978Y-58326D01*
X79886Y-58364D01*
X79815Y-58435D01*
X79801Y-58470D01*
X79769Y-58470D01*
X79769Y-57305D01*
X79769Y-57290D01*
X79707Y-57227D01*
X79412Y-57227D01*
X79412Y-57542D01*
X79474Y-57604D01*
X79569Y-57604D01*
X79661Y-57566D01*
X79731Y-57496D01*
X79769Y-57404D01*
X79769Y-57305D01*
X79769Y-58470D01*
X79484Y-58470D01*
X79480Y-58459D01*
X79500Y-58411D01*
X79500Y-58312D01*
X79500Y-57938D01*
X79463Y-57846D01*
X79392Y-57775D01*
X79350Y-57757D01*
X79350Y-57648D01*
X79327Y-57537D01*
X79312Y-57513D01*
X79312Y-57513D01*
X79312Y-57227D01*
X79304Y-57227D01*
X79304Y-57127D01*
X79312Y-57127D01*
X79312Y-57119D01*
X79412Y-57119D01*
X79412Y-57127D01*
X79707Y-57127D01*
X79744Y-57090D01*
X80160Y-57090D01*
X80270Y-57067D01*
X80365Y-57005D01*
X80718Y-56652D01*
X80780Y-56557D01*
X80803Y-56447D01*
X80803Y-56208D01*
X80866Y-56145D01*
X80904Y-56053D01*
X80904Y-55953D01*
X80904Y-55638D01*
X80866Y-55546D01*
X80796Y-55476D01*
X80785Y-55471D01*
X80796Y-55467D01*
X80866Y-55397D01*
X80904Y-55305D01*
X80904Y-55205D01*
X80904Y-54890D01*
X80866Y-54798D01*
X80796Y-54728D01*
X80704Y-54690D01*
X80605Y-54690D01*
X80250Y-54690D01*
X80159Y-54728D01*
X80088Y-54798D01*
X80050Y-54890D01*
X80050Y-54989D01*
X80050Y-55143D01*
X80009Y-55102D01*
X79917Y-55064D01*
X79817Y-55064D01*
X79463Y-55064D01*
X79371Y-55102D01*
X79303Y-55170D01*
X79290Y-55170D01*
X79290Y-54770D01*
X79353Y-54770D01*
X79421Y-54741D01*
X79489Y-54713D01*
X79541Y-54661D01*
X79593Y-54609D01*
X79593Y-54609D01*
X79835Y-54367D01*
X79915Y-54247D01*
X79943Y-54106D01*
X79943Y-53872D01*
X80509Y-53872D01*
X80601Y-53834D01*
X80671Y-53764D01*
X80709Y-53672D01*
X80709Y-53573D01*
X80709Y-51919D01*
X80671Y-51827D01*
X80601Y-51757D01*
X80509Y-51719D01*
X80410Y-51719D01*
X78953Y-51719D01*
X78953Y-51702D01*
X78953Y-51328D01*
X78932Y-51279D01*
X78953Y-51231D01*
X78953Y-51132D01*
X78953Y-50758D01*
X78915Y-50666D01*
X78892Y-50643D01*
X78892Y-50615D01*
X78910Y-50633D01*
X78978Y-50661D01*
X79046Y-50689D01*
X79120Y-50690D01*
X79193Y-50690D01*
X79261Y-50661D01*
X79329Y-50633D01*
X79381Y-50581D01*
X79433Y-50529D01*
X79461Y-50461D01*
X79489Y-50393D01*
X79490Y-50320D01*
X79490Y-50246D01*
X79461Y-50178D01*
X79433Y-50110D01*
X79381Y-50058D01*
X79329Y-50006D01*
X79329Y-50006D01*
X79301Y-49978D01*
X79229Y-49930D01*
X80810Y-49930D01*
X80810Y-46310D01*
X77510Y-46310D01*
X77510Y-47763D01*
X77503Y-47779D01*
X77503Y-47878D01*
X77503Y-48548D01*
X77510Y-48564D01*
X77510Y-49069D01*
X77446Y-49069D01*
X77412Y-49083D01*
X77412Y-48449D01*
X77412Y-47878D01*
X77412Y-47779D01*
X77374Y-47687D01*
X77304Y-47617D01*
X77212Y-47579D01*
X76783Y-47579D01*
X76720Y-47641D01*
X76720Y-48113D01*
X77350Y-48113D01*
X77412Y-48051D01*
X77412Y-47878D01*
X77412Y-48449D01*
X77412Y-48276D01*
X77350Y-48213D01*
X76720Y-48213D01*
X76720Y-48686D01*
X76783Y-48748D01*
X77212Y-48748D01*
X77304Y-48710D01*
X77374Y-48640D01*
X77412Y-48548D01*
X77412Y-48449D01*
X77412Y-49083D01*
X77310Y-49126D01*
X77206Y-49230D01*
X77150Y-49366D01*
X77149Y-49513D01*
X77150Y-49515D01*
X77150Y-49520D01*
X77150Y-50519D01*
X76434Y-51234D01*
X76372Y-51329D01*
X76350Y-51440D01*
X76350Y-52097D01*
X76307Y-52115D01*
X76237Y-52185D01*
X76227Y-52210D01*
X76037Y-52210D01*
X76037Y-50967D01*
X76037Y-50830D01*
X76037Y-50730D01*
X76037Y-50592D01*
X75978Y-50394D01*
X75848Y-50235D01*
X75702Y-50156D01*
X75702Y-49331D01*
X75702Y-49115D01*
X75702Y-49016D01*
X75664Y-48924D01*
X75594Y-48854D01*
X75502Y-48816D01*
X75407Y-48816D01*
X75345Y-48878D01*
X75345Y-49173D01*
X75640Y-49173D01*
X75702Y-49111D01*
X75702Y-49115D01*
X75702Y-49331D01*
X75702Y-49336D01*
X75640Y-49273D01*
X75345Y-49273D01*
X75345Y-49568D01*
X75407Y-49631D01*
X75502Y-49631D01*
X75594Y-49593D01*
X75664Y-49523D01*
X75702Y-49431D01*
X75702Y-49331D01*
X75702Y-50156D01*
X75667Y-50137D01*
X75643Y-50133D01*
X75562Y-50181D01*
X75562Y-50730D01*
X76037Y-50730D01*
X76037Y-50830D01*
X75562Y-50830D01*
X75562Y-51378D01*
X75643Y-51426D01*
X75667Y-51422D01*
X75848Y-51324D01*
X75978Y-51165D01*
X76037Y-50967D01*
X76037Y-52210D01*
X75740Y-52210D01*
X75629Y-52232D01*
X75534Y-52294D01*
X75534Y-52294D01*
X75314Y-52514D01*
X75252Y-52609D01*
X75230Y-52720D01*
X75230Y-52939D01*
X75221Y-52898D01*
X75141Y-52778D01*
X74976Y-52612D01*
X74856Y-52532D01*
X74714Y-52504D01*
X74548Y-52504D01*
X74548Y-52332D01*
X74510Y-52241D01*
X74440Y-52170D01*
X74367Y-52140D01*
X74789Y-51718D01*
X74869Y-51597D01*
X74897Y-51456D01*
X74897Y-51424D01*
X74944Y-51405D01*
X75015Y-51335D01*
X75053Y-51243D01*
X75053Y-51174D01*
X75175Y-51324D01*
X75357Y-51422D01*
X75380Y-51426D01*
X75462Y-51378D01*
X75462Y-50830D01*
X75454Y-50830D01*
X75454Y-50730D01*
X75462Y-50730D01*
X75462Y-50181D01*
X75380Y-50133D01*
X75357Y-50137D01*
X75175Y-50235D01*
X75053Y-50385D01*
X75053Y-50317D01*
X75015Y-50225D01*
X74945Y-50154D01*
X74897Y-50135D01*
X74897Y-49631D01*
X74911Y-49631D01*
X75000Y-49594D01*
X75088Y-49631D01*
X75182Y-49631D01*
X75245Y-49568D01*
X75245Y-49273D01*
X75237Y-49273D01*
X75237Y-49173D01*
X75245Y-49173D01*
X75245Y-48878D01*
X75182Y-48816D01*
X75088Y-48816D01*
X74999Y-48852D01*
X74912Y-48816D01*
X74812Y-48816D01*
X74497Y-48816D01*
X74405Y-48854D01*
X74335Y-48924D01*
X74297Y-49016D01*
X74297Y-49103D01*
X74266Y-49134D01*
X74186Y-49254D01*
X74157Y-49396D01*
X74157Y-50135D01*
X74110Y-50154D01*
X74040Y-50224D01*
X74002Y-50316D01*
X74002Y-50416D01*
X74002Y-51242D01*
X74040Y-51334D01*
X74083Y-51377D01*
X73702Y-51758D01*
X73622Y-51878D01*
X73593Y-52020D01*
X73593Y-52132D01*
X73579Y-52132D01*
X73487Y-52170D01*
X73417Y-52240D01*
X73379Y-52332D01*
X73379Y-52431D01*
X73379Y-53416D01*
X73417Y-53508D01*
X73487Y-53578D01*
X73579Y-53616D01*
X73678Y-53616D01*
X74348Y-53616D01*
X74440Y-53578D01*
X74510Y-53508D01*
X74510Y-53815D01*
X74440Y-53745D01*
X74348Y-53707D01*
X74249Y-53707D01*
X74076Y-53707D01*
X74013Y-53769D01*
X74013Y-54399D01*
X74021Y-54399D01*
X74021Y-54499D01*
X74013Y-54499D01*
X74013Y-55128D01*
X74076Y-55191D01*
X74249Y-55191D01*
X74348Y-55191D01*
X74440Y-55153D01*
X74510Y-55082D01*
X74548Y-54991D01*
X74548Y-54637D01*
X74618Y-54741D01*
X74698Y-54821D01*
X74698Y-54821D01*
X74750Y-54873D01*
X74818Y-54901D01*
X74886Y-54929D01*
X74960Y-54930D01*
X75033Y-54930D01*
X75101Y-54901D01*
X75169Y-54873D01*
X75221Y-54821D01*
X75230Y-54813D01*
X75230Y-54886D01*
X75126Y-54990D01*
X75070Y-55126D01*
X75069Y-55273D01*
X75126Y-55409D01*
X75230Y-55513D01*
X75366Y-55569D01*
X75513Y-55570D01*
X75543Y-55557D01*
X75543Y-55856D01*
X75563Y-55905D01*
X75543Y-55953D01*
X75543Y-56053D01*
X75543Y-56427D01*
X75571Y-56496D01*
X75543Y-56564D01*
X75543Y-56663D01*
X75543Y-57037D01*
X75563Y-57086D01*
X75543Y-57135D01*
X75543Y-57259D01*
X75605Y-57322D01*
X75930Y-57322D01*
X75930Y-57314D01*
X76030Y-57314D01*
X76030Y-57322D01*
X76354Y-57322D01*
X76383Y-57293D01*
X76422Y-57331D01*
X76717Y-57331D01*
X76717Y-57324D01*
X76817Y-57324D01*
X76817Y-57331D01*
X77112Y-57331D01*
X77175Y-57269D01*
X77175Y-57174D01*
X77138Y-57086D01*
X77141Y-57080D01*
X77470Y-57080D01*
X77470Y-57126D01*
X77446Y-57150D01*
X77390Y-57286D01*
X77389Y-57433D01*
X77446Y-57569D01*
X77550Y-57673D01*
X77686Y-57729D01*
X77833Y-57730D01*
X77969Y-57673D01*
X78073Y-57569D01*
X78129Y-57433D01*
X78130Y-57286D01*
X78073Y-57150D01*
X78050Y-57126D01*
X78050Y-56880D01*
X78027Y-56769D01*
X77965Y-56674D01*
X77875Y-56585D01*
X77781Y-56522D01*
X77701Y-56506D01*
X77701Y-55694D01*
X77701Y-55379D01*
X77406Y-55379D01*
X77344Y-55442D01*
X77344Y-55457D01*
X77344Y-55556D01*
X77382Y-55648D01*
X77452Y-55718D01*
X77544Y-55756D01*
X77639Y-55756D01*
X77701Y-55694D01*
X77701Y-56506D01*
X77670Y-56500D01*
X77140Y-56500D01*
X77137Y-56492D01*
X77066Y-56422D01*
X76975Y-56383D01*
X76875Y-56383D01*
X76560Y-56383D01*
X76468Y-56421D01*
X76398Y-56492D01*
X76396Y-56496D01*
X76389Y-56496D01*
X76388Y-56496D01*
X76417Y-56427D01*
X76417Y-56328D01*
X76417Y-55954D01*
X76397Y-55905D01*
X76417Y-55857D01*
X76417Y-55757D01*
X76417Y-55383D01*
X76379Y-55291D01*
X76350Y-55262D01*
X76350Y-54620D01*
X76322Y-54478D01*
X76241Y-54358D01*
X76181Y-54298D01*
X76181Y-54298D01*
X76129Y-54246D01*
X75993Y-54190D01*
X75846Y-54189D01*
X75810Y-54205D01*
X75810Y-52840D01*
X75860Y-52790D01*
X76215Y-52790D01*
X76219Y-52800D01*
X76199Y-52848D01*
X76199Y-52947D01*
X76199Y-53321D01*
X76236Y-53413D01*
X76266Y-53442D01*
X76266Y-53756D01*
X76269Y-53775D01*
X76269Y-53833D01*
X76292Y-53886D01*
X76294Y-53897D01*
X76300Y-53906D01*
X76326Y-53969D01*
X76374Y-54017D01*
X76374Y-54017D01*
X76378Y-54021D01*
X76378Y-54021D01*
X76430Y-54073D01*
X76498Y-54101D01*
X76566Y-54129D01*
X76640Y-54130D01*
X76713Y-54130D01*
X76781Y-54101D01*
X76849Y-54073D01*
X76901Y-54021D01*
X76953Y-53969D01*
X76981Y-53901D01*
X77009Y-53833D01*
X77010Y-53760D01*
X77010Y-53686D01*
X77006Y-53677D01*
X77006Y-53443D01*
X77034Y-53414D01*
X77073Y-53322D01*
X77073Y-53222D01*
X77073Y-52848D01*
X77052Y-52799D01*
X77073Y-52751D01*
X77073Y-52725D01*
X77115Y-52767D01*
X77115Y-54138D01*
X77078Y-54153D01*
X77008Y-54223D01*
X76970Y-54315D01*
X76970Y-54414D01*
X76970Y-54769D01*
X77008Y-54860D01*
X77078Y-54931D01*
X77170Y-54969D01*
X77269Y-54969D01*
X77423Y-54969D01*
X77382Y-55010D01*
X77344Y-55102D01*
X77344Y-55202D01*
X77344Y-55217D01*
X77406Y-55279D01*
X77701Y-55279D01*
X77701Y-54965D01*
X77670Y-54934D01*
X77676Y-54931D01*
X77747Y-54861D01*
X77751Y-54850D01*
X77756Y-54860D01*
X77826Y-54931D01*
X77832Y-54933D01*
X77801Y-54965D01*
X77801Y-55279D01*
X78096Y-55279D01*
X78159Y-55217D01*
X78159Y-55202D01*
X78159Y-55102D01*
X78121Y-55010D01*
X78079Y-54969D01*
X78332Y-54969D01*
X78424Y-54931D01*
X78495Y-54861D01*
X78521Y-54797D01*
X78626Y-54797D01*
X78710Y-54880D01*
X78710Y-55460D01*
X78710Y-55992D01*
X78689Y-56001D01*
X78618Y-56071D01*
X78580Y-56163D01*
X78580Y-56262D01*
X78580Y-56551D01*
X78514Y-56594D01*
X78514Y-56594D01*
X78419Y-56689D01*
X78368Y-56766D01*
X78315Y-56788D01*
X78244Y-56858D01*
X78206Y-56950D01*
X78206Y-57049D01*
X78206Y-57404D01*
X78244Y-57496D01*
X78314Y-57566D01*
X78406Y-57604D01*
X78506Y-57604D01*
X78606Y-57604D01*
X78765Y-57763D01*
X78735Y-57775D01*
X78665Y-57845D01*
X78626Y-57937D01*
X78626Y-58037D01*
X78626Y-58411D01*
X78647Y-58460D01*
X78626Y-58508D01*
X78626Y-58607D01*
X78626Y-58981D01*
X78664Y-59073D01*
X78735Y-59144D01*
X78770Y-59158D01*
X78770Y-59219D01*
X78436Y-59553D01*
X78159Y-59553D01*
X78159Y-55457D01*
X78159Y-55442D01*
X78096Y-55379D01*
X77801Y-55379D01*
X77801Y-55694D01*
X77864Y-55756D01*
X77958Y-55756D01*
X78050Y-55718D01*
X78121Y-55648D01*
X78159Y-55556D01*
X78159Y-55457D01*
X78159Y-59553D01*
X77576Y-59553D01*
X77522Y-59471D01*
X77351Y-59358D01*
X77319Y-59351D01*
X77351Y-59344D01*
X77522Y-59231D01*
X77636Y-59060D01*
X77676Y-58859D01*
X77636Y-58658D01*
X77522Y-58487D01*
X77351Y-58373D01*
X77175Y-58338D01*
X77175Y-57588D01*
X77175Y-57494D01*
X77112Y-57431D01*
X76817Y-57431D01*
X76817Y-57726D01*
X76880Y-57789D01*
X76875Y-57789D01*
X76975Y-57789D01*
X77066Y-57751D01*
X77137Y-57680D01*
X77175Y-57588D01*
X77175Y-58338D01*
X77150Y-58333D01*
X76849Y-58333D01*
X76717Y-58359D01*
X76717Y-57726D01*
X76717Y-57431D01*
X76422Y-57431D01*
X76393Y-57460D01*
X76354Y-57422D01*
X76030Y-57422D01*
X76030Y-57746D01*
X76092Y-57809D01*
X76117Y-57809D01*
X76217Y-57809D01*
X76309Y-57770D01*
X76379Y-57700D01*
X76392Y-57667D01*
X76398Y-57680D01*
X76468Y-57751D01*
X76560Y-57789D01*
X76659Y-57789D01*
X76655Y-57789D01*
X76717Y-57726D01*
X76717Y-58359D01*
X76648Y-58373D01*
X76477Y-58487D01*
X76363Y-58658D01*
X76323Y-58859D01*
X76363Y-59060D01*
X76477Y-59231D01*
X76648Y-59344D01*
X76680Y-59351D01*
X76648Y-59358D01*
X76477Y-59471D01*
X76363Y-59642D01*
X76323Y-59843D01*
X76363Y-60044D01*
X76477Y-60215D01*
X76648Y-60329D01*
X76680Y-60335D01*
X76648Y-60342D01*
X76477Y-60456D01*
X76363Y-60626D01*
X76323Y-60827D01*
X76363Y-61029D01*
X76477Y-61199D01*
X76648Y-61313D01*
X76692Y-61322D01*
X76614Y-61345D01*
X76455Y-61475D01*
X76357Y-61657D01*
X76353Y-61680D01*
X76401Y-61762D01*
X76950Y-61762D01*
X76950Y-61754D01*
X77050Y-61754D01*
X77050Y-61762D01*
X77598Y-61762D01*
X77646Y-61680D01*
X77642Y-61657D01*
X77544Y-61475D01*
X77385Y-61345D01*
X77307Y-61322D01*
X77351Y-61313D01*
X77522Y-61199D01*
X77576Y-61117D01*
X78532Y-61117D01*
X78555Y-61172D01*
X78625Y-61242D01*
X78650Y-61252D01*
X78650Y-63235D01*
X78626Y-63244D01*
X78555Y-63315D01*
X78517Y-63406D01*
X78517Y-63506D01*
X78517Y-63880D01*
X78555Y-63972D01*
X78625Y-64042D01*
X78717Y-64080D01*
X78817Y-64080D01*
X79191Y-64080D01*
X79240Y-64060D01*
X79288Y-64080D01*
X79387Y-64080D01*
X79761Y-64080D01*
X79853Y-64043D01*
X79924Y-63972D01*
X79942Y-63930D01*
X80389Y-63930D01*
X80423Y-63963D01*
X80434Y-63968D01*
X80423Y-63972D01*
X80353Y-64043D01*
X80315Y-64135D01*
X80315Y-64229D01*
X80377Y-64292D01*
X80692Y-64292D01*
X80692Y-64284D01*
X80792Y-64284D01*
X80792Y-64292D01*
X81107Y-64292D01*
X81138Y-64261D01*
X81140Y-64267D01*
X81210Y-64337D01*
X81302Y-64375D01*
X81402Y-64375D01*
X81756Y-64375D01*
X81848Y-64337D01*
X81918Y-64267D01*
X81956Y-64175D01*
X81956Y-64076D01*
X81956Y-63761D01*
X81918Y-63669D01*
X81863Y-63613D01*
X81863Y-63380D01*
X81913Y-63329D01*
X81969Y-63193D01*
X81970Y-63046D01*
X81970Y-64650D01*
X81122Y-64650D01*
X81131Y-64641D01*
X81169Y-64549D01*
X81169Y-64454D01*
X81107Y-64392D01*
X80792Y-64392D01*
X80792Y-64400D01*
X80692Y-64400D01*
X80692Y-64392D01*
X80377Y-64392D01*
X80315Y-64454D01*
X80315Y-64549D01*
X80353Y-64641D01*
X80362Y-64650D01*
X77676Y-64650D01*
X77676Y-62796D01*
X77636Y-62595D01*
X77522Y-62424D01*
X77351Y-62310D01*
X77307Y-62301D01*
X77385Y-62278D01*
X77544Y-62148D01*
X77642Y-61967D01*
X77646Y-61943D01*
X77598Y-61862D01*
X77050Y-61862D01*
X77050Y-61870D01*
X76950Y-61870D01*
X76950Y-61862D01*
X76401Y-61862D01*
X76353Y-61943D01*
X76357Y-61967D01*
X76455Y-62148D01*
X76614Y-62278D01*
X76692Y-62301D01*
X76648Y-62310D01*
X76477Y-62424D01*
X76363Y-62595D01*
X76323Y-62796D01*
X76363Y-62997D01*
X76477Y-63168D01*
X76607Y-63254D01*
X76537Y-63254D01*
X76445Y-63292D01*
X76374Y-63363D01*
X76336Y-63455D01*
X76336Y-63554D01*
X76336Y-64105D01*
X76374Y-64197D01*
X76444Y-64268D01*
X76536Y-64306D01*
X76636Y-64306D01*
X77462Y-64306D01*
X77554Y-64268D01*
X77625Y-64198D01*
X77663Y-64106D01*
X77663Y-64006D01*
X77663Y-63455D01*
X77625Y-63363D01*
X77555Y-63293D01*
X77463Y-63255D01*
X77392Y-63255D01*
X77522Y-63168D01*
X77636Y-62997D01*
X77676Y-62796D01*
X77676Y-64650D01*
X75950Y-64650D01*
X75950Y-61850D01*
X75930Y-61850D01*
X75930Y-57746D01*
X75930Y-57422D01*
X75605Y-57422D01*
X75543Y-57484D01*
X75543Y-57608D01*
X75581Y-57700D01*
X75651Y-57770D01*
X75743Y-57809D01*
X75842Y-57809D01*
X75867Y-57809D01*
X75930Y-57746D01*
X75930Y-61850D01*
X73913Y-61850D01*
X73913Y-55128D01*
X73913Y-54499D01*
X73913Y-54399D01*
X73913Y-53769D01*
X73851Y-53707D01*
X73678Y-53707D01*
X73579Y-53707D01*
X73487Y-53745D01*
X73417Y-53815D01*
X73379Y-53907D01*
X73379Y-54336D01*
X73441Y-54399D01*
X73913Y-54399D01*
X73913Y-54499D01*
X73441Y-54499D01*
X73379Y-54561D01*
X73379Y-54991D01*
X73417Y-55082D01*
X73487Y-55153D01*
X73579Y-55191D01*
X73678Y-55191D01*
X73851Y-55191D01*
X73913Y-55128D01*
X73913Y-61850D01*
X73150Y-61850D01*
X73150Y-48350D01*
X75928Y-48350D01*
X75928Y-48449D01*
X75928Y-48548D01*
X75966Y-48640D01*
X76037Y-48710D01*
X76128Y-48748D01*
X76558Y-48748D01*
X76620Y-48686D01*
X76620Y-48213D01*
X76612Y-48213D01*
X76612Y-48113D01*
X76620Y-48113D01*
X76620Y-47641D01*
X76558Y-47579D01*
X76128Y-47579D01*
X76037Y-47617D01*
X75966Y-47687D01*
X75950Y-47727D01*
X75950Y-45650D01*
X85718Y-45650D01*
X85630Y-45686D01*
X85526Y-45790D01*
X85526Y-45790D01*
X85506Y-45810D01*
X85426Y-45810D01*
X85394Y-45777D01*
X85302Y-45739D01*
X85202Y-45739D01*
X84828Y-45739D01*
X84780Y-45759D01*
X84731Y-45739D01*
X84607Y-45739D01*
X84544Y-45801D01*
X84544Y-46126D01*
X84552Y-46126D01*
X84552Y-46226D01*
X84544Y-46226D01*
X84544Y-46233D01*
X84444Y-46233D01*
X84444Y-46226D01*
X84444Y-46126D01*
X84444Y-45801D01*
X84382Y-45739D01*
X84258Y-45739D01*
X84166Y-45776D01*
X84095Y-45847D01*
X84057Y-45939D01*
X84057Y-46038D01*
X84057Y-46063D01*
X84120Y-46126D01*
X84444Y-46126D01*
X84444Y-46226D01*
X84120Y-46226D01*
X84057Y-46288D01*
X84057Y-46310D01*
X81670Y-46310D01*
X81670Y-50010D01*
X82866Y-50010D01*
X83910Y-50914D01*
X83910Y-52490D01*
X84033Y-52490D01*
X84075Y-52531D01*
X84167Y-52569D01*
X84266Y-52569D01*
X85920Y-52569D01*
X85950Y-52557D01*
X85950Y-53066D01*
X85920Y-53053D01*
X85821Y-53053D01*
X85156Y-53053D01*
X85093Y-53116D01*
X85093Y-54139D01*
X85101Y-54139D01*
X85101Y-54239D01*
X85093Y-54239D01*
X85093Y-55263D01*
X85156Y-55325D01*
X85821Y-55325D01*
X85920Y-55325D01*
X86012Y-55287D01*
X86028Y-55271D01*
X86058Y-55301D01*
X86110Y-55353D01*
X86178Y-55381D01*
X86246Y-55409D01*
X86320Y-55410D01*
X86393Y-55410D01*
X86461Y-55381D01*
X86529Y-55353D01*
X86581Y-55301D01*
X86633Y-55249D01*
X86661Y-55181D01*
X86689Y-55113D01*
X86690Y-55040D01*
X86690Y-54966D01*
X86690Y-54966D01*
X86690Y-53596D01*
X86696Y-53613D01*
X86767Y-53684D01*
X86859Y-53722D01*
X86958Y-53722D01*
X86983Y-53722D01*
X87046Y-53659D01*
X87046Y-53335D01*
X87038Y-53335D01*
X87038Y-53235D01*
X87046Y-53235D01*
X87046Y-53227D01*
X87146Y-53227D01*
X87146Y-53235D01*
X87470Y-53235D01*
X87533Y-53172D01*
X87533Y-53048D01*
X87512Y-52999D01*
X87515Y-52994D01*
X87596Y-52994D01*
X87599Y-53000D01*
X87579Y-53048D01*
X87579Y-53172D01*
X87641Y-53235D01*
X87966Y-53235D01*
X87966Y-53227D01*
X88066Y-53227D01*
X88066Y-53235D01*
X88073Y-53235D01*
X88073Y-53335D01*
X88066Y-53335D01*
X88066Y-53659D01*
X88128Y-53722D01*
X88153Y-53722D01*
X88253Y-53722D01*
X88344Y-53684D01*
X88415Y-53613D01*
X88453Y-53521D01*
X88453Y-53397D01*
X88390Y-53335D01*
X88412Y-53335D01*
X88430Y-53353D01*
X88566Y-53409D01*
X88713Y-53410D01*
X88849Y-53353D01*
X88953Y-53249D01*
X89009Y-53113D01*
X89010Y-52966D01*
X88996Y-52933D01*
X89071Y-52933D01*
X89120Y-52912D01*
X89168Y-52933D01*
X89267Y-52933D01*
X89641Y-52933D01*
X89733Y-52895D01*
X89804Y-52824D01*
X89842Y-52733D01*
X89842Y-52633D01*
X89842Y-52290D01*
X89971Y-52290D01*
X89958Y-52320D01*
X89958Y-52420D01*
X89958Y-52813D01*
X89996Y-52905D01*
X90066Y-52976D01*
X90158Y-53014D01*
X90257Y-53014D01*
X90532Y-53014D01*
X90533Y-53014D01*
X90533Y-53014D01*
X90607Y-53014D01*
X90670Y-52951D01*
X90670Y-52931D01*
X90695Y-52906D01*
X90720Y-52847D01*
X90744Y-52905D01*
X90770Y-52931D01*
X90770Y-52951D01*
X90832Y-53014D01*
X90907Y-53014D01*
X90907Y-53014D01*
X91005Y-53014D01*
X91281Y-53014D01*
X91373Y-52976D01*
X91443Y-52906D01*
X91481Y-52814D01*
X91481Y-52714D01*
X91481Y-52321D01*
X91465Y-52280D01*
X91465Y-52055D01*
X91464Y-52054D01*
X91436Y-51913D01*
X91356Y-51793D01*
X91356Y-51793D01*
X91221Y-51658D01*
X91101Y-51578D01*
X90960Y-51550D01*
X90894Y-51550D01*
X90894Y-51411D01*
X90894Y-50935D01*
X90346Y-50935D01*
X90298Y-51017D01*
X90302Y-51040D01*
X90400Y-51222D01*
X90559Y-51352D01*
X90757Y-51411D01*
X90894Y-51411D01*
X90894Y-51550D01*
X90345Y-51550D01*
X89673Y-51550D01*
X89241Y-51118D01*
X89121Y-51038D01*
X88980Y-51010D01*
X87566Y-51010D01*
X87596Y-50937D01*
X87596Y-49854D01*
X87558Y-49762D01*
X87488Y-49691D01*
X87396Y-49653D01*
X87296Y-49653D01*
X87124Y-49653D01*
X87061Y-49716D01*
X87061Y-50345D01*
X87533Y-50345D01*
X87596Y-50283D01*
X87596Y-49854D01*
X87596Y-50937D01*
X87596Y-50508D01*
X87533Y-50445D01*
X87061Y-50445D01*
X87061Y-50453D01*
X86961Y-50453D01*
X86961Y-50445D01*
X86953Y-50445D01*
X86953Y-50345D01*
X86961Y-50345D01*
X86961Y-49716D01*
X86899Y-49653D01*
X86726Y-49653D01*
X86690Y-49653D01*
X86690Y-49565D01*
X86701Y-49563D01*
X86726Y-49563D01*
X87395Y-49563D01*
X87487Y-49525D01*
X87558Y-49454D01*
X87596Y-49362D01*
X87596Y-49263D01*
X87596Y-48519D01*
X87978Y-48901D01*
X87978Y-48901D01*
X88030Y-48953D01*
X88166Y-49009D01*
X88313Y-49010D01*
X88449Y-48953D01*
X88553Y-48849D01*
X88609Y-48713D01*
X88610Y-48566D01*
X88561Y-48449D01*
X88735Y-48624D01*
X88875Y-48717D01*
X89040Y-48750D01*
X89341Y-48750D01*
X89570Y-48978D01*
X89570Y-49440D01*
X89602Y-49604D01*
X89695Y-49744D01*
X90157Y-50205D01*
X90157Y-50205D01*
X90297Y-50298D01*
X90312Y-50301D01*
X90319Y-50318D01*
X90389Y-50388D01*
X90481Y-50427D01*
X90550Y-50427D01*
X90400Y-50549D01*
X90302Y-50730D01*
X90298Y-50754D01*
X90346Y-50835D01*
X90894Y-50835D01*
X90894Y-50827D01*
X90994Y-50827D01*
X90994Y-50835D01*
X91543Y-50835D01*
X91591Y-50754D01*
X91587Y-50730D01*
X91489Y-50549D01*
X91339Y-50427D01*
X91407Y-50427D01*
X91499Y-50389D01*
X91570Y-50318D01*
X91608Y-50227D01*
X91608Y-50127D01*
X91608Y-49576D01*
X91570Y-49484D01*
X91500Y-49414D01*
X91408Y-49376D01*
X91308Y-49375D01*
X90544Y-49375D01*
X90430Y-49261D01*
X90430Y-48800D01*
X90397Y-48635D01*
X90304Y-48495D01*
X90158Y-48350D01*
X91766Y-48350D01*
X91686Y-48430D01*
X91630Y-48566D01*
X91629Y-48713D01*
X91630Y-48713D01*
X91630Y-53170D01*
X91591Y-53170D01*
X91591Y-51017D01*
X91543Y-50935D01*
X90994Y-50935D01*
X90994Y-51411D01*
X91132Y-51411D01*
X91330Y-51352D01*
X91489Y-51222D01*
X91587Y-51040D01*
X91591Y-51017D01*
X91591Y-53170D01*
X91439Y-53170D01*
X91373Y-53103D01*
X91281Y-53065D01*
X91182Y-53065D01*
X90906Y-53065D01*
X90814Y-53103D01*
X90744Y-53173D01*
X90719Y-53232D01*
X90695Y-53174D01*
X90625Y-53103D01*
X90533Y-53065D01*
X90434Y-53065D01*
X90158Y-53065D01*
X90066Y-53103D01*
X89996Y-53173D01*
X89958Y-53265D01*
X89958Y-53365D01*
X89958Y-53758D01*
X89959Y-53762D01*
X89927Y-53775D01*
X89857Y-53845D01*
X89819Y-53937D01*
X89819Y-54037D01*
X89819Y-54411D01*
X89839Y-54460D01*
X89819Y-54508D01*
X89819Y-54632D01*
X89881Y-54695D01*
X90206Y-54695D01*
X90206Y-54687D01*
X90306Y-54687D01*
X90306Y-54695D01*
X90630Y-54695D01*
X90693Y-54632D01*
X90693Y-54508D01*
X90672Y-54459D01*
X90693Y-54411D01*
X90693Y-54312D01*
X90693Y-53938D01*
X90668Y-53878D01*
X90695Y-53851D01*
X90720Y-53792D01*
X90725Y-53804D01*
X90725Y-53815D01*
X90753Y-53956D01*
X90833Y-54076D01*
X90969Y-54212D01*
X90950Y-54257D01*
X90950Y-54357D01*
X90950Y-54711D01*
X90988Y-54803D01*
X91044Y-54860D01*
X90988Y-54916D01*
X90950Y-55008D01*
X90950Y-55122D01*
X91012Y-55185D01*
X91406Y-55185D01*
X91406Y-55177D01*
X91506Y-55177D01*
X91506Y-55185D01*
X91513Y-55185D01*
X91513Y-55285D01*
X91506Y-55285D01*
X91506Y-55599D01*
X91568Y-55662D01*
X91662Y-55662D01*
X91761Y-55662D01*
X91790Y-55650D01*
X91790Y-59046D01*
G54D10*
G36*
X85310Y-52190D02*
X84210Y-52190D01*
X84210Y-50777D01*
X82978Y-49710D01*
X81970Y-49710D01*
X81970Y-46610D01*
X83950Y-46610D01*
X83950Y-46667D01*
X83920Y-46738D01*
X83920Y-46837D01*
X83920Y-47113D01*
X83920Y-47113D01*
X83920Y-47211D01*
X83920Y-47487D01*
X83950Y-47558D01*
X83950Y-48290D01*
X84590Y-48290D01*
X84590Y-49050D01*
X85310Y-50650D01*
X85310Y-52190D01*
X85310Y-52190D01*
G37*
G54D36*
X85310Y-52190D02*
X84210Y-52190D01*
X84210Y-50777D01*
X82978Y-49710D01*
X81970Y-49710D01*
X81970Y-46610D01*
X83950Y-46610D01*
X83950Y-46667D01*
X83920Y-46738D01*
X83920Y-46837D01*
X83920Y-47113D01*
X83920Y-47113D01*
X83920Y-47211D01*
X83920Y-47487D01*
X83950Y-47558D01*
X83950Y-48290D01*
X84590Y-48290D01*
X84590Y-49050D01*
X85310Y-50650D01*
X85310Y-52190D01*
M02*
