M48
INCH,TZ
T1C0.014
T2C0.035
T3C0.040
T4C0.125
%
G90
G05
T1
X73327Y-52264
X73327Y-53642
X73520Y-48640
X73520Y-50800
X73520Y-56720
X73520Y-58320
X73520Y-59840
X73520Y-61440
X73524Y-55315
X73917Y-55315
X74311Y-55315
X74960Y-54560
X75440Y-55200
X75440Y-61440
X75600Y-48640
X75840Y-49200
X75920Y-54560
X76240Y-46800
X76640Y-53760
X77280Y-46080
X77280Y-57440
X77360Y-47840
X77360Y-48240
X77360Y-48640
X77520Y-49440
X77760Y-53760
X77760Y-55920
X77760Y-57360
X79120Y-50320
X79280Y-54400
X79280Y-63120
X79360Y-46080
X79600Y-57760
X80080Y-60800
X80160Y-64320
X80960Y-50636
X80960Y-52480
X80960Y-52800
X80960Y-53200
X81200Y-48160
X81200Y-60400
X81200Y-62480
X81360Y-56000
X81360Y-58720
X81600Y-46080
X81600Y-51600
X81600Y-63120
X82000Y-55360
X82160Y-51600
X82460Y-56520
X82640Y-51600
X82960Y-63920
X83220Y-60780
X83600Y-63120
X83840Y-53600
X83840Y-54000
X83840Y-54400
X84000Y-46080
X84400Y-52800
X84480Y-60400
X84640Y-61200
X84640Y-63120
X84800Y-52800
X84880Y-46720
X84880Y-47280
X85200Y-52800
X85280Y-63120
X85840Y-46000
X85920Y-64320
X86000Y-47280
X86000Y-63920
X86320Y-55040
X87040Y-63120
X87120Y-53840
X87840Y-46000
X88240Y-48640
X88400Y-50400
X88560Y-64080
X88640Y-53040
X88800Y-49760
X88800Y-51900
X90240Y-55360
X90720Y-53120
X91440Y-56240
X92000Y-48640
T2
X74528Y-50780
X75512Y-50780
X77000Y-58859
X77000Y-59844
X77000Y-60828
X77000Y-61812
X77000Y-62796
X77000Y-63781
X85960Y-58636
X85960Y-59620
X85960Y-60604
X86024Y-56500
X87008Y-56500
X87992Y-56500
X88380Y-58636
X88380Y-59620
X88380Y-60604
X88976Y-56500
X90800Y-58636
X90800Y-59620
X90800Y-60604
X90945Y-49902
X90945Y-50886
T3
X83600Y-58080
T4
X74409Y-46850
X74409Y-63386
X90945Y-46850
X90945Y-63386
T0
M30
