G04 (created by PCBNEW (2013-jul-07)-stable) date Mon 11 May 2015 11:07:11 AM PDT*
%MOIN*%
G04 Gerber Fmt 3.4, Leading zero omitted, Abs format*
%FSLAX34Y34*%
G01*
G70*
G90*
G04 APERTURE LIST*
%ADD10C,0.006*%
%ADD11R,0.0669291X0.0984252*%
%ADD12R,0.0984252X0.0669291*%
%ADD13R,0.0433071X0.0551181*%
%ADD14R,0.0393701X0.0275591*%
%ADD15R,0.0275591X0.0393701*%
%ADD16R,0.0374016X0.0374016*%
%ADD17O,0.0787402X0.295276*%
%ADD18R,0.0700787X0.124016*%
%ADD19R,0.0314961X0.0314961*%
%ADD20R,0.0551181X0.0826772*%
%ADD21O,0.0551181X0.0826772*%
%ADD22R,0.0314961X0.0354331*%
%ADD23R,0.0354331X0.0314961*%
%ADD24R,0.038X0.05*%
%ADD25R,0.0826772X0.0551181*%
%ADD26O,0.0826772X0.0551181*%
%ADD27R,0.08X0.08*%
%ADD28R,0.165354X0.177165*%
%ADD29R,0.177165X0.165354*%
%ADD30R,0.0511811X0.0354331*%
%ADD31C,0.125*%
G04 APERTURE END LIST*
G54D10*
G54D11*
X73963Y-54449D03*
X73963Y-52874D03*
X87011Y-50395D03*
X87011Y-48820D03*
G54D12*
X76670Y-48163D03*
X78245Y-48163D03*
G54D13*
X84415Y-48623D03*
X85104Y-48623D03*
G54D14*
X84367Y-46925D03*
X84367Y-47674D03*
X85312Y-46925D03*
X84367Y-47300D03*
X85312Y-47674D03*
X82687Y-60385D03*
X82687Y-61134D03*
X83632Y-60385D03*
X82687Y-60760D03*
X83632Y-61134D03*
G54D13*
X82755Y-62023D03*
X83444Y-62023D03*
G54D15*
X91094Y-52567D03*
X90345Y-52567D03*
X91094Y-53512D03*
X90720Y-52567D03*
X90345Y-53512D03*
G54D16*
X90256Y-54174D03*
X90256Y-54745D03*
X89405Y-52496D03*
X88834Y-52496D03*
G54D17*
X80098Y-48083D03*
X82461Y-48083D03*
G54D18*
X86718Y-47043D03*
X88777Y-47043D03*
G54D16*
X85065Y-46176D03*
X84494Y-46176D03*
G54D19*
X74704Y-49223D03*
X75295Y-49223D03*
G54D20*
X74527Y-50780D03*
G54D21*
X75512Y-50780D03*
G54D22*
X78148Y-49430D03*
X78522Y-50217D03*
X77774Y-50217D03*
X77791Y-53169D03*
X77417Y-52382D03*
X78165Y-52382D03*
X77751Y-55329D03*
X77377Y-54542D03*
X78125Y-54542D03*
G54D23*
X79690Y-55471D03*
X80477Y-55097D03*
X80477Y-55845D03*
G54D22*
X78988Y-56390D03*
X79362Y-57177D03*
X78614Y-57177D03*
G54D23*
X85449Y-63928D03*
X84662Y-64302D03*
X84662Y-63554D03*
G54D24*
X85260Y-62520D03*
X85760Y-62520D03*
X86260Y-62520D03*
X87040Y-62520D03*
X87540Y-62520D03*
X88040Y-62520D03*
X87020Y-64080D03*
X87520Y-64080D03*
X88020Y-64080D03*
G54D23*
X81529Y-63968D03*
X80742Y-64342D03*
X80742Y-63594D03*
G54D25*
X85960Y-60604D03*
G54D26*
X85960Y-58635D03*
X85960Y-59620D03*
G54D25*
X88380Y-60604D03*
G54D26*
X88380Y-58635D03*
X88380Y-59620D03*
G54D25*
X90800Y-60604D03*
G54D26*
X90800Y-58635D03*
X90800Y-59620D03*
G54D21*
X87992Y-56500D03*
X87007Y-56500D03*
G54D20*
X88976Y-56500D03*
G54D21*
X86023Y-56500D03*
G54D26*
X77000Y-62796D03*
X77000Y-61812D03*
G54D25*
X77000Y-63780D03*
G54D26*
X77000Y-60827D03*
X77000Y-59843D03*
X77000Y-58859D03*
G54D25*
X90944Y-49901D03*
G54D26*
X90944Y-50885D03*
G54D27*
X83600Y-58080D03*
G54D28*
X85043Y-51433D03*
X85043Y-54189D03*
G54D29*
X79573Y-52796D03*
X82329Y-52796D03*
G54D16*
X78516Y-50994D03*
X78516Y-51565D03*
X77796Y-50994D03*
X77796Y-51565D03*
X76636Y-52514D03*
X76636Y-53085D03*
X87096Y-51394D03*
X87096Y-51965D03*
X87096Y-52714D03*
X87096Y-53285D03*
X88016Y-52714D03*
X88016Y-53285D03*
X75980Y-55620D03*
X75980Y-56190D03*
X75980Y-56801D03*
X75980Y-57372D03*
G54D19*
X76767Y-56791D03*
X76767Y-57381D03*
G54D16*
X79063Y-58745D03*
X79063Y-58174D03*
X80214Y-58763D03*
X80785Y-58763D03*
X78954Y-60843D03*
X79525Y-60843D03*
G54D19*
X83475Y-59716D03*
X82884Y-59716D03*
G54D16*
X83623Y-64225D03*
X83623Y-63654D03*
X78954Y-63643D03*
X79525Y-63643D03*
G54D30*
X91456Y-54485D03*
X91456Y-55235D03*
G54D31*
X74409Y-46850D03*
X90944Y-46850D03*
X90944Y-63385D03*
X74409Y-63385D03*
M02*
