G04 (created by PCBNEW (2013-jul-07)-stable) date Mon 11 May 2015 11:07:11 AM PDT*
%MOIN*%
G04 Gerber Fmt 3.4, Leading zero omitted, Abs format*
%FSLAX34Y34*%
G01*
G70*
G90*
G04 APERTURE LIST*
%ADD10C,0.006*%
%ADD11C,0.00787402*%
%ADD12C,0.00590551*%
%ADD13C,0.005*%
G04 APERTURE END LIST*
G54D10*
X73607Y-61161D02*
X73607Y-60861D01*
X73607Y-61004D02*
X73778Y-61004D01*
X73778Y-61161D02*
X73778Y-60861D01*
X73892Y-60861D02*
X73964Y-61161D01*
X74021Y-60947D01*
X74078Y-61161D01*
X74150Y-60861D01*
X74250Y-61147D02*
X74292Y-61161D01*
X74364Y-61161D01*
X74392Y-61147D01*
X74407Y-61132D01*
X74421Y-61104D01*
X74421Y-61075D01*
X74407Y-61047D01*
X74392Y-61032D01*
X74364Y-61018D01*
X74307Y-61004D01*
X74278Y-60990D01*
X74264Y-60975D01*
X74250Y-60947D01*
X74250Y-60918D01*
X74264Y-60890D01*
X74278Y-60875D01*
X74307Y-60861D01*
X74378Y-60861D01*
X74421Y-60875D01*
X74507Y-60861D02*
X74678Y-60861D01*
X74592Y-61161D02*
X74592Y-60861D01*
X74764Y-61075D02*
X74907Y-61075D01*
X74735Y-61161D02*
X74835Y-60861D01*
X74935Y-61161D01*
X75207Y-61161D02*
X75107Y-61018D01*
X75035Y-61161D02*
X75035Y-60861D01*
X75150Y-60861D01*
X75178Y-60875D01*
X75192Y-60890D01*
X75207Y-60918D01*
X75207Y-60961D01*
X75192Y-60990D01*
X75178Y-61004D01*
X75150Y-61018D01*
X75035Y-61018D01*
X73165Y-50247D02*
X73394Y-50247D01*
X73280Y-50361D02*
X73280Y-50132D01*
X73741Y-60341D02*
X73741Y-60398D01*
X73755Y-60427D01*
X73770Y-60441D01*
X73812Y-60469D01*
X73870Y-60484D01*
X73984Y-60484D01*
X74012Y-60469D01*
X74027Y-60455D01*
X74041Y-60427D01*
X74041Y-60369D01*
X74027Y-60341D01*
X74012Y-60327D01*
X73984Y-60312D01*
X73912Y-60312D01*
X73884Y-60327D01*
X73870Y-60341D01*
X73855Y-60369D01*
X73855Y-60427D01*
X73870Y-60455D01*
X73884Y-60469D01*
X73912Y-60484D01*
X73741Y-60227D02*
X74041Y-60127D01*
X73741Y-60027D01*
X74027Y-59712D02*
X74041Y-59670D01*
X74041Y-59598D01*
X74027Y-59570D01*
X74012Y-59555D01*
X73984Y-59541D01*
X73955Y-59541D01*
X73927Y-59555D01*
X73912Y-59570D01*
X73898Y-59598D01*
X73884Y-59655D01*
X73870Y-59684D01*
X73855Y-59698D01*
X73827Y-59712D01*
X73798Y-59712D01*
X73770Y-59698D01*
X73755Y-59684D01*
X73741Y-59655D01*
X73741Y-59584D01*
X73755Y-59541D01*
X73741Y-59355D02*
X73741Y-59298D01*
X73755Y-59270D01*
X73784Y-59241D01*
X73841Y-59227D01*
X73941Y-59227D01*
X73998Y-59241D01*
X74027Y-59270D01*
X74041Y-59298D01*
X74041Y-59355D01*
X74027Y-59384D01*
X73998Y-59412D01*
X73941Y-59427D01*
X73841Y-59427D01*
X73784Y-59412D01*
X73755Y-59384D01*
X73741Y-59355D01*
X74041Y-58955D02*
X74041Y-59098D01*
X73741Y-59098D01*
X73955Y-58870D02*
X73955Y-58727D01*
X74041Y-58898D02*
X73741Y-58798D01*
X74041Y-58698D01*
X74041Y-58427D02*
X73898Y-58527D01*
X74041Y-58598D02*
X73741Y-58598D01*
X73741Y-58484D01*
X73755Y-58455D01*
X73770Y-58441D01*
X73798Y-58427D01*
X73841Y-58427D01*
X73870Y-58441D01*
X73884Y-58455D01*
X73898Y-58484D01*
X73898Y-58598D01*
X74012Y-57898D02*
X74027Y-57912D01*
X74041Y-57955D01*
X74041Y-57984D01*
X74027Y-58027D01*
X73998Y-58055D01*
X73970Y-58070D01*
X73912Y-58084D01*
X73870Y-58084D01*
X73812Y-58070D01*
X73784Y-58055D01*
X73755Y-58027D01*
X73741Y-57984D01*
X73741Y-57955D01*
X73755Y-57912D01*
X73770Y-57898D01*
X74041Y-57770D02*
X73741Y-57770D01*
X73884Y-57770D02*
X73884Y-57598D01*
X74041Y-57598D02*
X73741Y-57598D01*
X73955Y-57470D02*
X73955Y-57327D01*
X74041Y-57498D02*
X73741Y-57398D01*
X74041Y-57298D01*
X74041Y-57027D02*
X73898Y-57127D01*
X74041Y-57198D02*
X73741Y-57198D01*
X73741Y-57084D01*
X73755Y-57055D01*
X73770Y-57041D01*
X73798Y-57027D01*
X73841Y-57027D01*
X73870Y-57041D01*
X73884Y-57055D01*
X73898Y-57084D01*
X73898Y-57198D01*
X73755Y-56741D02*
X73741Y-56770D01*
X73741Y-56812D01*
X73755Y-56855D01*
X73784Y-56884D01*
X73812Y-56898D01*
X73870Y-56912D01*
X73912Y-56912D01*
X73970Y-56898D01*
X73998Y-56884D01*
X74027Y-56855D01*
X74041Y-56812D01*
X74041Y-56784D01*
X74027Y-56741D01*
X74012Y-56727D01*
X73912Y-56727D01*
X73912Y-56784D01*
X73884Y-56598D02*
X73884Y-56498D01*
X74041Y-56455D02*
X74041Y-56598D01*
X73741Y-56598D01*
X73741Y-56455D01*
X74041Y-56155D02*
X73898Y-56255D01*
X74041Y-56327D02*
X73741Y-56327D01*
X73741Y-56212D01*
X73755Y-56184D01*
X73770Y-56170D01*
X73798Y-56155D01*
X73841Y-56155D01*
X73870Y-56170D01*
X73884Y-56184D01*
X73898Y-56212D01*
X73898Y-56327D01*
X74221Y-59691D02*
X74221Y-59748D01*
X74235Y-59777D01*
X74250Y-59791D01*
X74292Y-59819D01*
X74350Y-59834D01*
X74464Y-59834D01*
X74492Y-59819D01*
X74507Y-59805D01*
X74521Y-59777D01*
X74521Y-59719D01*
X74507Y-59691D01*
X74492Y-59677D01*
X74464Y-59662D01*
X74392Y-59662D01*
X74364Y-59677D01*
X74350Y-59691D01*
X74335Y-59719D01*
X74335Y-59777D01*
X74350Y-59805D01*
X74364Y-59819D01*
X74392Y-59834D01*
X74221Y-59405D02*
X74221Y-59462D01*
X74235Y-59491D01*
X74250Y-59505D01*
X74292Y-59534D01*
X74350Y-59548D01*
X74464Y-59548D01*
X74492Y-59534D01*
X74507Y-59519D01*
X74521Y-59491D01*
X74521Y-59434D01*
X74507Y-59405D01*
X74492Y-59391D01*
X74464Y-59377D01*
X74392Y-59377D01*
X74364Y-59391D01*
X74350Y-59405D01*
X74335Y-59434D01*
X74335Y-59491D01*
X74350Y-59519D01*
X74364Y-59534D01*
X74392Y-59548D01*
X74407Y-59248D02*
X74407Y-59019D01*
X74521Y-58719D02*
X74521Y-58891D01*
X74521Y-58805D02*
X74221Y-58805D01*
X74264Y-58834D01*
X74292Y-58862D01*
X74307Y-58891D01*
X74221Y-58534D02*
X74221Y-58505D01*
X74235Y-58477D01*
X74250Y-58462D01*
X74278Y-58448D01*
X74335Y-58434D01*
X74407Y-58434D01*
X74464Y-58448D01*
X74492Y-58462D01*
X74507Y-58477D01*
X74521Y-58505D01*
X74521Y-58534D01*
X74507Y-58562D01*
X74492Y-58577D01*
X74464Y-58591D01*
X74407Y-58605D01*
X74335Y-58605D01*
X74278Y-58591D01*
X74250Y-58577D01*
X74235Y-58562D01*
X74221Y-58534D01*
X74221Y-58248D02*
X74221Y-58219D01*
X74235Y-58191D01*
X74250Y-58177D01*
X74278Y-58162D01*
X74335Y-58148D01*
X74407Y-58148D01*
X74464Y-58162D01*
X74492Y-58177D01*
X74507Y-58191D01*
X74521Y-58219D01*
X74521Y-58248D01*
X74507Y-58277D01*
X74492Y-58291D01*
X74464Y-58305D01*
X74407Y-58319D01*
X74335Y-58319D01*
X74278Y-58305D01*
X74250Y-58291D01*
X74235Y-58277D01*
X74221Y-58248D01*
X74521Y-57862D02*
X74521Y-58034D01*
X74521Y-57948D02*
X74221Y-57948D01*
X74264Y-57977D01*
X74292Y-58005D01*
X74307Y-58034D01*
X74221Y-57677D02*
X74221Y-57648D01*
X74235Y-57620D01*
X74250Y-57605D01*
X74278Y-57591D01*
X74335Y-57577D01*
X74407Y-57577D01*
X74464Y-57591D01*
X74492Y-57605D01*
X74507Y-57620D01*
X74521Y-57648D01*
X74521Y-57677D01*
X74507Y-57705D01*
X74492Y-57720D01*
X74464Y-57734D01*
X74407Y-57748D01*
X74335Y-57748D01*
X74278Y-57734D01*
X74250Y-57720D01*
X74235Y-57705D01*
X74221Y-57677D01*
X74521Y-57291D02*
X74521Y-57462D01*
X74521Y-57377D02*
X74221Y-57377D01*
X74264Y-57405D01*
X74292Y-57434D01*
X74307Y-57462D01*
X74435Y-56948D02*
X74435Y-56805D01*
X74521Y-56977D02*
X74221Y-56877D01*
X74521Y-56777D01*
X74972Y-60105D02*
X74987Y-60119D01*
X75001Y-60162D01*
X75001Y-60191D01*
X74987Y-60234D01*
X74958Y-60262D01*
X74930Y-60277D01*
X74872Y-60291D01*
X74830Y-60291D01*
X74772Y-60277D01*
X74744Y-60262D01*
X74715Y-60234D01*
X74701Y-60191D01*
X74701Y-60162D01*
X74715Y-60119D01*
X74730Y-60105D01*
X74701Y-59919D02*
X74701Y-59862D01*
X74715Y-59834D01*
X74744Y-59805D01*
X74801Y-59791D01*
X74901Y-59791D01*
X74958Y-59805D01*
X74987Y-59834D01*
X75001Y-59862D01*
X75001Y-59919D01*
X74987Y-59948D01*
X74958Y-59977D01*
X74901Y-59991D01*
X74801Y-59991D01*
X74744Y-59977D01*
X74715Y-59948D01*
X74701Y-59919D01*
X75001Y-59662D02*
X74701Y-59662D01*
X74701Y-59548D01*
X74715Y-59519D01*
X74730Y-59505D01*
X74758Y-59491D01*
X74801Y-59491D01*
X74830Y-59505D01*
X74844Y-59519D01*
X74858Y-59548D01*
X74858Y-59662D01*
X74858Y-59305D02*
X75001Y-59305D01*
X74701Y-59405D02*
X74858Y-59305D01*
X74701Y-59205D01*
X75001Y-58934D02*
X74858Y-59034D01*
X75001Y-59105D02*
X74701Y-59105D01*
X74701Y-58991D01*
X74715Y-58962D01*
X74730Y-58948D01*
X74758Y-58934D01*
X74801Y-58934D01*
X74830Y-58948D01*
X74844Y-58962D01*
X74858Y-58991D01*
X74858Y-59105D01*
X75001Y-58805D02*
X74701Y-58805D01*
X74715Y-58505D02*
X74701Y-58534D01*
X74701Y-58577D01*
X74715Y-58619D01*
X74744Y-58648D01*
X74772Y-58662D01*
X74830Y-58677D01*
X74872Y-58677D01*
X74930Y-58662D01*
X74958Y-58648D01*
X74987Y-58619D01*
X75001Y-58577D01*
X75001Y-58548D01*
X74987Y-58505D01*
X74972Y-58491D01*
X74872Y-58491D01*
X74872Y-58548D01*
X75001Y-58362D02*
X74701Y-58362D01*
X74844Y-58362D02*
X74844Y-58191D01*
X75001Y-58191D02*
X74701Y-58191D01*
X74701Y-58091D02*
X74701Y-57919D01*
X75001Y-58005D02*
X74701Y-58005D01*
X74730Y-57605D02*
X74715Y-57591D01*
X74701Y-57562D01*
X74701Y-57491D01*
X74715Y-57462D01*
X74730Y-57448D01*
X74758Y-57434D01*
X74787Y-57434D01*
X74830Y-57448D01*
X75001Y-57619D01*
X75001Y-57434D01*
X74701Y-57248D02*
X74701Y-57219D01*
X74715Y-57191D01*
X74730Y-57177D01*
X74758Y-57162D01*
X74815Y-57148D01*
X74887Y-57148D01*
X74944Y-57162D01*
X74972Y-57177D01*
X74987Y-57191D01*
X75001Y-57219D01*
X75001Y-57248D01*
X74987Y-57277D01*
X74972Y-57291D01*
X74944Y-57305D01*
X74887Y-57319D01*
X74815Y-57319D01*
X74758Y-57305D01*
X74730Y-57291D01*
X74715Y-57277D01*
X74701Y-57248D01*
X75001Y-56862D02*
X75001Y-57034D01*
X75001Y-56948D02*
X74701Y-56948D01*
X74744Y-56977D01*
X74772Y-57005D01*
X74787Y-57034D01*
X74701Y-56591D02*
X74701Y-56734D01*
X74844Y-56748D01*
X74830Y-56734D01*
X74815Y-56705D01*
X74815Y-56634D01*
X74830Y-56605D01*
X74844Y-56591D01*
X74872Y-56577D01*
X74944Y-56577D01*
X74972Y-56591D01*
X74987Y-56605D01*
X75001Y-56634D01*
X75001Y-56705D01*
X74987Y-56734D01*
X74972Y-56748D01*
X75467Y-60405D02*
X75481Y-60362D01*
X75481Y-60291D01*
X75467Y-60262D01*
X75452Y-60248D01*
X75424Y-60234D01*
X75395Y-60234D01*
X75367Y-60248D01*
X75352Y-60262D01*
X75338Y-60291D01*
X75324Y-60348D01*
X75310Y-60377D01*
X75295Y-60391D01*
X75267Y-60405D01*
X75238Y-60405D01*
X75210Y-60391D01*
X75195Y-60377D01*
X75181Y-60348D01*
X75181Y-60277D01*
X75195Y-60234D01*
X75181Y-60148D02*
X75181Y-59977D01*
X75481Y-60062D02*
X75181Y-60062D01*
X75324Y-59877D02*
X75324Y-59777D01*
X75481Y-59734D02*
X75481Y-59877D01*
X75181Y-59877D01*
X75181Y-59734D01*
X75481Y-59605D02*
X75181Y-59605D01*
X75181Y-59491D01*
X75195Y-59462D01*
X75210Y-59448D01*
X75238Y-59434D01*
X75281Y-59434D01*
X75310Y-59448D01*
X75324Y-59462D01*
X75338Y-59491D01*
X75338Y-59605D01*
X75481Y-59305D02*
X75181Y-59305D01*
X75324Y-59305D02*
X75324Y-59134D01*
X75481Y-59134D02*
X75181Y-59134D01*
X75324Y-58991D02*
X75324Y-58891D01*
X75481Y-58848D02*
X75481Y-58991D01*
X75181Y-58991D01*
X75181Y-58848D01*
X75481Y-58719D02*
X75181Y-58719D01*
X75481Y-58548D01*
X75181Y-58548D01*
X75481Y-58005D02*
X75338Y-58105D01*
X75481Y-58177D02*
X75181Y-58177D01*
X75181Y-58062D01*
X75195Y-58034D01*
X75210Y-58020D01*
X75238Y-58005D01*
X75281Y-58005D01*
X75310Y-58020D01*
X75324Y-58034D01*
X75338Y-58062D01*
X75338Y-58177D01*
X75181Y-57820D02*
X75181Y-57762D01*
X75195Y-57734D01*
X75224Y-57705D01*
X75281Y-57691D01*
X75381Y-57691D01*
X75438Y-57705D01*
X75467Y-57734D01*
X75481Y-57762D01*
X75481Y-57820D01*
X75467Y-57848D01*
X75438Y-57877D01*
X75381Y-57891D01*
X75281Y-57891D01*
X75224Y-57877D01*
X75195Y-57848D01*
X75181Y-57820D01*
X75481Y-57562D02*
X75181Y-57562D01*
X75181Y-57491D01*
X75195Y-57448D01*
X75224Y-57419D01*
X75252Y-57405D01*
X75310Y-57391D01*
X75352Y-57391D01*
X75410Y-57405D01*
X75438Y-57419D01*
X75467Y-57448D01*
X75481Y-57491D01*
X75481Y-57562D01*
X75195Y-57105D02*
X75181Y-57134D01*
X75181Y-57177D01*
X75195Y-57219D01*
X75224Y-57248D01*
X75252Y-57262D01*
X75310Y-57277D01*
X75352Y-57277D01*
X75410Y-57262D01*
X75438Y-57248D01*
X75467Y-57219D01*
X75481Y-57177D01*
X75481Y-57148D01*
X75467Y-57105D01*
X75452Y-57091D01*
X75352Y-57091D01*
X75352Y-57148D01*
X75324Y-56962D02*
X75324Y-56862D01*
X75481Y-56819D02*
X75481Y-56962D01*
X75181Y-56962D01*
X75181Y-56819D01*
X75481Y-56519D02*
X75338Y-56619D01*
X75481Y-56691D02*
X75181Y-56691D01*
X75181Y-56577D01*
X75195Y-56548D01*
X75210Y-56534D01*
X75238Y-56519D01*
X75281Y-56519D01*
X75310Y-56534D01*
X75324Y-56548D01*
X75338Y-56577D01*
X75338Y-56691D01*
X75467Y-56405D02*
X75481Y-56362D01*
X75481Y-56291D01*
X75467Y-56262D01*
X75452Y-56248D01*
X75424Y-56234D01*
X75395Y-56234D01*
X75367Y-56248D01*
X75352Y-56262D01*
X75338Y-56291D01*
X75324Y-56348D01*
X75310Y-56377D01*
X75295Y-56391D01*
X75267Y-56405D01*
X75238Y-56405D01*
X75210Y-56391D01*
X75195Y-56377D01*
X75181Y-56348D01*
X75181Y-56277D01*
X75195Y-56234D01*
X84841Y-59765D02*
X84841Y-59908D01*
X84541Y-59908D01*
X84541Y-59608D02*
X84541Y-59551D01*
X84555Y-59522D01*
X84584Y-59494D01*
X84641Y-59480D01*
X84741Y-59480D01*
X84798Y-59494D01*
X84827Y-59522D01*
X84841Y-59551D01*
X84841Y-59608D01*
X84827Y-59637D01*
X84798Y-59665D01*
X84741Y-59680D01*
X84641Y-59680D01*
X84584Y-59665D01*
X84555Y-59637D01*
X84541Y-59608D01*
X84755Y-59365D02*
X84755Y-59222D01*
X84841Y-59394D02*
X84541Y-59294D01*
X84841Y-59194D01*
X84841Y-59094D02*
X84541Y-59094D01*
X84541Y-59022D01*
X84555Y-58980D01*
X84584Y-58951D01*
X84612Y-58937D01*
X84670Y-58922D01*
X84712Y-58922D01*
X84770Y-58937D01*
X84798Y-58951D01*
X84827Y-58980D01*
X84841Y-59022D01*
X84841Y-59094D01*
X84827Y-58808D02*
X84841Y-58765D01*
X84841Y-58694D01*
X84827Y-58665D01*
X84812Y-58651D01*
X84784Y-58637D01*
X84755Y-58637D01*
X84727Y-58651D01*
X84712Y-58665D01*
X84698Y-58694D01*
X84684Y-58751D01*
X84670Y-58780D01*
X84655Y-58794D01*
X84627Y-58808D01*
X84598Y-58808D01*
X84570Y-58794D01*
X84555Y-58780D01*
X84541Y-58751D01*
X84541Y-58680D01*
X84555Y-58637D01*
X87182Y-54987D02*
X87225Y-55001D01*
X87297Y-55001D01*
X87325Y-54987D01*
X87340Y-54972D01*
X87354Y-54944D01*
X87354Y-54915D01*
X87340Y-54887D01*
X87325Y-54872D01*
X87297Y-54858D01*
X87240Y-54844D01*
X87211Y-54830D01*
X87197Y-54815D01*
X87182Y-54787D01*
X87182Y-54758D01*
X87197Y-54730D01*
X87211Y-54715D01*
X87240Y-54701D01*
X87311Y-54701D01*
X87354Y-54715D01*
X87482Y-54844D02*
X87582Y-54844D01*
X87625Y-55001D02*
X87482Y-55001D01*
X87482Y-54701D01*
X87625Y-54701D01*
X87754Y-55001D02*
X87754Y-54701D01*
X87925Y-55001D01*
X87925Y-54701D01*
X88054Y-54987D02*
X88097Y-55001D01*
X88168Y-55001D01*
X88197Y-54987D01*
X88211Y-54972D01*
X88225Y-54944D01*
X88225Y-54915D01*
X88211Y-54887D01*
X88197Y-54872D01*
X88168Y-54858D01*
X88111Y-54844D01*
X88082Y-54830D01*
X88068Y-54815D01*
X88054Y-54787D01*
X88054Y-54758D01*
X88068Y-54730D01*
X88082Y-54715D01*
X88111Y-54701D01*
X88182Y-54701D01*
X88225Y-54715D01*
X88354Y-54844D02*
X88454Y-54844D01*
X88497Y-55001D02*
X88354Y-55001D01*
X88354Y-54701D01*
X88497Y-54701D01*
X75880Y-60409D02*
X75894Y-60424D01*
X75908Y-60467D01*
X75908Y-60495D01*
X75894Y-60538D01*
X75865Y-60567D01*
X75837Y-60581D01*
X75780Y-60595D01*
X75737Y-60595D01*
X75680Y-60581D01*
X75651Y-60567D01*
X75623Y-60538D01*
X75608Y-60495D01*
X75608Y-60467D01*
X75623Y-60424D01*
X75637Y-60409D01*
X75608Y-60224D02*
X75608Y-60167D01*
X75623Y-60138D01*
X75651Y-60109D01*
X75708Y-60095D01*
X75808Y-60095D01*
X75865Y-60109D01*
X75894Y-60138D01*
X75908Y-60167D01*
X75908Y-60224D01*
X75894Y-60252D01*
X75865Y-60281D01*
X75808Y-60295D01*
X75708Y-60295D01*
X75651Y-60281D01*
X75623Y-60252D01*
X75608Y-60224D01*
X75908Y-59967D02*
X75608Y-59967D01*
X75908Y-59795D01*
X75608Y-59795D01*
X75608Y-59695D02*
X75608Y-59524D01*
X75908Y-59609D02*
X75608Y-59609D01*
X75908Y-59252D02*
X75765Y-59352D01*
X75908Y-59424D02*
X75608Y-59424D01*
X75608Y-59309D01*
X75623Y-59281D01*
X75637Y-59267D01*
X75665Y-59252D01*
X75708Y-59252D01*
X75737Y-59267D01*
X75751Y-59281D01*
X75765Y-59309D01*
X75765Y-59424D01*
X75608Y-59067D02*
X75608Y-59009D01*
X75623Y-58981D01*
X75651Y-58952D01*
X75708Y-58938D01*
X75808Y-58938D01*
X75865Y-58952D01*
X75894Y-58981D01*
X75908Y-59009D01*
X75908Y-59067D01*
X75894Y-59095D01*
X75865Y-59124D01*
X75808Y-59138D01*
X75708Y-59138D01*
X75651Y-59124D01*
X75623Y-59095D01*
X75608Y-59067D01*
X75908Y-58667D02*
X75908Y-58809D01*
X75608Y-58809D01*
X89165Y-49367D02*
X89394Y-49367D01*
X89280Y-49481D02*
X89280Y-49252D01*
X76921Y-51181D02*
X76621Y-51181D01*
X76621Y-51067D01*
X76635Y-51038D01*
X76650Y-51024D01*
X76678Y-51010D01*
X76721Y-51010D01*
X76750Y-51024D01*
X76764Y-51038D01*
X76778Y-51067D01*
X76778Y-51181D01*
X76835Y-50895D02*
X76835Y-50752D01*
X76921Y-50924D02*
X76621Y-50824D01*
X76921Y-50724D01*
X76921Y-50624D02*
X76621Y-50624D01*
X76921Y-50452D01*
X76621Y-50452D01*
X76764Y-50309D02*
X76764Y-50209D01*
X76921Y-50167D02*
X76921Y-50309D01*
X76621Y-50309D01*
X76621Y-50167D01*
X76921Y-49895D02*
X76921Y-50038D01*
X76621Y-50038D01*
X89244Y-50655D02*
X89258Y-50612D01*
X89272Y-50598D01*
X89301Y-50584D01*
X89344Y-50584D01*
X89372Y-50598D01*
X89387Y-50612D01*
X89401Y-50641D01*
X89401Y-50755D01*
X89101Y-50755D01*
X89101Y-50655D01*
X89115Y-50627D01*
X89130Y-50612D01*
X89158Y-50598D01*
X89187Y-50598D01*
X89215Y-50612D01*
X89230Y-50627D01*
X89244Y-50655D01*
X89244Y-50755D01*
X89315Y-50469D02*
X89315Y-50327D01*
X89401Y-50498D02*
X89101Y-50398D01*
X89401Y-50298D01*
X89101Y-50241D02*
X89101Y-50069D01*
X89401Y-50155D02*
X89101Y-50155D01*
X89101Y-50012D02*
X89101Y-49841D01*
X89401Y-49927D02*
X89101Y-49927D01*
X83334Y-56036D02*
X83305Y-56022D01*
X83262Y-56022D01*
X83220Y-56036D01*
X83191Y-56065D01*
X83177Y-56093D01*
X83162Y-56150D01*
X83162Y-56193D01*
X83177Y-56250D01*
X83191Y-56279D01*
X83220Y-56307D01*
X83262Y-56322D01*
X83291Y-56322D01*
X83334Y-56307D01*
X83348Y-56293D01*
X83348Y-56193D01*
X83291Y-56193D01*
X83477Y-56322D02*
X83477Y-56022D01*
X83648Y-56322D01*
X83648Y-56022D01*
X83791Y-56322D02*
X83791Y-56022D01*
X83862Y-56022D01*
X83905Y-56036D01*
X83934Y-56065D01*
X83948Y-56093D01*
X83962Y-56150D01*
X83962Y-56193D01*
X83948Y-56250D01*
X83934Y-56279D01*
X83905Y-56307D01*
X83862Y-56322D01*
X83791Y-56322D01*
G54D11*
X75654Y-63385D02*
G75*
G03X75654Y-63385I-1244J0D01*
G74*
G01*
X92189Y-63385D02*
G75*
G03X92189Y-63385I-1244J0D01*
G74*
G01*
X92125Y-46850D02*
G75*
G03X92125Y-46850I-1181J0D01*
G74*
G01*
X75590Y-46850D02*
G75*
G03X75590Y-46850I-1181J0D01*
G74*
G01*
G54D12*
X73487Y-52124D02*
X74432Y-52124D01*
X73487Y-52242D02*
X74432Y-52242D01*
X73487Y-55075D02*
X74432Y-55075D01*
G54D10*
X73956Y-53817D02*
X73956Y-53915D01*
X73487Y-55077D02*
X73487Y-52124D01*
X74432Y-55077D02*
X74432Y-52124D01*
X73956Y-53550D02*
X73769Y-53800D01*
X73769Y-53800D02*
X73956Y-53800D01*
X73956Y-53800D02*
X74143Y-53800D01*
X74143Y-53800D02*
X73956Y-53550D01*
X73956Y-53550D02*
X73831Y-53550D01*
X73831Y-53550D02*
X73769Y-53612D01*
X73956Y-53550D02*
X74081Y-53550D01*
X74081Y-53550D02*
X74143Y-53488D01*
X73956Y-53550D02*
X73956Y-53404D01*
G54D12*
X86535Y-48070D02*
X87480Y-48070D01*
X86535Y-48188D02*
X87480Y-48188D01*
X86535Y-51021D02*
X87480Y-51021D01*
G54D10*
X87003Y-49763D02*
X87003Y-49862D01*
X86535Y-51023D02*
X86535Y-48070D01*
X87480Y-51023D02*
X87480Y-48070D01*
X87003Y-49496D02*
X86816Y-49746D01*
X86816Y-49746D02*
X87003Y-49746D01*
X87003Y-49746D02*
X87190Y-49746D01*
X87190Y-49746D02*
X87003Y-49496D01*
X87003Y-49496D02*
X86878Y-49496D01*
X86878Y-49496D02*
X86816Y-49558D01*
X87003Y-49496D02*
X87128Y-49496D01*
X87128Y-49496D02*
X87190Y-49434D01*
X87003Y-49496D02*
X87003Y-49350D01*
G54D12*
X78995Y-47687D02*
X78995Y-48632D01*
X78877Y-47687D02*
X78877Y-48632D01*
X76044Y-47687D02*
X76044Y-48632D01*
G54D10*
X77302Y-48156D02*
X77204Y-48156D01*
X76042Y-47687D02*
X78995Y-47687D01*
X76042Y-48632D02*
X78995Y-48632D01*
X77569Y-48156D02*
X77319Y-47969D01*
X77319Y-47969D02*
X77319Y-48156D01*
X77319Y-48156D02*
X77319Y-48343D01*
X77319Y-48343D02*
X77569Y-48156D01*
X77569Y-48156D02*
X77569Y-48031D01*
X77569Y-48031D02*
X77507Y-47969D01*
X77569Y-48156D02*
X77569Y-48281D01*
X77569Y-48281D02*
X77631Y-48343D01*
X77569Y-48156D02*
X77715Y-48156D01*
X84563Y-49007D02*
X84094Y-49007D01*
X84094Y-49007D02*
X84094Y-48232D01*
X84094Y-48232D02*
X84563Y-48232D01*
X84963Y-48232D02*
X85429Y-48232D01*
X85429Y-48232D02*
X85429Y-49007D01*
G54D12*
X85429Y-49007D02*
X84963Y-49007D01*
G54D13*
X85190Y-47900D02*
X84490Y-47900D01*
X84490Y-47900D02*
X84490Y-46700D01*
X84490Y-46700D02*
X85190Y-46700D01*
X85190Y-46700D02*
X85190Y-47900D01*
X83510Y-61360D02*
X82810Y-61360D01*
X82810Y-61360D02*
X82810Y-60160D01*
X82810Y-60160D02*
X83510Y-60160D01*
X83510Y-60160D02*
X83510Y-61360D01*
G54D10*
X82903Y-62407D02*
X82434Y-62407D01*
X82434Y-62407D02*
X82434Y-61632D01*
X82434Y-61632D02*
X82903Y-61632D01*
X83303Y-61632D02*
X83769Y-61632D01*
X83769Y-61632D02*
X83769Y-62407D01*
G54D12*
X83769Y-62407D02*
X83303Y-62407D01*
G54D13*
X90120Y-53390D02*
X90120Y-52690D01*
X90120Y-52690D02*
X91320Y-52690D01*
X91320Y-52690D02*
X91320Y-53390D01*
X91320Y-53390D02*
X90120Y-53390D01*
G54D10*
X90550Y-54264D02*
X90550Y-53877D01*
X90550Y-53877D02*
X89969Y-53877D01*
X89969Y-53877D02*
X89969Y-54264D01*
X90550Y-55042D02*
X90550Y-54658D01*
X90550Y-55042D02*
X89969Y-55042D01*
X89969Y-55042D02*
X89969Y-54658D01*
X89315Y-52790D02*
X89702Y-52790D01*
X89702Y-52790D02*
X89702Y-52209D01*
X89702Y-52209D02*
X89315Y-52209D01*
X88537Y-52790D02*
X88921Y-52790D01*
X88537Y-52790D02*
X88537Y-52209D01*
X88537Y-52209D02*
X88921Y-52209D01*
X83445Y-48080D02*
G75*
G03X83445Y-48080I-2165J0D01*
G74*
G01*
G54D13*
X88596Y-47840D02*
X89246Y-47840D01*
X89246Y-47840D02*
X89246Y-46240D01*
X89246Y-46240D02*
X88596Y-46240D01*
X86884Y-46240D02*
X86234Y-46240D01*
X86234Y-46240D02*
X86234Y-47840D01*
X86234Y-47840D02*
X86884Y-47840D01*
G54D10*
X84975Y-46470D02*
X85362Y-46470D01*
X85362Y-46470D02*
X85362Y-45889D01*
X85362Y-45889D02*
X84975Y-45889D01*
X84197Y-46470D02*
X84581Y-46470D01*
X84197Y-46470D02*
X84197Y-45889D01*
X84197Y-45889D02*
X84581Y-45889D01*
X75198Y-49503D02*
X75572Y-49503D01*
X74804Y-49503D02*
X74431Y-49503D01*
X75198Y-48936D02*
X75572Y-48936D01*
X74431Y-48936D02*
X74804Y-48936D01*
X75572Y-48936D02*
X75572Y-49503D01*
X74431Y-49503D02*
X74431Y-48936D01*
G54D12*
X73563Y-49854D02*
X76476Y-49854D01*
X76476Y-49854D02*
X76476Y-52118D01*
X76476Y-52118D02*
X73563Y-52118D01*
X73563Y-52118D02*
X73563Y-49854D01*
G54D10*
X78671Y-49650D02*
X78671Y-49989D01*
X77646Y-49650D02*
X77646Y-49989D01*
X78671Y-49989D02*
X77646Y-49989D01*
X77646Y-49650D02*
X78671Y-49650D01*
X77268Y-52949D02*
X77268Y-52610D01*
X78293Y-52949D02*
X78293Y-52610D01*
X77268Y-52610D02*
X78293Y-52610D01*
X78293Y-52949D02*
X77268Y-52949D01*
X77228Y-55109D02*
X77228Y-54770D01*
X78253Y-55109D02*
X78253Y-54770D01*
X77228Y-54770D02*
X78253Y-54770D01*
X78253Y-55109D02*
X77228Y-55109D01*
X79910Y-54948D02*
X80249Y-54948D01*
X79910Y-55973D02*
X80249Y-55973D01*
X80249Y-54948D02*
X80249Y-55973D01*
X79910Y-55973D02*
X79910Y-54948D01*
X79511Y-56610D02*
X79511Y-56949D01*
X78486Y-56610D02*
X78486Y-56949D01*
X79511Y-56949D02*
X78486Y-56949D01*
X78486Y-56610D02*
X79511Y-56610D01*
X85229Y-64451D02*
X84890Y-64451D01*
X85229Y-63426D02*
X84890Y-63426D01*
X84890Y-64451D02*
X84890Y-63426D01*
X85229Y-63426D02*
X85229Y-64451D01*
X85006Y-62858D02*
X86506Y-62858D01*
X86506Y-62858D02*
X86506Y-62158D01*
X86506Y-62158D02*
X85006Y-62158D01*
X85006Y-62858D02*
X85006Y-62158D01*
X86786Y-62858D02*
X88286Y-62858D01*
X88286Y-62858D02*
X88286Y-62158D01*
X88286Y-62158D02*
X86786Y-62158D01*
X86786Y-62858D02*
X86786Y-62158D01*
X86766Y-64418D02*
X88266Y-64418D01*
X88266Y-64418D02*
X88266Y-63718D01*
X88266Y-63718D02*
X86766Y-63718D01*
X86766Y-64418D02*
X86766Y-63718D01*
X81309Y-64491D02*
X80970Y-64491D01*
X81309Y-63466D02*
X80970Y-63466D01*
X80970Y-64491D02*
X80970Y-63466D01*
X81309Y-63466D02*
X81309Y-64491D01*
G54D12*
X85034Y-61568D02*
X85034Y-57671D01*
X85034Y-57671D02*
X87298Y-57671D01*
X87298Y-57671D02*
X87298Y-61568D01*
X87298Y-61568D02*
X85034Y-61568D01*
X87454Y-61568D02*
X87454Y-57671D01*
X87454Y-57671D02*
X89718Y-57671D01*
X89718Y-57671D02*
X89718Y-61568D01*
X89718Y-61568D02*
X87454Y-61568D01*
X89874Y-61568D02*
X89874Y-57671D01*
X89874Y-57671D02*
X92138Y-57671D01*
X92138Y-57671D02*
X92138Y-61568D01*
X92138Y-61568D02*
X89874Y-61568D01*
X89940Y-57425D02*
X85059Y-57425D01*
X85059Y-57425D02*
X85059Y-55161D01*
X85059Y-55161D02*
X89940Y-55161D01*
X89429Y-55161D02*
X89448Y-55161D01*
X89940Y-55161D02*
X89940Y-57425D01*
X76074Y-64745D02*
X76074Y-57894D01*
X76074Y-57894D02*
X78338Y-57894D01*
X78338Y-57894D02*
X78338Y-64745D01*
X78338Y-63249D02*
X78338Y-63268D01*
X78338Y-64745D02*
X76074Y-64745D01*
X91870Y-48937D02*
X91870Y-51850D01*
X91870Y-51850D02*
X89606Y-51850D01*
X89606Y-51850D02*
X89606Y-48937D01*
X89606Y-48937D02*
X91870Y-48937D01*
G54D10*
X84402Y-58076D02*
G75*
G03X84402Y-58076I-790J0D01*
G74*
G01*
G54D13*
X84640Y-54300D02*
X85440Y-54300D01*
X85590Y-54250D02*
X84490Y-54250D01*
X84390Y-54200D02*
X85690Y-54200D01*
X85790Y-54150D02*
X84290Y-54150D01*
X85840Y-54100D02*
X84240Y-54100D01*
X84140Y-54050D02*
X85940Y-54050D01*
G54D10*
X86586Y-52788D02*
G75*
G03X86586Y-52788I-1550J0D01*
G74*
G01*
X83386Y-54438D02*
X86686Y-54438D01*
X86686Y-54438D02*
X86686Y-51438D01*
X86686Y-51438D02*
X86386Y-51138D01*
X86386Y-51138D02*
X83686Y-51138D01*
X83686Y-51138D02*
X83386Y-51438D01*
X83386Y-51438D02*
X83386Y-54438D01*
G54D13*
X85040Y-51350D02*
X85040Y-51650D01*
X84890Y-51500D02*
X85190Y-51500D01*
X82440Y-53200D02*
X82440Y-52400D01*
X82390Y-52250D02*
X82390Y-53350D01*
X82340Y-53450D02*
X82340Y-52150D01*
X82290Y-52050D02*
X82290Y-53550D01*
X82240Y-52000D02*
X82240Y-53600D01*
X82190Y-53700D02*
X82190Y-51900D01*
G54D10*
X82478Y-52803D02*
G75*
G03X82478Y-52803I-1550J0D01*
G74*
G01*
X82578Y-54453D02*
X82578Y-51153D01*
X82578Y-51153D02*
X79578Y-51153D01*
X79578Y-51153D02*
X79278Y-51453D01*
X79278Y-51453D02*
X79278Y-54153D01*
X79278Y-54153D02*
X79578Y-54453D01*
X79578Y-54453D02*
X82578Y-54453D01*
G54D13*
X79490Y-52800D02*
X79790Y-52800D01*
X79640Y-52950D02*
X79640Y-52650D01*
G54D10*
X78810Y-51084D02*
X78810Y-50697D01*
X78810Y-50697D02*
X78229Y-50697D01*
X78229Y-50697D02*
X78229Y-51084D01*
X78810Y-51862D02*
X78810Y-51478D01*
X78810Y-51862D02*
X78229Y-51862D01*
X78229Y-51862D02*
X78229Y-51478D01*
X78090Y-51084D02*
X78090Y-50697D01*
X78090Y-50697D02*
X77509Y-50697D01*
X77509Y-50697D02*
X77509Y-51084D01*
X78090Y-51862D02*
X78090Y-51478D01*
X78090Y-51862D02*
X77509Y-51862D01*
X77509Y-51862D02*
X77509Y-51478D01*
X76930Y-52604D02*
X76930Y-52217D01*
X76930Y-52217D02*
X76349Y-52217D01*
X76349Y-52217D02*
X76349Y-52604D01*
X76930Y-53382D02*
X76930Y-52998D01*
X76930Y-53382D02*
X76349Y-53382D01*
X76349Y-53382D02*
X76349Y-52998D01*
X87390Y-51484D02*
X87390Y-51097D01*
X87390Y-51097D02*
X86809Y-51097D01*
X86809Y-51097D02*
X86809Y-51484D01*
X87390Y-52262D02*
X87390Y-51878D01*
X87390Y-52262D02*
X86809Y-52262D01*
X86809Y-52262D02*
X86809Y-51878D01*
X87390Y-52804D02*
X87390Y-52417D01*
X87390Y-52417D02*
X86809Y-52417D01*
X86809Y-52417D02*
X86809Y-52804D01*
X87390Y-53582D02*
X87390Y-53198D01*
X87390Y-53582D02*
X86809Y-53582D01*
X86809Y-53582D02*
X86809Y-53198D01*
X88310Y-52804D02*
X88310Y-52417D01*
X88310Y-52417D02*
X87729Y-52417D01*
X87729Y-52417D02*
X87729Y-52804D01*
X88310Y-53582D02*
X88310Y-53198D01*
X88310Y-53582D02*
X87729Y-53582D01*
X87729Y-53582D02*
X87729Y-53198D01*
X76275Y-55710D02*
X76275Y-55322D01*
X76275Y-55322D02*
X75693Y-55322D01*
X75693Y-55322D02*
X75693Y-55710D01*
X76275Y-56488D02*
X76275Y-56104D01*
X76275Y-56488D02*
X75693Y-56488D01*
X75693Y-56488D02*
X75693Y-56104D01*
X76275Y-56891D02*
X76275Y-56503D01*
X76275Y-56503D02*
X75693Y-56503D01*
X75693Y-56503D02*
X75693Y-56891D01*
X76275Y-57669D02*
X76275Y-57285D01*
X76275Y-57669D02*
X75693Y-57669D01*
X75693Y-57669D02*
X75693Y-57285D01*
X76488Y-57285D02*
X76488Y-57659D01*
X76488Y-56891D02*
X76488Y-56517D01*
X77055Y-57285D02*
X77055Y-57659D01*
X77055Y-56517D02*
X77055Y-56891D01*
X77055Y-57659D02*
X76488Y-57659D01*
X76488Y-56517D02*
X77055Y-56517D01*
X78769Y-58655D02*
X78769Y-59042D01*
X78769Y-59042D02*
X79350Y-59042D01*
X79350Y-59042D02*
X79350Y-58655D01*
X78769Y-57877D02*
X78769Y-58261D01*
X78769Y-57877D02*
X79350Y-57877D01*
X79350Y-57877D02*
X79350Y-58261D01*
X80304Y-58469D02*
X79917Y-58469D01*
X79917Y-58469D02*
X79917Y-59050D01*
X79917Y-59050D02*
X80304Y-59050D01*
X81082Y-58469D02*
X80698Y-58469D01*
X81082Y-58469D02*
X81082Y-59050D01*
X81082Y-59050D02*
X80698Y-59050D01*
X79044Y-60549D02*
X78657Y-60549D01*
X78657Y-60549D02*
X78657Y-61130D01*
X78657Y-61130D02*
X79044Y-61130D01*
X79822Y-60549D02*
X79438Y-60549D01*
X79822Y-60549D02*
X79822Y-61130D01*
X79822Y-61130D02*
X79438Y-61130D01*
X82981Y-59436D02*
X82607Y-59436D01*
X83375Y-59436D02*
X83748Y-59436D01*
X82981Y-60003D02*
X82607Y-60003D01*
X83748Y-60003D02*
X83375Y-60003D01*
X82607Y-60003D02*
X82607Y-59436D01*
X83748Y-59436D02*
X83748Y-60003D01*
X83329Y-64135D02*
X83329Y-64522D01*
X83329Y-64522D02*
X83910Y-64522D01*
X83910Y-64522D02*
X83910Y-64135D01*
X83329Y-63357D02*
X83329Y-63741D01*
X83329Y-63357D02*
X83910Y-63357D01*
X83910Y-63357D02*
X83910Y-63741D01*
X79044Y-63349D02*
X78657Y-63349D01*
X78657Y-63349D02*
X78657Y-63930D01*
X78657Y-63930D02*
X79044Y-63930D01*
X79822Y-63349D02*
X79438Y-63349D01*
X79822Y-63349D02*
X79822Y-63930D01*
X79822Y-63930D02*
X79438Y-63930D01*
X91081Y-54661D02*
X91081Y-54183D01*
X91081Y-54183D02*
X91838Y-54183D01*
X91838Y-54183D02*
X91838Y-54661D01*
X91838Y-55061D02*
X91838Y-55540D01*
X91838Y-55540D02*
X91081Y-55540D01*
X91081Y-55540D02*
X91081Y-55061D01*
X74797Y-53743D02*
X74811Y-53757D01*
X74826Y-53800D01*
X74826Y-53829D01*
X74811Y-53871D01*
X74783Y-53900D01*
X74754Y-53914D01*
X74697Y-53929D01*
X74654Y-53929D01*
X74597Y-53914D01*
X74569Y-53900D01*
X74540Y-53871D01*
X74526Y-53829D01*
X74526Y-53800D01*
X74540Y-53757D01*
X74554Y-53743D01*
X74826Y-53443D02*
X74683Y-53543D01*
X74826Y-53614D02*
X74526Y-53614D01*
X74526Y-53500D01*
X74540Y-53471D01*
X74554Y-53457D01*
X74583Y-53443D01*
X74626Y-53443D01*
X74654Y-53457D01*
X74669Y-53471D01*
X74683Y-53500D01*
X74683Y-53614D01*
X74626Y-53186D02*
X74826Y-53186D01*
X74511Y-53257D02*
X74726Y-53329D01*
X74726Y-53143D01*
X86313Y-49707D02*
X86327Y-49722D01*
X86341Y-49765D01*
X86341Y-49793D01*
X86327Y-49836D01*
X86299Y-49865D01*
X86270Y-49879D01*
X86213Y-49893D01*
X86170Y-49893D01*
X86113Y-49879D01*
X86084Y-49865D01*
X86056Y-49836D01*
X86041Y-49793D01*
X86041Y-49765D01*
X86056Y-49722D01*
X86070Y-49707D01*
X86341Y-49407D02*
X86199Y-49507D01*
X86341Y-49579D02*
X86041Y-49579D01*
X86041Y-49465D01*
X86056Y-49436D01*
X86070Y-49422D01*
X86099Y-49407D01*
X86141Y-49407D01*
X86170Y-49422D01*
X86184Y-49436D01*
X86199Y-49465D01*
X86199Y-49579D01*
X86070Y-49293D02*
X86056Y-49279D01*
X86041Y-49250D01*
X86041Y-49179D01*
X86056Y-49150D01*
X86070Y-49136D01*
X86099Y-49122D01*
X86127Y-49122D01*
X86170Y-49136D01*
X86341Y-49307D01*
X86341Y-49122D01*
X76965Y-47533D02*
X76951Y-47548D01*
X76908Y-47562D01*
X76879Y-47562D01*
X76836Y-47548D01*
X76808Y-47519D01*
X76793Y-47490D01*
X76779Y-47433D01*
X76779Y-47390D01*
X76793Y-47333D01*
X76808Y-47305D01*
X76836Y-47276D01*
X76879Y-47262D01*
X76908Y-47262D01*
X76951Y-47276D01*
X76965Y-47290D01*
X77265Y-47562D02*
X77165Y-47419D01*
X77093Y-47562D02*
X77093Y-47262D01*
X77208Y-47262D01*
X77236Y-47276D01*
X77251Y-47290D01*
X77265Y-47319D01*
X77265Y-47362D01*
X77251Y-47390D01*
X77236Y-47405D01*
X77208Y-47419D01*
X77093Y-47419D01*
X77365Y-47262D02*
X77551Y-47262D01*
X77451Y-47376D01*
X77493Y-47376D01*
X77522Y-47390D01*
X77536Y-47405D01*
X77551Y-47433D01*
X77551Y-47505D01*
X77536Y-47533D01*
X77522Y-47548D01*
X77493Y-47562D01*
X77408Y-47562D01*
X77379Y-47548D01*
X77365Y-47533D01*
X84694Y-49432D02*
X84594Y-49289D01*
X84522Y-49432D02*
X84522Y-49132D01*
X84636Y-49132D01*
X84665Y-49146D01*
X84679Y-49161D01*
X84694Y-49189D01*
X84694Y-49232D01*
X84679Y-49261D01*
X84665Y-49275D01*
X84636Y-49289D01*
X84522Y-49289D01*
X84979Y-49432D02*
X84808Y-49432D01*
X84894Y-49432D02*
X84894Y-49132D01*
X84865Y-49175D01*
X84836Y-49203D01*
X84808Y-49218D01*
X85598Y-48049D02*
X85598Y-48292D01*
X85612Y-48321D01*
X85626Y-48335D01*
X85655Y-48349D01*
X85712Y-48349D01*
X85741Y-48335D01*
X85755Y-48321D01*
X85769Y-48292D01*
X85769Y-48049D01*
X86069Y-48349D02*
X85898Y-48349D01*
X85983Y-48349D02*
X85983Y-48049D01*
X85955Y-48092D01*
X85926Y-48121D01*
X85898Y-48135D01*
X84023Y-61337D02*
X84023Y-61580D01*
X84037Y-61608D01*
X84051Y-61622D01*
X84080Y-61637D01*
X84137Y-61637D01*
X84166Y-61622D01*
X84180Y-61608D01*
X84194Y-61580D01*
X84194Y-61337D01*
X84323Y-61365D02*
X84337Y-61351D01*
X84366Y-61337D01*
X84437Y-61337D01*
X84466Y-61351D01*
X84480Y-61365D01*
X84494Y-61394D01*
X84494Y-61422D01*
X84480Y-61465D01*
X84309Y-61637D01*
X84494Y-61637D01*
X82036Y-62129D02*
X81936Y-61986D01*
X81865Y-62129D02*
X81865Y-61829D01*
X81979Y-61829D01*
X82008Y-61843D01*
X82022Y-61857D01*
X82036Y-61886D01*
X82036Y-61929D01*
X82022Y-61957D01*
X82008Y-61972D01*
X81979Y-61986D01*
X81865Y-61986D01*
X82179Y-62129D02*
X82236Y-62129D01*
X82265Y-62115D01*
X82279Y-62100D01*
X82308Y-62057D01*
X82322Y-62000D01*
X82322Y-61886D01*
X82308Y-61857D01*
X82293Y-61843D01*
X82265Y-61829D01*
X82208Y-61829D01*
X82179Y-61843D01*
X82165Y-61857D01*
X82150Y-61886D01*
X82150Y-61957D01*
X82165Y-61986D01*
X82179Y-62000D01*
X82208Y-62015D01*
X82265Y-62015D01*
X82293Y-62000D01*
X82308Y-61986D01*
X82322Y-61957D01*
X89675Y-53550D02*
X89975Y-53450D01*
X89675Y-53350D01*
X89975Y-53079D02*
X89832Y-53179D01*
X89975Y-53250D02*
X89675Y-53250D01*
X89675Y-53136D01*
X89689Y-53107D01*
X89704Y-53093D01*
X89732Y-53079D01*
X89775Y-53079D01*
X89804Y-53093D01*
X89818Y-53107D01*
X89832Y-53136D01*
X89832Y-53250D01*
X89975Y-52793D02*
X89975Y-52965D01*
X89975Y-52879D02*
X89675Y-52879D01*
X89718Y-52907D01*
X89746Y-52936D01*
X89761Y-52965D01*
X89758Y-54479D02*
X89772Y-54493D01*
X89786Y-54536D01*
X89786Y-54564D01*
X89772Y-54607D01*
X89743Y-54636D01*
X89715Y-54650D01*
X89658Y-54664D01*
X89615Y-54664D01*
X89558Y-54650D01*
X89529Y-54636D01*
X89501Y-54607D01*
X89486Y-54564D01*
X89486Y-54536D01*
X89501Y-54493D01*
X89515Y-54479D01*
X89486Y-54379D02*
X89486Y-54179D01*
X89786Y-54307D01*
X89123Y-53242D02*
X89108Y-53256D01*
X89066Y-53271D01*
X89037Y-53271D01*
X88994Y-53256D01*
X88966Y-53228D01*
X88951Y-53199D01*
X88937Y-53142D01*
X88937Y-53099D01*
X88951Y-53042D01*
X88966Y-53013D01*
X88994Y-52985D01*
X89037Y-52971D01*
X89066Y-52971D01*
X89108Y-52985D01*
X89123Y-52999D01*
X89394Y-52971D02*
X89251Y-52971D01*
X89237Y-53113D01*
X89251Y-53099D01*
X89280Y-53085D01*
X89351Y-53085D01*
X89380Y-53099D01*
X89394Y-53113D01*
X89408Y-53142D01*
X89408Y-53213D01*
X89394Y-53242D01*
X89380Y-53256D01*
X89351Y-53271D01*
X89280Y-53271D01*
X89251Y-53256D01*
X89237Y-53242D01*
X82627Y-50515D02*
X82484Y-50515D01*
X82484Y-50215D01*
X82884Y-50515D02*
X82712Y-50515D01*
X82798Y-50515D02*
X82798Y-50215D01*
X82770Y-50257D01*
X82741Y-50286D01*
X82712Y-50300D01*
X88581Y-45830D02*
X88481Y-45830D01*
X88481Y-45987D02*
X88481Y-45687D01*
X88623Y-45687D01*
X88895Y-45987D02*
X88723Y-45987D01*
X88809Y-45987D02*
X88809Y-45687D01*
X88781Y-45730D01*
X88752Y-45758D01*
X88723Y-45773D01*
X85678Y-46549D02*
X85664Y-46563D01*
X85621Y-46578D01*
X85592Y-46578D01*
X85549Y-46563D01*
X85521Y-46535D01*
X85506Y-46506D01*
X85492Y-46449D01*
X85492Y-46406D01*
X85506Y-46349D01*
X85521Y-46320D01*
X85549Y-46292D01*
X85592Y-46278D01*
X85621Y-46278D01*
X85664Y-46292D01*
X85678Y-46306D01*
X85935Y-46378D02*
X85935Y-46578D01*
X85864Y-46263D02*
X85792Y-46478D01*
X85978Y-46478D01*
X74851Y-48714D02*
X74837Y-48729D01*
X74794Y-48743D01*
X74765Y-48743D01*
X74723Y-48729D01*
X74694Y-48700D01*
X74680Y-48672D01*
X74665Y-48614D01*
X74665Y-48572D01*
X74680Y-48514D01*
X74694Y-48486D01*
X74723Y-48457D01*
X74765Y-48443D01*
X74794Y-48443D01*
X74837Y-48457D01*
X74851Y-48472D01*
X74951Y-48443D02*
X75137Y-48443D01*
X75037Y-48557D01*
X75080Y-48557D01*
X75108Y-48572D01*
X75123Y-48586D01*
X75137Y-48614D01*
X75137Y-48686D01*
X75123Y-48714D01*
X75108Y-48729D01*
X75080Y-48743D01*
X74994Y-48743D01*
X74965Y-48729D01*
X74951Y-48714D01*
X73620Y-49427D02*
X73620Y-49642D01*
X73606Y-49684D01*
X73577Y-49713D01*
X73534Y-49727D01*
X73506Y-49727D01*
X73920Y-49727D02*
X73749Y-49727D01*
X73834Y-49727D02*
X73834Y-49427D01*
X73806Y-49470D01*
X73777Y-49499D01*
X73749Y-49513D01*
X78711Y-49461D02*
X78683Y-49446D01*
X78654Y-49418D01*
X78611Y-49375D01*
X78583Y-49361D01*
X78554Y-49361D01*
X78568Y-49432D02*
X78540Y-49418D01*
X78511Y-49389D01*
X78497Y-49332D01*
X78497Y-49232D01*
X78511Y-49175D01*
X78540Y-49146D01*
X78568Y-49132D01*
X78625Y-49132D01*
X78654Y-49146D01*
X78683Y-49175D01*
X78697Y-49232D01*
X78697Y-49332D01*
X78683Y-49389D01*
X78654Y-49418D01*
X78625Y-49432D01*
X78568Y-49432D01*
X78983Y-49432D02*
X78811Y-49432D01*
X78897Y-49432D02*
X78897Y-49132D01*
X78868Y-49175D01*
X78840Y-49203D01*
X78811Y-49218D01*
X77038Y-52020D02*
X77009Y-52005D01*
X76981Y-51977D01*
X76938Y-51934D01*
X76909Y-51920D01*
X76881Y-51920D01*
X76895Y-51991D02*
X76866Y-51977D01*
X76838Y-51948D01*
X76824Y-51891D01*
X76824Y-51791D01*
X76838Y-51734D01*
X76866Y-51705D01*
X76895Y-51691D01*
X76952Y-51691D01*
X76981Y-51705D01*
X77009Y-51734D01*
X77024Y-51791D01*
X77024Y-51891D01*
X77009Y-51948D01*
X76981Y-51977D01*
X76952Y-51991D01*
X76895Y-51991D01*
X77138Y-51720D02*
X77152Y-51705D01*
X77181Y-51691D01*
X77252Y-51691D01*
X77281Y-51705D01*
X77295Y-51720D01*
X77309Y-51748D01*
X77309Y-51777D01*
X77295Y-51820D01*
X77124Y-51991D01*
X77309Y-51991D01*
X77020Y-54654D02*
X77005Y-54683D01*
X76977Y-54711D01*
X76934Y-54754D01*
X76920Y-54783D01*
X76920Y-54811D01*
X76991Y-54797D02*
X76977Y-54825D01*
X76948Y-54854D01*
X76891Y-54868D01*
X76791Y-54868D01*
X76734Y-54854D01*
X76705Y-54825D01*
X76691Y-54797D01*
X76691Y-54740D01*
X76705Y-54711D01*
X76734Y-54683D01*
X76791Y-54668D01*
X76891Y-54668D01*
X76948Y-54683D01*
X76977Y-54711D01*
X76991Y-54740D01*
X76991Y-54797D01*
X76691Y-54568D02*
X76691Y-54383D01*
X76805Y-54483D01*
X76805Y-54440D01*
X76820Y-54411D01*
X76834Y-54397D01*
X76862Y-54383D01*
X76934Y-54383D01*
X76962Y-54397D01*
X76977Y-54411D01*
X76991Y-54440D01*
X76991Y-54525D01*
X76977Y-54554D01*
X76962Y-54568D01*
X78638Y-55604D02*
X78624Y-55618D01*
X78581Y-55633D01*
X78552Y-55633D01*
X78510Y-55618D01*
X78481Y-55590D01*
X78467Y-55561D01*
X78452Y-55504D01*
X78452Y-55461D01*
X78467Y-55404D01*
X78481Y-55376D01*
X78510Y-55347D01*
X78552Y-55333D01*
X78581Y-55333D01*
X78624Y-55347D01*
X78638Y-55361D01*
X78938Y-55633D02*
X78838Y-55490D01*
X78767Y-55633D02*
X78767Y-55333D01*
X78881Y-55333D01*
X78910Y-55347D01*
X78924Y-55361D01*
X78938Y-55390D01*
X78938Y-55433D01*
X78924Y-55461D01*
X78910Y-55476D01*
X78881Y-55490D01*
X78767Y-55490D01*
X79210Y-55333D02*
X79067Y-55333D01*
X79052Y-55476D01*
X79067Y-55461D01*
X79095Y-55447D01*
X79167Y-55447D01*
X79195Y-55461D01*
X79210Y-55476D01*
X79224Y-55504D01*
X79224Y-55576D01*
X79210Y-55604D01*
X79195Y-55618D01*
X79167Y-55633D01*
X79095Y-55633D01*
X79067Y-55618D01*
X79052Y-55604D01*
X79937Y-56769D02*
X79922Y-56798D01*
X79894Y-56826D01*
X79851Y-56869D01*
X79837Y-56898D01*
X79837Y-56926D01*
X79908Y-56912D02*
X79894Y-56941D01*
X79865Y-56969D01*
X79808Y-56983D01*
X79708Y-56983D01*
X79651Y-56969D01*
X79622Y-56941D01*
X79608Y-56912D01*
X79608Y-56855D01*
X79622Y-56826D01*
X79651Y-56798D01*
X79708Y-56783D01*
X79808Y-56783D01*
X79865Y-56798D01*
X79894Y-56826D01*
X79908Y-56855D01*
X79908Y-56912D01*
X79708Y-56526D02*
X79908Y-56526D01*
X79594Y-56598D02*
X79808Y-56669D01*
X79808Y-56483D01*
X85070Y-64877D02*
X85041Y-64862D01*
X85013Y-64834D01*
X84970Y-64791D01*
X84941Y-64777D01*
X84913Y-64777D01*
X84927Y-64848D02*
X84899Y-64834D01*
X84870Y-64805D01*
X84856Y-64748D01*
X84856Y-64648D01*
X84870Y-64591D01*
X84899Y-64562D01*
X84927Y-64548D01*
X84984Y-64548D01*
X85013Y-64562D01*
X85041Y-64591D01*
X85056Y-64648D01*
X85056Y-64748D01*
X85041Y-64805D01*
X85013Y-64834D01*
X84984Y-64848D01*
X84927Y-64848D01*
X85327Y-64548D02*
X85184Y-64548D01*
X85170Y-64691D01*
X85184Y-64677D01*
X85213Y-64662D01*
X85284Y-64662D01*
X85313Y-64677D01*
X85327Y-64691D01*
X85341Y-64719D01*
X85341Y-64791D01*
X85327Y-64819D01*
X85313Y-64834D01*
X85284Y-64848D01*
X85213Y-64848D01*
X85184Y-64834D01*
X85170Y-64819D01*
X85417Y-62027D02*
X85460Y-62041D01*
X85531Y-62041D01*
X85560Y-62027D01*
X85574Y-62012D01*
X85588Y-61984D01*
X85588Y-61955D01*
X85574Y-61927D01*
X85560Y-61912D01*
X85531Y-61898D01*
X85474Y-61884D01*
X85445Y-61870D01*
X85431Y-61855D01*
X85417Y-61827D01*
X85417Y-61798D01*
X85431Y-61770D01*
X85445Y-61755D01*
X85474Y-61741D01*
X85545Y-61741D01*
X85588Y-61755D01*
X85802Y-61741D02*
X85802Y-61955D01*
X85788Y-61998D01*
X85760Y-62027D01*
X85717Y-62041D01*
X85688Y-62041D01*
X86102Y-62041D02*
X85931Y-62041D01*
X86017Y-62041D02*
X86017Y-61741D01*
X85988Y-61784D01*
X85960Y-61812D01*
X85931Y-61827D01*
X87197Y-62027D02*
X87240Y-62041D01*
X87311Y-62041D01*
X87340Y-62027D01*
X87354Y-62012D01*
X87368Y-61984D01*
X87368Y-61955D01*
X87354Y-61927D01*
X87340Y-61912D01*
X87311Y-61898D01*
X87254Y-61884D01*
X87225Y-61870D01*
X87211Y-61855D01*
X87197Y-61827D01*
X87197Y-61798D01*
X87211Y-61770D01*
X87225Y-61755D01*
X87254Y-61741D01*
X87325Y-61741D01*
X87368Y-61755D01*
X87582Y-61741D02*
X87582Y-61955D01*
X87568Y-61998D01*
X87540Y-62027D01*
X87497Y-62041D01*
X87468Y-62041D01*
X87711Y-61770D02*
X87725Y-61755D01*
X87754Y-61741D01*
X87825Y-61741D01*
X87854Y-61755D01*
X87868Y-61770D01*
X87882Y-61798D01*
X87882Y-61827D01*
X87868Y-61870D01*
X87697Y-62041D01*
X87882Y-62041D01*
X87177Y-63587D02*
X87220Y-63601D01*
X87291Y-63601D01*
X87320Y-63587D01*
X87334Y-63572D01*
X87348Y-63544D01*
X87348Y-63515D01*
X87334Y-63487D01*
X87320Y-63472D01*
X87291Y-63458D01*
X87234Y-63444D01*
X87205Y-63430D01*
X87191Y-63415D01*
X87177Y-63387D01*
X87177Y-63358D01*
X87191Y-63330D01*
X87205Y-63315D01*
X87234Y-63301D01*
X87305Y-63301D01*
X87348Y-63315D01*
X87562Y-63301D02*
X87562Y-63515D01*
X87548Y-63558D01*
X87520Y-63587D01*
X87477Y-63601D01*
X87448Y-63601D01*
X87677Y-63301D02*
X87862Y-63301D01*
X87762Y-63415D01*
X87805Y-63415D01*
X87834Y-63430D01*
X87848Y-63444D01*
X87862Y-63472D01*
X87862Y-63544D01*
X87848Y-63572D01*
X87834Y-63587D01*
X87805Y-63601D01*
X87720Y-63601D01*
X87691Y-63587D01*
X87677Y-63572D01*
X80975Y-63240D02*
X80946Y-63226D01*
X80918Y-63197D01*
X80875Y-63154D01*
X80846Y-63140D01*
X80818Y-63140D01*
X80832Y-63211D02*
X80803Y-63197D01*
X80775Y-63169D01*
X80761Y-63111D01*
X80761Y-63011D01*
X80775Y-62954D01*
X80803Y-62926D01*
X80832Y-62911D01*
X80889Y-62911D01*
X80918Y-62926D01*
X80946Y-62954D01*
X80961Y-63011D01*
X80961Y-63111D01*
X80946Y-63169D01*
X80918Y-63197D01*
X80889Y-63211D01*
X80832Y-63211D01*
X81218Y-62911D02*
X81161Y-62911D01*
X81132Y-62926D01*
X81118Y-62940D01*
X81089Y-62983D01*
X81075Y-63040D01*
X81075Y-63154D01*
X81089Y-63183D01*
X81103Y-63197D01*
X81132Y-63211D01*
X81189Y-63211D01*
X81218Y-63197D01*
X81232Y-63183D01*
X81246Y-63154D01*
X81246Y-63083D01*
X81232Y-63054D01*
X81218Y-63040D01*
X81189Y-63026D01*
X81132Y-63026D01*
X81103Y-63040D01*
X81089Y-63054D01*
X81075Y-63083D01*
X84565Y-58072D02*
X84779Y-58072D01*
X84822Y-58086D01*
X84851Y-58115D01*
X84865Y-58158D01*
X84865Y-58186D01*
X84565Y-57786D02*
X84565Y-57929D01*
X84708Y-57943D01*
X84694Y-57929D01*
X84679Y-57901D01*
X84679Y-57829D01*
X84694Y-57801D01*
X84708Y-57786D01*
X84736Y-57772D01*
X84808Y-57772D01*
X84836Y-57786D01*
X84851Y-57801D01*
X84865Y-57829D01*
X84865Y-57901D01*
X84851Y-57929D01*
X84836Y-57943D01*
X88581Y-61730D02*
X88581Y-61945D01*
X88566Y-61988D01*
X88538Y-62016D01*
X88495Y-62030D01*
X88466Y-62030D01*
X88852Y-61730D02*
X88795Y-61730D01*
X88766Y-61745D01*
X88752Y-61759D01*
X88723Y-61802D01*
X88709Y-61859D01*
X88709Y-61973D01*
X88723Y-62002D01*
X88738Y-62016D01*
X88766Y-62030D01*
X88823Y-62030D01*
X88852Y-62016D01*
X88866Y-62002D01*
X88881Y-61973D01*
X88881Y-61902D01*
X88866Y-61873D01*
X88852Y-61859D01*
X88823Y-61845D01*
X88766Y-61845D01*
X88738Y-61859D01*
X88723Y-61873D01*
X88709Y-61902D01*
X91041Y-57203D02*
X91041Y-57417D01*
X91027Y-57460D01*
X90998Y-57489D01*
X90956Y-57503D01*
X90927Y-57503D01*
X91156Y-57203D02*
X91356Y-57203D01*
X91227Y-57503D01*
X88974Y-54742D02*
X88974Y-54956D01*
X88960Y-54999D01*
X88931Y-55028D01*
X88889Y-55042D01*
X88860Y-55042D01*
X89089Y-54742D02*
X89274Y-54742D01*
X89174Y-54856D01*
X89217Y-54856D01*
X89246Y-54871D01*
X89260Y-54885D01*
X89274Y-54914D01*
X89274Y-54985D01*
X89260Y-55014D01*
X89246Y-55028D01*
X89217Y-55042D01*
X89131Y-55042D01*
X89103Y-55028D01*
X89089Y-55014D01*
X75581Y-61139D02*
X75795Y-61139D01*
X75838Y-61154D01*
X75867Y-61182D01*
X75881Y-61225D01*
X75881Y-61254D01*
X75681Y-60868D02*
X75881Y-60868D01*
X75567Y-60940D02*
X75781Y-61011D01*
X75781Y-60825D01*
X89093Y-51477D02*
X89307Y-51477D01*
X89350Y-51492D01*
X89378Y-51520D01*
X89393Y-51563D01*
X89393Y-51592D01*
X89121Y-51349D02*
X89107Y-51335D01*
X89093Y-51306D01*
X89093Y-51235D01*
X89107Y-51206D01*
X89121Y-51192D01*
X89150Y-51177D01*
X89178Y-51177D01*
X89221Y-51192D01*
X89393Y-51363D01*
X89393Y-51177D01*
X83221Y-56651D02*
X83392Y-56651D01*
X83307Y-56951D02*
X83307Y-56651D01*
X83492Y-56951D02*
X83492Y-56651D01*
X83607Y-56651D01*
X83635Y-56665D01*
X83650Y-56680D01*
X83664Y-56708D01*
X83664Y-56751D01*
X83650Y-56780D01*
X83635Y-56794D01*
X83607Y-56808D01*
X83492Y-56808D01*
X83950Y-56951D02*
X83778Y-56951D01*
X83864Y-56951D02*
X83864Y-56651D01*
X83835Y-56694D01*
X83807Y-56722D01*
X83778Y-56737D01*
X83512Y-50880D02*
X83498Y-50894D01*
X83455Y-50908D01*
X83427Y-50908D01*
X83384Y-50894D01*
X83355Y-50865D01*
X83341Y-50837D01*
X83327Y-50780D01*
X83327Y-50737D01*
X83341Y-50680D01*
X83355Y-50651D01*
X83384Y-50623D01*
X83427Y-50608D01*
X83455Y-50608D01*
X83498Y-50623D01*
X83512Y-50637D01*
X83627Y-50637D02*
X83641Y-50623D01*
X83670Y-50608D01*
X83741Y-50608D01*
X83770Y-50623D01*
X83784Y-50637D01*
X83798Y-50665D01*
X83798Y-50694D01*
X83784Y-50737D01*
X83612Y-50908D01*
X83798Y-50908D01*
X81544Y-54915D02*
X81530Y-54929D01*
X81487Y-54944D01*
X81458Y-54944D01*
X81415Y-54929D01*
X81387Y-54901D01*
X81373Y-54872D01*
X81358Y-54815D01*
X81358Y-54772D01*
X81373Y-54715D01*
X81387Y-54687D01*
X81415Y-54658D01*
X81458Y-54644D01*
X81487Y-54644D01*
X81530Y-54658D01*
X81544Y-54672D01*
X81830Y-54944D02*
X81658Y-54944D01*
X81744Y-54944D02*
X81744Y-54644D01*
X81715Y-54687D01*
X81687Y-54715D01*
X81658Y-54729D01*
X79083Y-51007D02*
X78983Y-50864D01*
X78912Y-51007D02*
X78912Y-50707D01*
X79026Y-50707D01*
X79055Y-50721D01*
X79069Y-50735D01*
X79083Y-50764D01*
X79083Y-50807D01*
X79069Y-50835D01*
X79055Y-50850D01*
X79026Y-50864D01*
X78912Y-50864D01*
X79355Y-50707D02*
X79212Y-50707D01*
X79198Y-50850D01*
X79212Y-50835D01*
X79241Y-50821D01*
X79312Y-50821D01*
X79341Y-50835D01*
X79355Y-50850D01*
X79369Y-50878D01*
X79369Y-50950D01*
X79355Y-50978D01*
X79341Y-50992D01*
X79312Y-51007D01*
X79241Y-51007D01*
X79212Y-50992D01*
X79198Y-50978D01*
X77115Y-51400D02*
X77015Y-51258D01*
X76943Y-51400D02*
X76943Y-51100D01*
X77058Y-51100D01*
X77086Y-51115D01*
X77101Y-51129D01*
X77115Y-51158D01*
X77115Y-51200D01*
X77101Y-51229D01*
X77086Y-51243D01*
X77058Y-51258D01*
X76943Y-51258D01*
X77229Y-51129D02*
X77243Y-51115D01*
X77272Y-51100D01*
X77343Y-51100D01*
X77372Y-51115D01*
X77386Y-51129D01*
X77401Y-51158D01*
X77401Y-51186D01*
X77386Y-51229D01*
X77215Y-51400D01*
X77401Y-51400D01*
X75594Y-52975D02*
X75494Y-52832D01*
X75423Y-52975D02*
X75423Y-52675D01*
X75537Y-52675D01*
X75565Y-52690D01*
X75580Y-52704D01*
X75594Y-52732D01*
X75594Y-52775D01*
X75580Y-52804D01*
X75565Y-52818D01*
X75537Y-52832D01*
X75423Y-52832D01*
X75880Y-52975D02*
X75708Y-52975D01*
X75794Y-52975D02*
X75794Y-52675D01*
X75765Y-52718D01*
X75737Y-52747D01*
X75708Y-52761D01*
X76137Y-52775D02*
X76137Y-52975D01*
X76065Y-52661D02*
X75994Y-52875D01*
X76180Y-52875D01*
X87646Y-51893D02*
X87546Y-51750D01*
X87475Y-51893D02*
X87475Y-51593D01*
X87589Y-51593D01*
X87618Y-51607D01*
X87632Y-51621D01*
X87646Y-51650D01*
X87646Y-51693D01*
X87632Y-51721D01*
X87618Y-51735D01*
X87589Y-51750D01*
X87475Y-51750D01*
X87746Y-51593D02*
X87932Y-51593D01*
X87832Y-51707D01*
X87875Y-51707D01*
X87903Y-51721D01*
X87918Y-51735D01*
X87932Y-51764D01*
X87932Y-51835D01*
X87918Y-51864D01*
X87903Y-51878D01*
X87875Y-51893D01*
X87789Y-51893D01*
X87761Y-51878D01*
X87746Y-51864D01*
X87548Y-54058D02*
X87448Y-53915D01*
X87376Y-54058D02*
X87376Y-53758D01*
X87491Y-53758D01*
X87519Y-53772D01*
X87534Y-53787D01*
X87548Y-53815D01*
X87548Y-53858D01*
X87534Y-53887D01*
X87519Y-53901D01*
X87491Y-53915D01*
X87376Y-53915D01*
X87805Y-53758D02*
X87748Y-53758D01*
X87719Y-53772D01*
X87705Y-53787D01*
X87676Y-53829D01*
X87662Y-53887D01*
X87662Y-54001D01*
X87676Y-54029D01*
X87691Y-54044D01*
X87719Y-54058D01*
X87776Y-54058D01*
X87805Y-54044D01*
X87819Y-54029D01*
X87834Y-54001D01*
X87834Y-53929D01*
X87819Y-53901D01*
X87805Y-53887D01*
X87776Y-53872D01*
X87719Y-53872D01*
X87691Y-53887D01*
X87676Y-53901D01*
X87662Y-53929D01*
X88434Y-54029D02*
X88419Y-54044D01*
X88377Y-54058D01*
X88348Y-54058D01*
X88305Y-54044D01*
X88277Y-54015D01*
X88262Y-53987D01*
X88248Y-53929D01*
X88248Y-53887D01*
X88262Y-53829D01*
X88277Y-53801D01*
X88305Y-53772D01*
X88348Y-53758D01*
X88377Y-53758D01*
X88419Y-53772D01*
X88434Y-53787D01*
X88691Y-53758D02*
X88634Y-53758D01*
X88605Y-53772D01*
X88591Y-53787D01*
X88562Y-53829D01*
X88548Y-53887D01*
X88548Y-54001D01*
X88562Y-54029D01*
X88577Y-54044D01*
X88605Y-54058D01*
X88662Y-54058D01*
X88691Y-54044D01*
X88705Y-54029D01*
X88719Y-54001D01*
X88719Y-53929D01*
X88705Y-53901D01*
X88691Y-53887D01*
X88662Y-53872D01*
X88605Y-53872D01*
X88577Y-53887D01*
X88562Y-53901D01*
X88548Y-53929D01*
X75934Y-55141D02*
X75834Y-54998D01*
X75762Y-55141D02*
X75762Y-54841D01*
X75877Y-54841D01*
X75905Y-54855D01*
X75919Y-54869D01*
X75934Y-54898D01*
X75934Y-54941D01*
X75919Y-54969D01*
X75905Y-54983D01*
X75877Y-54998D01*
X75762Y-54998D01*
X76191Y-54941D02*
X76191Y-55141D01*
X76119Y-54826D02*
X76048Y-55041D01*
X76234Y-55041D01*
X75638Y-58093D02*
X75538Y-57951D01*
X75467Y-58093D02*
X75467Y-57793D01*
X75581Y-57793D01*
X75610Y-57808D01*
X75624Y-57822D01*
X75638Y-57851D01*
X75638Y-57893D01*
X75624Y-57922D01*
X75610Y-57936D01*
X75581Y-57951D01*
X75467Y-57951D01*
X75738Y-57793D02*
X75938Y-57793D01*
X75810Y-58093D01*
X76820Y-56293D02*
X76805Y-56307D01*
X76762Y-56322D01*
X76734Y-56322D01*
X76691Y-56307D01*
X76662Y-56279D01*
X76648Y-56250D01*
X76634Y-56193D01*
X76634Y-56150D01*
X76648Y-56093D01*
X76662Y-56065D01*
X76691Y-56036D01*
X76734Y-56022D01*
X76762Y-56022D01*
X76805Y-56036D01*
X76820Y-56050D01*
X76962Y-56322D02*
X77020Y-56322D01*
X77048Y-56307D01*
X77062Y-56293D01*
X77091Y-56250D01*
X77105Y-56193D01*
X77105Y-56079D01*
X77091Y-56050D01*
X77077Y-56036D01*
X77048Y-56022D01*
X76991Y-56022D01*
X76962Y-56036D01*
X76948Y-56050D01*
X76934Y-56079D01*
X76934Y-56150D01*
X76948Y-56179D01*
X76962Y-56193D01*
X76991Y-56207D01*
X77048Y-56207D01*
X77077Y-56193D01*
X77091Y-56179D01*
X77105Y-56150D01*
X78985Y-59471D02*
X78885Y-59328D01*
X78814Y-59471D02*
X78814Y-59171D01*
X78928Y-59171D01*
X78956Y-59186D01*
X78971Y-59200D01*
X78985Y-59228D01*
X78985Y-59271D01*
X78971Y-59300D01*
X78956Y-59314D01*
X78928Y-59328D01*
X78814Y-59328D01*
X79156Y-59300D02*
X79128Y-59286D01*
X79114Y-59271D01*
X79099Y-59243D01*
X79099Y-59228D01*
X79114Y-59200D01*
X79128Y-59186D01*
X79156Y-59171D01*
X79214Y-59171D01*
X79242Y-59186D01*
X79256Y-59200D01*
X79271Y-59228D01*
X79271Y-59243D01*
X79256Y-59271D01*
X79242Y-59286D01*
X79214Y-59300D01*
X79156Y-59300D01*
X79128Y-59314D01*
X79114Y-59328D01*
X79099Y-59357D01*
X79099Y-59414D01*
X79114Y-59443D01*
X79128Y-59457D01*
X79156Y-59471D01*
X79214Y-59471D01*
X79242Y-59457D01*
X79256Y-59443D01*
X79271Y-59414D01*
X79271Y-59357D01*
X79256Y-59328D01*
X79242Y-59314D01*
X79214Y-59300D01*
X80318Y-59471D02*
X80218Y-59328D01*
X80147Y-59471D02*
X80147Y-59171D01*
X80261Y-59171D01*
X80290Y-59186D01*
X80304Y-59200D01*
X80318Y-59228D01*
X80318Y-59271D01*
X80304Y-59300D01*
X80290Y-59314D01*
X80261Y-59328D01*
X80147Y-59328D01*
X80604Y-59471D02*
X80433Y-59471D01*
X80518Y-59471D02*
X80518Y-59171D01*
X80490Y-59214D01*
X80461Y-59243D01*
X80433Y-59257D01*
X80890Y-59471D02*
X80718Y-59471D01*
X80804Y-59471D02*
X80804Y-59171D01*
X80776Y-59214D01*
X80747Y-59243D01*
X80718Y-59257D01*
X79039Y-61637D02*
X78939Y-61494D01*
X78867Y-61637D02*
X78867Y-61337D01*
X78982Y-61337D01*
X79010Y-61351D01*
X79025Y-61365D01*
X79039Y-61394D01*
X79039Y-61437D01*
X79025Y-61465D01*
X79010Y-61480D01*
X78982Y-61494D01*
X78867Y-61494D01*
X79325Y-61637D02*
X79153Y-61637D01*
X79239Y-61637D02*
X79239Y-61337D01*
X79210Y-61380D01*
X79182Y-61408D01*
X79153Y-61422D01*
X79439Y-61365D02*
X79453Y-61351D01*
X79482Y-61337D01*
X79553Y-61337D01*
X79582Y-61351D01*
X79596Y-61365D01*
X79610Y-61394D01*
X79610Y-61422D01*
X79596Y-61465D01*
X79425Y-61637D01*
X79610Y-61637D01*
X82878Y-59246D02*
X82863Y-59260D01*
X82820Y-59274D01*
X82792Y-59274D01*
X82749Y-59260D01*
X82720Y-59232D01*
X82706Y-59203D01*
X82692Y-59146D01*
X82692Y-59103D01*
X82706Y-59046D01*
X82720Y-59017D01*
X82749Y-58989D01*
X82792Y-58974D01*
X82820Y-58974D01*
X82863Y-58989D01*
X82878Y-59003D01*
X83163Y-59274D02*
X82992Y-59274D01*
X83078Y-59274D02*
X83078Y-58974D01*
X83049Y-59017D01*
X83020Y-59046D01*
X82992Y-59060D01*
X83349Y-58974D02*
X83378Y-58974D01*
X83406Y-58989D01*
X83420Y-59003D01*
X83435Y-59032D01*
X83449Y-59089D01*
X83449Y-59160D01*
X83435Y-59217D01*
X83420Y-59246D01*
X83406Y-59260D01*
X83378Y-59274D01*
X83349Y-59274D01*
X83320Y-59260D01*
X83306Y-59246D01*
X83292Y-59217D01*
X83278Y-59160D01*
X83278Y-59089D01*
X83292Y-59032D01*
X83306Y-59003D01*
X83320Y-58989D01*
X83349Y-58974D01*
X82681Y-63408D02*
X82581Y-63265D01*
X82509Y-63408D02*
X82509Y-63108D01*
X82624Y-63108D01*
X82652Y-63123D01*
X82666Y-63137D01*
X82681Y-63165D01*
X82681Y-63208D01*
X82666Y-63237D01*
X82652Y-63251D01*
X82624Y-63265D01*
X82509Y-63265D01*
X82966Y-63408D02*
X82795Y-63408D01*
X82881Y-63408D02*
X82881Y-63108D01*
X82852Y-63151D01*
X82824Y-63180D01*
X82795Y-63194D01*
X83152Y-63108D02*
X83181Y-63108D01*
X83209Y-63123D01*
X83224Y-63137D01*
X83238Y-63165D01*
X83252Y-63223D01*
X83252Y-63294D01*
X83238Y-63351D01*
X83224Y-63380D01*
X83209Y-63394D01*
X83181Y-63408D01*
X83152Y-63408D01*
X83124Y-63394D01*
X83109Y-63380D01*
X83095Y-63351D01*
X83081Y-63294D01*
X83081Y-63223D01*
X83095Y-63165D01*
X83109Y-63137D01*
X83124Y-63123D01*
X83152Y-63108D01*
X78941Y-64393D02*
X78841Y-64250D01*
X78769Y-64393D02*
X78769Y-64093D01*
X78883Y-64093D01*
X78912Y-64107D01*
X78926Y-64121D01*
X78941Y-64150D01*
X78941Y-64193D01*
X78926Y-64221D01*
X78912Y-64235D01*
X78883Y-64250D01*
X78769Y-64250D01*
X79226Y-64393D02*
X79055Y-64393D01*
X79141Y-64393D02*
X79141Y-64093D01*
X79112Y-64135D01*
X79083Y-64164D01*
X79055Y-64178D01*
X79326Y-64093D02*
X79512Y-64093D01*
X79412Y-64207D01*
X79455Y-64207D01*
X79483Y-64221D01*
X79498Y-64235D01*
X79512Y-64264D01*
X79512Y-64335D01*
X79498Y-64364D01*
X79483Y-64378D01*
X79455Y-64393D01*
X79369Y-64393D01*
X79341Y-64378D01*
X79326Y-64364D01*
X90939Y-55561D02*
X90953Y-55576D01*
X90967Y-55618D01*
X90967Y-55647D01*
X90953Y-55690D01*
X90925Y-55718D01*
X90896Y-55733D01*
X90839Y-55747D01*
X90796Y-55747D01*
X90739Y-55733D01*
X90710Y-55718D01*
X90682Y-55690D01*
X90667Y-55647D01*
X90667Y-55618D01*
X90682Y-55576D01*
X90696Y-55561D01*
X90796Y-55390D02*
X90782Y-55418D01*
X90767Y-55433D01*
X90739Y-55447D01*
X90725Y-55447D01*
X90696Y-55433D01*
X90682Y-55418D01*
X90667Y-55390D01*
X90667Y-55333D01*
X90682Y-55304D01*
X90696Y-55290D01*
X90725Y-55276D01*
X90739Y-55276D01*
X90767Y-55290D01*
X90782Y-55304D01*
X90796Y-55333D01*
X90796Y-55390D01*
X90810Y-55418D01*
X90825Y-55433D01*
X90853Y-55447D01*
X90910Y-55447D01*
X90939Y-55433D01*
X90953Y-55418D01*
X90967Y-55390D01*
X90967Y-55333D01*
X90953Y-55304D01*
X90939Y-55290D01*
X90910Y-55276D01*
X90853Y-55276D01*
X90825Y-55290D01*
X90810Y-55304D01*
X90796Y-55333D01*
M02*
